<?xml version="1.0" encoding="UTF-8" standalone="no"?><svg xmlns="http://www.w3.org/2000/svg" xmlns:xlink="http://www.w3.org/1999/xlink" contentScriptType="application/ecmascript" contentStyleType="text/css" height="1538px" preserveAspectRatio="none" style="width:1156px;height:1538px;" version="1.1" viewBox="0 0 1156 1538" width="1156px" zoomAndPan="magnify"><defs/><rect id="svg-background" width="100%" height="100%" fill="#FFFFFF"/><g><text fill="#000000" font-family="sans-serif" font-size="18" lengthAdjust="spacingAndGlyphs" textLength="629" x="264.75" y="26.708">Детальный клиентский путь: от /start до уведомления о вызове</text><rect fill="#FFFFFF" height="351.7266" rx="6" ry="6" style="stroke: #000000; stroke-width: 2.0;" width="817.5" x="13" y="263.7813"/><rect fill="#FFFFFF" height="161.4688" rx="6" ry="6" style="stroke: #000000; stroke-width: 2.0;" width="809.5" x="13" y="629.5078"/><rect fill="#FFFFFF" height="102.2031" style="stroke: none; stroke-width: 1.0;" width="809.5" x="13" y="688.7734"/><rect fill="#FFFFFF" height="220.7344" rx="6" ry="6" style="stroke: #000000; stroke-width: 2.0;" width="999.5" x="13" y="834.1094"/><rect fill="#FFFFFF" height="87.0703" style="stroke: none; stroke-width: 1.0;" width="999.5" x="13" y="967.7734"/><rect fill="#FFFFFF" height="204.6016" rx="6" ry="6" style="stroke: #000000; stroke-width: 2.0;" width="818.5" x="194" y="1097.9766"/><rect fill="#FFFFFF" height="87.0703" style="stroke: none; stroke-width: 1.0;" width="818.5" x="194" y="1215.5078"/><rect fill="#FFFFFF" height="117.5313" rx="6" ry="6" style="stroke: #000000; stroke-width: 2.0;" width="951.5" x="194" y="1316.5781"/><line style="stroke: #A80036; stroke-width: 1.0; stroke-dasharray: 5.0,5.0;" x1="53" x2="53" y1="117.25" y2="1451.1094"/><line style="stroke: #A80036; stroke-width: 1.0; stroke-dasharray: 5.0,5.0;" x1="243" x2="243" y1="117.25" y2="1451.1094"/><line style="stroke: #A80036; stroke-width: 1.0; stroke-dasharray: 5.0,5.0;" x1="599.5" x2="599.5" y1="117.25" y2="1451.1094"/><line style="stroke: #A80036; stroke-width: 1.0; stroke-dasharray: 5.0,5.0;" x1="959.5" x2="959.5" y1="117.25" y2="1451.1094"/><line style="stroke: #A80036; stroke-width: 1.0; stroke-dasharray: 5.0,5.0;" x1="1073.5" x2="1073.5" y1="117.25" y2="1451.1094"/><text fill="#000000" font-family="sans-serif" font-size="14" lengthAdjust="spacingAndGlyphs" textLength="55" x="23" y="113.9482">Клиент</text><ellipse cx="53.5" cy="47.9531" fill="#FEFECE" rx="8" ry="8" style="stroke: #A80036; stroke-width: 2.0;"/><path d="M53.5,55.9531 L53.5,82.9531 M40.5,63.9531 L66.5,63.9531 M53.5,82.9531 L40.5,97.9531 M53.5,82.9531 L66.5,97.9531 " fill="none" style="stroke: #A80036; stroke-width: 2.0;"/><text fill="#000000" font-family="sans-serif" font-size="14" lengthAdjust="spacingAndGlyphs" textLength="55" x="23" y="1463.1045">Клиент</text><ellipse cx="53.5" cy="1476.4063" fill="#FEFECE" rx="8" ry="8" style="stroke: #A80036; stroke-width: 2.0;"/><path d="M53.5,1484.4063 L53.5,1511.4063 M40.5,1492.4063 L66.5,1492.4063 M53.5,1511.4063 L40.5,1526.4063 M53.5,1511.4063 L66.5,1526.4063 " fill="none" style="stroke: #A80036; stroke-width: 2.0;"/><rect fill="#FEFECE" height="30.2969" rx="6" ry="6" style="stroke: #A80036; stroke-width: 1.5;" width="79" x="204" y="85.9531"/><text fill="#000000" font-family="sans-serif" font-size="14" lengthAdjust="spacingAndGlyphs" textLength="65" x="211" y="105.9482">Telegram</text><rect fill="#FEFECE" height="30.2969" rx="6" ry="6" style="stroke: #A80036; stroke-width: 1.5;" width="79" x="204" y="1450.1094"/><text fill="#000000" font-family="sans-serif" font-size="14" lengthAdjust="spacingAndGlyphs" textLength="65" x="211" y="1470.1045">Telegram</text><rect fill="#FEFECE" height="30.2969" rx="6" ry="6" style="stroke: #A80036; stroke-width: 1.5;" width="42" x="578.5" y="85.9531"/><text fill="#000000" font-family="sans-serif" font-size="14" lengthAdjust="spacingAndGlyphs" textLength="28" x="585.5" y="105.9482">Бот</text><rect fill="#FEFECE" height="30.2969" rx="6" ry="6" style="stroke: #A80036; stroke-width: 1.5;" width="42" x="578.5" y="1450.1094"/><text fill="#000000" font-family="sans-serif" font-size="14" lengthAdjust="spacingAndGlyphs" textLength="28" x="585.5" y="1470.1045">Бот</text><rect fill="#FEFECE" height="30.2969" rx="6" ry="6" style="stroke: #A80036; stroke-width: 1.5;" width="86" x="916.5" y="85.9531"/><text fill="#000000" font-family="sans-serif" font-size="14" lengthAdjust="spacingAndGlyphs" textLength="72" x="923.5" y="105.9482">Queue API</text><rect fill="#FEFECE" height="30.2969" rx="6" ry="6" style="stroke: #A80036; stroke-width: 1.5;" width="86" x="916.5" y="1450.1094"/><text fill="#000000" font-family="sans-serif" font-size="14" lengthAdjust="spacingAndGlyphs" textLength="72" x="923.5" y="1470.1045">Queue API</text><rect fill="#FEFECE" height="46.5938" rx="6" ry="6" style="stroke: #A80036; stroke-width: 1.5;" width="123" x="1012.5" y="69.6563"/><text fill="#000000" font-family="sans-serif" font-size="14" lengthAdjust="spacingAndGlyphs" textLength="47" x="1050.5" y="89.6514">Events</text><text fill="#000000" font-family="sans-serif" font-size="14" lengthAdjust="spacingAndGlyphs" textLength="109" x="1019.5" y="105.9482">(CometD/Kafka)</text><rect fill="#FEFECE" height="46.5938" rx="6" ry="6" style="stroke: #A80036; stroke-width: 1.5;" width="123" x="1012.5" y="1450.1094"/><text fill="#000000" font-family="sans-serif" font-size="14" lengthAdjust="spacingAndGlyphs" textLength="47" x="1050.5" y="1470.1045">Events</text><text fill="#000000" font-family="sans-serif" font-size="14" lengthAdjust="spacingAndGlyphs" textLength="109" x="1019.5" y="1486.4014">(CometD/Kafka)</text><polygon fill="#A80036" points="231.5,144.3828,241.5,148.3828,231.5,152.3828,235.5,148.3828" style="stroke: #A80036; stroke-width: 1.0;"/><line style="stroke: #A80036; stroke-width: 1.0;" x1="53.5" x2="237.5" y1="148.3828" y2="148.3828"/><text fill="#000000" font-family="sans-serif" font-size="13" lengthAdjust="spacingAndGlyphs" textLength="34" x="60.5" y="143.3169">/start</text><polygon fill="#A80036" points="587.5,173.5156,597.5,177.5156,587.5,181.5156,591.5,177.5156" style="stroke: #A80036; stroke-width: 1.0;"/><line style="stroke: #A80036; stroke-width: 1.0;" x1="243.5" x2="593.5" y1="177.5156" y2="177.5156"/><text fill="#000000" font-family="sans-serif" font-size="13" lengthAdjust="spacingAndGlyphs" textLength="89" x="250.5" y="172.4497">update(/start)</text><line style="stroke: #A80036; stroke-width: 1.0;" x1="599.5" x2="641.5" y1="206.6484" y2="206.6484"/><line style="stroke: #A80036; stroke-width: 1.0;" x1="641.5" x2="641.5" y1="206.6484" y2="219.6484"/><line style="stroke: #A80036; stroke-width: 1.0;" x1="600.5" x2="641.5" y1="219.6484" y2="219.6484"/><polygon fill="#A80036" points="610.5,215.6484,600.5,219.6484,610.5,223.6484,606.5,219.6484" style="stroke: #A80036; stroke-width: 1.0;"/><text fill="#000000" font-family="sans-serif" font-size="13" lengthAdjust="spacingAndGlyphs" textLength="233" x="606.5" y="201.5825">загрузка конфигурации филиалов</text><polygon fill="#A80036" points="254.5,244.7813,244.5,248.7813,254.5,252.7813,250.5,248.7813" style="stroke: #A80036; stroke-width: 1.0;"/><line style="stroke: #A80036; stroke-width: 1.0; stroke-dasharray: 2.0,2.0;" x1="248.5" x2="598.5" y1="248.7813" y2="248.7813"/><text fill="#000000" font-family="sans-serif" font-size="13" lengthAdjust="spacingAndGlyphs" textLength="207" x="260.5" y="243.7153">приветствие + начало опроса</text><path d="M19,263.7813 L396,263.7813 L396,270.7813 L386,280.7813 L13,280.7813 L13,269.7813 " fill="#EEEEEE" style="stroke: #000000; stroke-width: 1.0;"/><rect fill="none" height="351.7266" rx="6" ry="6" style="stroke: #000000; stroke-width: 2.0;" width="817.5" x="13" y="263.7813"/><text fill="#000000" font-family="sans-serif" font-size="13" font-weight="bold" lengthAdjust="spacingAndGlyphs" textLength="338" x="28" y="276.8481">Опрос клиента перед оформлением визита</text><polygon fill="#A80036" points="254.5,313.1797,244.5,317.1797,254.5,321.1797,250.5,317.1797" style="stroke: #A80036; stroke-width: 1.0;"/><line style="stroke: #A80036; stroke-width: 1.0; stroke-dasharray: 2.0,2.0;" x1="248.5" x2="598.5" y1="317.1797" y2="317.1797"/><text fill="#000000" font-family="sans-serif" font-size="13" lengthAdjust="spacingAndGlyphs" textLength="210" x="260.5" y="296.981">вопрос: формат обслуживания</text><text fill="#000000" font-family="sans-serif" font-size="13" lengthAdjust="spacingAndGlyphs" textLength="270" x="260.5" y="312.1138">(онлайн/офлайн/первичный/повторный)</text><polygon fill="#A80036" points="231.5,342.3125,241.5,346.3125,231.5,350.3125,235.5,346.3125" style="stroke: #A80036; stroke-width: 1.0;"/><line style="stroke: #A80036; stroke-width: 1.0;" x1="53.5" x2="237.5" y1="346.3125" y2="346.3125"/><text fill="#000000" font-family="sans-serif" font-size="13" lengthAdjust="spacingAndGlyphs" textLength="107" x="60.5" y="341.2466">выбор формата</text><polygon fill="#A80036" points="587.5,371.4453,597.5,375.4453,587.5,379.4453,591.5,375.4453" style="stroke: #A80036; stroke-width: 1.0;"/><line style="stroke: #A80036; stroke-width: 1.0;" x1="243.5" x2="593.5" y1="375.4453" y2="375.4453"/><text fill="#000000" font-family="sans-serif" font-size="13" lengthAdjust="spacingAndGlyphs" textLength="104" x="250.5" y="370.3794">callback(format)</text><polygon fill="#A80036" points="254.5,400.5781,244.5,404.5781,254.5,408.5781,250.5,404.5781" style="stroke: #A80036; stroke-width: 1.0;"/><line style="stroke: #A80036; stroke-width: 1.0; stroke-dasharray: 2.0,2.0;" x1="248.5" x2="598.5" y1="404.5781" y2="404.5781"/><text fill="#000000" font-family="sans-serif" font-size="13" lengthAdjust="spacingAndGlyphs" textLength="305" x="260.5" y="399.5122">вопрос: желаемая дата и интервал времени</text><polygon fill="#A80036" points="231.5,429.7109,241.5,433.7109,231.5,437.7109,235.5,433.7109" style="stroke: #A80036; stroke-width: 1.0;"/><line style="stroke: #A80036; stroke-width: 1.0;" x1="53.5" x2="237.5" y1="433.7109" y2="433.7109"/><text fill="#000000" font-family="sans-serif" font-size="13" lengthAdjust="spacingAndGlyphs" textLength="166" x="60.5" y="428.645">выбрать дату/интервал</text><polygon fill="#A80036" points="587.5,458.8438,597.5,462.8438,587.5,466.8438,591.5,462.8438" style="stroke: #A80036; stroke-width: 1.0;"/><line style="stroke: #A80036; stroke-width: 1.0;" x1="243.5" x2="593.5" y1="462.8438" y2="462.8438"/><text fill="#000000" font-family="sans-serif" font-size="13" lengthAdjust="spacingAndGlyphs" textLength="115" x="250.5" y="457.7778">callback(dateSlot)</text><polygon fill="#A80036" points="254.5,503.1094,244.5,507.1094,254.5,511.1094,250.5,507.1094" style="stroke: #A80036; stroke-width: 1.0;"/><line style="stroke: #A80036; stroke-width: 1.0; stroke-dasharray: 2.0,2.0;" x1="248.5" x2="598.5" y1="507.1094" y2="507.1094"/><text fill="#000000" font-family="sans-serif" font-size="13" lengthAdjust="spacingAndGlyphs" textLength="238" x="260.5" y="486.9106">вопрос: подтверждение контакта</text><text fill="#000000" font-family="sans-serif" font-size="13" lengthAdjust="spacingAndGlyphs" textLength="165" x="260.5" y="502.0435">(телефон/комментарий)</text><polygon fill="#A80036" points="231.5,532.2422,241.5,536.2422,231.5,540.2422,235.5,536.2422" style="stroke: #A80036; stroke-width: 1.0;"/><line style="stroke: #A80036; stroke-width: 1.0;" x1="53.5" x2="237.5" y1="536.2422" y2="536.2422"/><text fill="#000000" font-family="sans-serif" font-size="13" lengthAdjust="spacingAndGlyphs" textLength="151" x="60.5" y="531.1763">подтверждение/ввод</text><polygon fill="#A80036" points="587.5,561.375,597.5,565.375,587.5,569.375,591.5,565.375" style="stroke: #A80036; stroke-width: 1.0;"/><line style="stroke: #A80036; stroke-width: 1.0;" x1="243.5" x2="593.5" y1="565.375" y2="565.375"/><text fill="#000000" font-family="sans-serif" font-size="13" lengthAdjust="spacingAndGlyphs" textLength="111" x="250.5" y="560.3091">message/contact</text><line style="stroke: #A80036; stroke-width: 1.0;" x1="599.5" x2="641.5" y1="594.5078" y2="594.5078"/><line style="stroke: #A80036; stroke-width: 1.0;" x1="641.5" x2="641.5" y1="594.5078" y2="607.5078"/><line style="stroke: #A80036; stroke-width: 1.0;" x1="600.5" x2="641.5" y1="607.5078" y2="607.5078"/><polygon fill="#A80036" points="610.5,603.5078,600.5,607.5078,610.5,611.5078,606.5,607.5078" style="stroke: #A80036; stroke-width: 1.0;"/><text fill="#000000" font-family="sans-serif" font-size="13" lengthAdjust="spacingAndGlyphs" textLength="212" x="606.5" y="589.4419">валидация ответов опросника</text><path d="M19,629.5078 L77,629.5078 L77,636.5078 L67,646.5078 L13,646.5078 L13,635.5078 " fill="#EEEEEE" style="stroke: #000000; stroke-width: 1.0;"/><rect fill="none" height="161.4688" rx="6" ry="6" style="stroke: #000000; stroke-width: 2.0;" width="809.5" x="13" y="629.5078"/><text fill="#000000" font-family="sans-serif" font-size="13" font-weight="bold" lengthAdjust="spacingAndGlyphs" textLength="19" x="28" y="642.5747">alt</text><text fill="#000000" font-family="sans-serif" font-size="11" font-weight="bold" lengthAdjust="spacingAndGlyphs" textLength="163" x="92" y="641.7183">[настроен один филиал]</text><line style="stroke: #A80036; stroke-width: 1.0;" x1="599.5" x2="641.5" y1="667.7734" y2="667.7734"/><line style="stroke: #A80036; stroke-width: 1.0;" x1="641.5" x2="641.5" y1="667.7734" y2="680.7734"/><line style="stroke: #A80036; stroke-width: 1.0;" x1="600.5" x2="641.5" y1="680.7734" y2="680.7734"/><polygon fill="#A80036" points="610.5,676.7734,600.5,680.7734,610.5,684.7734,606.5,680.7734" style="stroke: #A80036; stroke-width: 1.0;"/><text fill="#000000" font-family="sans-serif" font-size="13" lengthAdjust="spacingAndGlyphs" textLength="204" x="606.5" y="662.7075">выбор филиала по умолчанию</text><line style="stroke: #000000; stroke-width: 1.0; stroke-dasharray: 2.0,2.0;" x1="13" x2="822.5" y1="689.7734" y2="689.7734"/><text fill="#000000" font-family="sans-serif" font-size="11" font-weight="bold" lengthAdjust="spacingAndGlyphs" textLength="221" x="18" y="699.9839">[настроено несколько филиалов]</text><polygon fill="#A80036" points="254.5,720.7109,244.5,724.7109,254.5,728.7109,250.5,724.7109" style="stroke: #A80036; stroke-width: 1.0;"/><line style="stroke: #A80036; stroke-width: 1.0; stroke-dasharray: 2.0,2.0;" x1="248.5" x2="598.5" y1="724.7109" y2="724.7109"/><text fill="#000000" font-family="sans-serif" font-size="13" lengthAdjust="spacingAndGlyphs" textLength="218" x="260.5" y="719.645">показать клавиатуру филиалов</text><polygon fill="#A80036" points="231.5,749.8438,241.5,753.8438,231.5,757.8438,235.5,753.8438" style="stroke: #A80036; stroke-width: 1.0;"/><line style="stroke: #A80036; stroke-width: 1.0;" x1="53.5" x2="237.5" y1="753.8438" y2="753.8438"/><text fill="#000000" font-family="sans-serif" font-size="13" lengthAdjust="spacingAndGlyphs" textLength="114" x="60.5" y="748.7778">выбрать филиал</text><polygon fill="#A80036" points="587.5,778.9766,597.5,782.9766,587.5,786.9766,591.5,782.9766" style="stroke: #A80036; stroke-width: 1.0;"/><line style="stroke: #A80036; stroke-width: 1.0;" x1="243.5" x2="593.5" y1="782.9766" y2="782.9766"/><text fill="#000000" font-family="sans-serif" font-size="13" lengthAdjust="spacingAndGlyphs" textLength="116" x="250.5" y="777.9106">callback(branchId)</text><polygon fill="#A80036" points="947.5,815.1094,957.5,819.1094,947.5,823.1094,951.5,819.1094" style="stroke: #A80036; stroke-width: 1.0;"/><line style="stroke: #A80036; stroke-width: 1.0;" x1="599.5" x2="953.5" y1="819.1094" y2="819.1094"/><text fill="#000000" font-family="sans-serif" font-size="13" lengthAdjust="spacingAndGlyphs" textLength="146" x="606.5" y="814.0435">GET services(branchId)</text><path d="M19,834.1094 L77,834.1094 L77,841.1094 L67,851.1094 L13,851.1094 L13,840.1094 " fill="#EEEEEE" style="stroke: #000000; stroke-width: 1.0;"/><rect fill="none" height="220.7344" rx="6" ry="6" style="stroke: #000000; stroke-width: 2.0;" width="999.5" x="13" y="834.1094"/><text fill="#000000" font-family="sans-serif" font-size="13" font-weight="bold" lengthAdjust="spacingAndGlyphs" textLength="19" x="28" y="847.1763">alt</text><text fill="#000000" font-family="sans-serif" font-size="11" font-weight="bold" lengthAdjust="spacingAndGlyphs" textLength="120" x="92" y="846.3198">[услуги доступны]</text><polygon fill="#A80036" points="610.5,868.375,600.5,872.375,610.5,876.375,606.5,872.375" style="stroke: #A80036; stroke-width: 1.0;"/><line style="stroke: #A80036; stroke-width: 1.0; stroke-dasharray: 2.0,2.0;" x1="604.5" x2="958.5" y1="872.375" y2="872.375"/><text fill="#000000" font-family="sans-serif" font-size="13" lengthAdjust="spacingAndGlyphs" textLength="62" x="616.5" y="867.3091">services[]</text><polygon fill="#A80036" points="254.5,897.5078,244.5,901.5078,254.5,905.5078,250.5,901.5078" style="stroke: #A80036; stroke-width: 1.0;"/><line style="stroke: #A80036; stroke-width: 1.0; stroke-dasharray: 2.0,2.0;" x1="248.5" x2="598.5" y1="901.5078" y2="901.5078"/><text fill="#000000" font-family="sans-serif" font-size="13" lengthAdjust="spacingAndGlyphs" textLength="187" x="260.5" y="896.4419">показать клавиатуру услуг</text><polygon fill="#A80036" points="231.5,926.6406,241.5,930.6406,231.5,934.6406,235.5,930.6406" style="stroke: #A80036; stroke-width: 1.0;"/><line style="stroke: #A80036; stroke-width: 1.0;" x1="53.5" x2="237.5" y1="930.6406" y2="930.6406"/><text fill="#000000" font-family="sans-serif" font-size="13" lengthAdjust="spacingAndGlyphs" textLength="106" x="60.5" y="925.5747">выбрать услугу</text><polygon fill="#A80036" points="587.5,955.7734,597.5,959.7734,587.5,963.7734,591.5,959.7734" style="stroke: #A80036; stroke-width: 1.0;"/><line style="stroke: #A80036; stroke-width: 1.0;" x1="243.5" x2="593.5" y1="959.7734" y2="959.7734"/><text fill="#000000" font-family="sans-serif" font-size="13" lengthAdjust="spacingAndGlyphs" textLength="117" x="250.5" y="954.7075">callback(serviceId)</text><line style="stroke: #000000; stroke-width: 1.0; stroke-dasharray: 2.0,2.0;" x1="13" x2="1012.5" y1="968.7734" y2="968.7734"/><text fill="#000000" font-family="sans-serif" font-size="11" font-weight="bold" lengthAdjust="spacingAndGlyphs" textLength="200" x="18" y="978.9839">[услуги недоступны / таймаут]</text><polygon fill="#A80036" points="610.5,999.7109,600.5,1003.7109,610.5,1007.7109,606.5,1003.7109" style="stroke: #A80036; stroke-width: 1.0;"/><line style="stroke: #A80036; stroke-width: 1.0; stroke-dasharray: 2.0,2.0;" x1="604.5" x2="958.5" y1="1003.7109" y2="1003.7109"/><text fill="#000000" font-family="sans-serif" font-size="13" lengthAdjust="spacingAndGlyphs" textLength="102" x="616.5" y="998.645">4xx/5xx/timeout</text><polygon fill="#A80036" points="254.5,1028.8438,244.5,1032.8438,254.5,1036.8438,250.5,1032.8438" style="stroke: #A80036; stroke-width: 1.0;"/><line style="stroke: #A80036; stroke-width: 1.0; stroke-dasharray: 2.0,2.0;" x1="248.5" x2="598.5" y1="1032.8438" y2="1032.8438"/><text fill="#000000" font-family="sans-serif" font-size="13" lengthAdjust="spacingAndGlyphs" textLength="292" x="260.5" y="1027.7778">объяснить проблему и подсказать повтор</text><polygon fill="#A80036" points="587.5,1042.8438,597.5,1046.8438,587.5,1050.8438,591.5,1046.8438" style="stroke: #A80036; stroke-width: 1.0;"/><line style="stroke: #A80036; stroke-width: 1.0; stroke-dasharray: 2.0,2.0;" x1="243.5" x2="593.5" y1="1046.8438" y2="1046.8438"/><polygon fill="#A80036" points="947.5,1078.9766,957.5,1082.9766,947.5,1086.9766,951.5,1082.9766" style="stroke: #A80036; stroke-width: 1.0;"/><line style="stroke: #A80036; stroke-width: 1.0;" x1="599.5" x2="953.5" y1="1082.9766" y2="1082.9766"/><text fill="#000000" font-family="sans-serif" font-size="13" lengthAdjust="spacingAndGlyphs" textLength="336" x="606.5" y="1077.9106">POST visit(branchId, entryPointId, serviceId, answers)</text><path d="M200,1097.9766 L258,1097.9766 L258,1104.9766 L248,1114.9766 L194,1114.9766 L194,1103.9766 " fill="#EEEEEE" style="stroke: #000000; stroke-width: 1.0;"/><rect fill="none" height="204.6016" rx="6" ry="6" style="stroke: #000000; stroke-width: 2.0;" width="818.5" x="194" y="1097.9766"/><text fill="#000000" font-family="sans-serif" font-size="13" font-weight="bold" lengthAdjust="spacingAndGlyphs" textLength="19" x="209" y="1111.0435">alt</text><text fill="#000000" font-family="sans-serif" font-size="11" font-weight="bold" lengthAdjust="spacingAndGlyphs" textLength="95" x="273" y="1110.187">[визит создан]</text><polygon fill="#A80036" points="610.5,1132.2422,600.5,1136.2422,610.5,1140.2422,606.5,1136.2422" style="stroke: #A80036; stroke-width: 1.0;"/><line style="stroke: #A80036; stroke-width: 1.0; stroke-dasharray: 2.0,2.0;" x1="604.5" x2="958.5" y1="1136.2422" y2="1136.2422"/><text fill="#000000" font-family="sans-serif" font-size="13" lengthAdjust="spacingAndGlyphs" textLength="152" x="616.5" y="1131.1763">ticketId + ticketNumber</text><line style="stroke: #A80036; stroke-width: 1.0;" x1="599.5" x2="641.5" y1="1165.375" y2="1165.375"/><line style="stroke: #A80036; stroke-width: 1.0;" x1="641.5" x2="641.5" y1="1165.375" y2="1178.375"/><line style="stroke: #A80036; stroke-width: 1.0;" x1="600.5" x2="641.5" y1="1178.375" y2="1178.375"/><polygon fill="#A80036" points="610.5,1174.375,600.5,1178.375,610.5,1182.375,606.5,1178.375" style="stroke: #A80036; stroke-width: 1.0;"/><text fill="#000000" font-family="sans-serif" font-size="13" lengthAdjust="spacingAndGlyphs" textLength="247" x="606.5" y="1160.3091">привязка chatId к контексту талона</text><polygon fill="#A80036" points="254.5,1203.5078,244.5,1207.5078,254.5,1211.5078,250.5,1207.5078" style="stroke: #A80036; stroke-width: 1.0;"/><line style="stroke: #A80036; stroke-width: 1.0; stroke-dasharray: 2.0,2.0;" x1="248.5" x2="598.5" y1="1207.5078" y2="1207.5078"/><text fill="#000000" font-family="sans-serif" font-size="13" lengthAdjust="spacingAndGlyphs" textLength="258" x="260.5" y="1202.4419">отправить талон и дальнейшие шаги</text><line style="stroke: #000000; stroke-width: 1.0; stroke-dasharray: 2.0,2.0;" x1="194" x2="1012.5" y1="1216.5078" y2="1216.5078"/><text fill="#000000" font-family="sans-serif" font-size="11" font-weight="bold" lengthAdjust="spacingAndGlyphs" textLength="173" x="199" y="1226.7183">[ошибка создания визита]</text><polygon fill="#A80036" points="610.5,1247.4453,600.5,1251.4453,610.5,1255.4453,606.5,1251.4453" style="stroke: #A80036; stroke-width: 1.0;"/><line style="stroke: #A80036; stroke-width: 1.0; stroke-dasharray: 2.0,2.0;" x1="604.5" x2="958.5" y1="1251.4453" y2="1251.4453"/><text fill="#000000" font-family="sans-serif" font-size="13" lengthAdjust="spacingAndGlyphs" textLength="85" x="616.5" y="1246.3794">error payload</text><polygon fill="#A80036" points="254.5,1276.5781,244.5,1280.5781,254.5,1284.5781,250.5,1280.5781" style="stroke: #A80036; stroke-width: 1.0;"/><line style="stroke: #A80036; stroke-width: 1.0; stroke-dasharray: 2.0,2.0;" x1="248.5" x2="598.5" y1="1280.5781" y2="1280.5781"/><text fill="#000000" font-family="sans-serif" font-size="13" lengthAdjust="spacingAndGlyphs" textLength="305" x="260.5" y="1275.5122">временная ошибка и подсказка перезапуска</text><polygon fill="#A80036" points="587.5,1290.5781,597.5,1294.5781,587.5,1298.5781,591.5,1294.5781" style="stroke: #A80036; stroke-width: 1.0;"/><line style="stroke: #A80036; stroke-width: 1.0; stroke-dasharray: 2.0,2.0;" x1="243.5" x2="593.5" y1="1294.5781" y2="1294.5781"/><path d="M200,1316.5781 L271,1316.5781 L271,1323.5781 L261,1333.5781 L194,1333.5781 L194,1322.5781 " fill="#EEEEEE" style="stroke: #000000; stroke-width: 1.0;"/><rect fill="none" height="117.5313" rx="6" ry="6" style="stroke: #000000; stroke-width: 2.0;" width="951.5" x="194" y="1316.5781"/><text fill="#000000" font-family="sans-serif" font-size="13" font-weight="bold" lengthAdjust="spacingAndGlyphs" textLength="32" x="209" y="1329.645">loop</text><text fill="#000000" font-family="sans-serif" font-size="11" font-weight="bold" lengthAdjust="spacingAndGlyphs" textLength="139" x="286" y="1328.7886">[пока талон активен]</text><polygon fill="#A80036" points="610.5,1350.8438,600.5,1354.8438,610.5,1358.8438,606.5,1354.8438" style="stroke: #A80036; stroke-width: 1.0;"/><line style="stroke: #A80036; stroke-width: 1.0;" x1="604.5" x2="1073" y1="1354.8438" y2="1354.8438"/><text fill="#000000" font-family="sans-serif" font-size="13" lengthAdjust="spacingAndGlyphs" textLength="168" x="616.5" y="1349.7778">VISIT_CALL / VISIT_RECALL</text><line style="stroke: #A80036; stroke-width: 1.0;" x1="599.5" x2="641.5" y1="1383.9766" y2="1383.9766"/><line style="stroke: #A80036; stroke-width: 1.0;" x1="641.5" x2="641.5" y1="1383.9766" y2="1396.9766"/><line style="stroke: #A80036; stroke-width: 1.0;" x1="600.5" x2="641.5" y1="1396.9766" y2="1396.9766"/><polygon fill="#A80036" points="610.5,1392.9766,600.5,1396.9766,610.5,1400.9766,606.5,1396.9766" style="stroke: #A80036; stroke-width: 1.0;"/><text fill="#000000" font-family="sans-serif" font-size="13" lengthAdjust="spacingAndGlyphs" textLength="303" x="606.5" y="1378.9106">проверка префикса талона и привязки чата</text><polygon fill="#A80036" points="254.5,1422.1094,244.5,1426.1094,254.5,1430.1094,250.5,1426.1094" style="stroke: #A80036; stroke-width: 1.0;"/><line style="stroke: #A80036; stroke-width: 1.0; stroke-dasharray: 2.0,2.0;" x1="248.5" x2="598.5" y1="1426.1094" y2="1426.1094"/><text fill="#000000" font-family="sans-serif" font-size="13" lengthAdjust="spacingAndGlyphs" textLength="332" x="260.5" y="1421.0435">уведомить клиента о вызове/повторном вызове</text><!--MD5=[6f32b43948baabb20088d133082c812d]
@startuml
skinparam backgroundColor #FFFFFF
skinparam shadowing false
skinparam roundcorner 12
title Детальный клиентский путь: от /start до уведомления о вызове

actor Клиент
participant Telegram
participant "Бот" as Bot
participant "Queue API" as Queue
participant "Events\n(CometD/Kafka)" as Events

Клиент -> Telegram: /start
Telegram -> Bot: update(/start)
Bot -> Bot: загрузка конфигурации филиалов

Bot - -> Telegram: приветствие + начало опроса

group Опрос клиента перед оформлением визита
  Bot - -> Telegram: вопрос: формат обслуживания\n(онлайн/офлайн/первичный/повторный)
  Клиент -> Telegram: выбор формата
  Telegram -> Bot: callback(format)

  Bot - -> Telegram: вопрос: желаемая дата и интервал времени
  Клиент -> Telegram: выбрать дату/интервал
  Telegram -> Bot: callback(dateSlot)

  Bot - -> Telegram: вопрос: подтверждение контакта\n(телефон/комментарий)
  Клиент -> Telegram: подтверждение/ввод
  Telegram -> Bot: message/contact

  Bot -> Bot: валидация ответов опросника
end

alt настроен один филиал
  Bot -> Bot: выбор филиала по умолчанию
else настроено несколько филиалов
  Bot - -> Telegram: показать клавиатуру филиалов
  Клиент -> Telegram: выбрать филиал
  Telegram -> Bot: callback(branchId)
end

Bot -> Queue: GET services(branchId)
alt услуги доступны
  Queue - -> Bot: services[]
  Bot - -> Telegram: показать клавиатуру услуг
  Клиент -> Telegram: выбрать услугу
  Telegram -> Bot: callback(serviceId)
else услуги недоступны / таймаут
  Queue - -> Bot: 4xx/5xx/timeout
  Bot - -> Telegram: объяснить проблему и подсказать повтор
  return
end

Bot -> Queue: POST visit(branchId, entryPointId, serviceId, answers)
alt визит создан
  Queue - -> Bot: ticketId + ticketNumber
  Bot -> Bot: привязка chatId к контексту талона
  Bot - -> Telegram: отправить талон и дальнейшие шаги
else ошибка создания визита
  Queue - -> Bot: error payload
  Bot - -> Telegram: временная ошибка и подсказка перезапуска
  return
end

loop пока талон активен
  Events -> Bot: VISIT_CALL / VISIT_RECALL
  Bot -> Bot: проверка префикса талона и привязки чата
  Bot - -> Telegram: уведомить клиента о вызове/повторном вызове
end
@enduml

PlantUML version 1.2020.02(Sun Mar 01 10:22:07 UTC 2020)
(GPL source distribution)
Java Runtime: OpenJDK Runtime Environment
JVM: OpenJDK 64-Bit Server VM
Java Version: 21.0.2+13-58
Operating System: Linux
Default Encoding: UTF-8
Language: en
Country: null
--></g></svg>