<?xml version="1.0" encoding="UTF-8" standalone="no"?><svg xmlns="http://www.w3.org/2000/svg" xmlns:xlink="http://www.w3.org/1999/xlink" contentScriptType="application/ecmascript" contentStyleType="text/css" height="932px" preserveAspectRatio="none" style="width:614px;height:932px;" version="1.1" viewBox="0 0 614 932" width="614px" zoomAndPan="magnify"><defs/><g><text fill="#000000" font-family="sans-serif" font-size="18" lengthAdjust="spacingAndGlyphs" textLength="362" x="130" y="16.708">Диалоговое состояние Telegram-бота</text><ellipse cx="403.5" cy="38.9531" fill="#000000" rx="10" ry="10" style="stroke: none; stroke-width: 1.0;"/><rect fill="#FEFECE" height="50" rx="12.5" ry="12.5" style="stroke: #A80036; stroke-width: 1.5;" width="119" x="240" y="236.9531"/><line style="stroke: #A80036; stroke-width: 1.5;" x1="240" x2="359" y1="263.25" y2="263.25"/><text fill="#000000" font-family="sans-serif" font-size="14" lengthAdjust="spacingAndGlyphs" textLength="99" x="250" y="254.9482">WaitingBranch</text><rect fill="#FEFECE" height="50" rx="12.5" ry="12.5" style="stroke: #A80036; stroke-width: 1.5;" width="120" x="241.5" y="363.9531"/><line style="stroke: #A80036; stroke-width: 1.5;" x1="241.5" x2="361.5" y1="390.25" y2="390.25"/><text fill="#000000" font-family="sans-serif" font-size="14" lengthAdjust="spacingAndGlyphs" textLength="100" x="251.5" y="381.9482">WaitingService</text><rect fill="#FEFECE" height="50" rx="12.5" ry="12.5" style="stroke: #A80036; stroke-width: 1.5;" width="106" x="248.5" y="490.9531"/><line style="stroke: #A80036; stroke-width: 1.5;" x1="248.5" x2="354.5" y1="517.25" y2="517.25"/><text fill="#000000" font-family="sans-serif" font-size="14" lengthAdjust="spacingAndGlyphs" textLength="86" x="258.5" y="508.9482">CreatingVisit</text><rect fill="#FEFECE" height="50" rx="12.5" ry="12.5" style="stroke: #A80036; stroke-width: 1.5;" width="108" x="239.5" y="617.9531"/><line style="stroke: #A80036; stroke-width: 1.5;" x1="239.5" x2="347.5" y1="644.25" y2="644.25"/><text fill="#000000" font-family="sans-serif" font-size="14" lengthAdjust="spacingAndGlyphs" textLength="88" x="249.5" y="635.9482">TicketBound</text><rect fill="#FEFECE" height="50" rx="12.5" ry="12.5" style="stroke: #A80036; stroke-width: 1.5;" width="89" x="6" y="617.9531"/><line style="stroke: #A80036; stroke-width: 1.5;" x1="6" x2="95" y1="644.25" y2="644.25"/><text fill="#000000" font-family="sans-serif" font-size="14" lengthAdjust="spacingAndGlyphs" textLength="69" x="16" y="635.9482">ErrorState</text><rect fill="#FEFECE" height="50" rx="12.5" ry="12.5" style="stroke: #A80036; stroke-width: 1.5;" width="133" x="348" y="744.9531"/><line style="stroke: #A80036; stroke-width: 1.5;" x1="348" x2="481" y1="771.25" y2="771.25"/><text fill="#000000" font-family="sans-serif" font-size="14" lengthAdjust="spacingAndGlyphs" textLength="113" x="358" y="762.9482">WaitingCallEvent</text><rect fill="#FEFECE" height="50" rx="12.5" ry="12.5" style="stroke: #A80036; stroke-width: 1.5;" width="72" x="378.5" y="871.9531"/><line style="stroke: #A80036; stroke-width: 1.5;" x1="378.5" x2="450.5" y1="898.25" y2="898.25"/><text fill="#000000" font-family="sans-serif" font-size="14" lengthAdjust="spacingAndGlyphs" textLength="52" x="388.5" y="889.9482">Notified</text><rect fill="#FEFECE" height="50" rx="12.5" ry="12.5" style="stroke: #A80036; stroke-width: 1.5;" width="50" x="378.5" y="109.9531"/><line style="stroke: #A80036; stroke-width: 1.5;" x1="378.5" x2="428.5" y1="136.25" y2="136.25"/><text fill="#000000" font-family="sans-serif" font-size="14" lengthAdjust="spacingAndGlyphs" textLength="24" x="391.5" y="127.9482">Idle</text><!--MD5=[38f1f8b7f214ff6bc6d4b705f682283d]
link *start to Idle--><path d="M403.5,48.9631 C403.5,61.6531 403.5,85.3631 403.5,104.5231 " fill="none" id="*start-&gt;Idle" style="stroke: #A80036; stroke-width: 1.0;"/><polygon fill="#A80036" points="403.5,109.7931,407.5,100.7931,403.5,104.7931,399.5,100.7931,403.5,109.7931" style="stroke: #A80036; stroke-width: 1.0;"/><!--MD5=[d231d36c73810c9c3ae3c02a5ada75ff]
link Idle to WaitingBranch--><path d="M378.35,139.8931 C351.1,145.6531 308.94,159.2331 289.5,189.9531 C281.67,202.3231 283.15,218.3031 287.02,231.9731 " fill="none" id="Idle-&gt;WaitingBranch" style="stroke: #A80036; stroke-width: 1.0;"/><polygon fill="#A80036" points="288.55,236.8931,289.6935,227.1109,287.0635,232.1192,282.0552,229.4893,288.55,236.8931" style="stroke: #A80036; stroke-width: 1.0;"/><text fill="#000000" font-family="sans-serif" font-size="13" lengthAdjust="spacingAndGlyphs" textLength="34" x="290.5" y="203.02">/start</text><!--MD5=[73b3411f927fc23c7ebca3d7076430ac]
link WaitingBranch to Idle--><path d="M319.49,236.9231 C336.81,216.1131 361.88,185.9731 380.12,164.0531 " fill="none" id="WaitingBranch-&gt;Idle" style="stroke: #A80036; stroke-width: 1.0;"/><polygon fill="#A80036" points="383.45,160.0531,374.6346,164.4451,380.266,163.9082,380.8028,169.5396,383.45,160.0531" style="stroke: #A80036; stroke-width: 1.0;"/><text fill="#000000" font-family="sans-serif" font-size="13" lengthAdjust="spacingAndGlyphs" textLength="45" x="359.5" y="203.02">/cancel</text><!--MD5=[1e08ec40bbbf7bc494c31f2817fc8439]
link WaitingBranch to WaitingService--><path d="M299.89,287.0531 C300.21,307.5431 300.69,337.0331 301.03,358.8331 " fill="none" id="WaitingBranch-&gt;WaitingService" style="stroke: #A80036; stroke-width: 1.0;"/><polygon fill="#A80036" points="301.12,363.9231,304.991,354.8669,301.0486,358.9236,296.9918,354.9812,301.12,363.9231" style="stroke: #A80036; stroke-width: 1.0;"/><text fill="#000000" font-family="sans-serif" font-size="13" lengthAdjust="spacingAndGlyphs" textLength="105" x="302.5" y="330.02">выбран филиал</text><!--MD5=[c0ea7a4e4a920becfff56d0731558b08]
link WaitingService to CreatingVisit--><path d="M301.5,414.0531 C301.5,434.5431 301.5,464.0331 301.5,485.8331 " fill="none" id="WaitingService-&gt;CreatingVisit" style="stroke: #A80036; stroke-width: 1.0;"/><polygon fill="#A80036" points="301.5,490.9231,305.5,481.9231,301.5,485.9231,297.5,481.9231,301.5,490.9231" style="stroke: #A80036; stroke-width: 1.0;"/><text fill="#000000" font-family="sans-serif" font-size="13" lengthAdjust="spacingAndGlyphs" textLength="106" x="302.5" y="457.02">выбрана услуга</text><!--MD5=[48f56c35187dcf350596c8d7961002d2]
link CreatingVisit to TicketBound--><path d="M299.96,541.0531 C298.65,561.5431 296.76,591.0331 295.36,612.8331 " fill="none" id="CreatingVisit-&gt;TicketBound" style="stroke: #A80036; stroke-width: 1.0;"/><polygon fill="#A80036" points="295.04,617.9231,299.5983,609.1926,295.3546,612.933,291.6141,608.6893,295.04,617.9231" style="stroke: #A80036; stroke-width: 1.0;"/><text fill="#000000" font-family="sans-serif" font-size="13" lengthAdjust="spacingAndGlyphs" textLength="216" x="299.5" y="584.02">визит создан и талон привязан</text><!--MD5=[2a1849b66a15a2310bc45139580bcf05]
link CreatingVisit to ErrorState--><path d="M248.09,522.5731 C206.63,528.9931 149.21,542.5631 106.5,570.9531 C90.27,581.7431 76.61,598.7631 66.84,613.4431 " fill="none" id="CreatingVisit-&gt;ErrorState" style="stroke: #A80036; stroke-width: 1.0;"/><polygon fill="#A80036" points="63.94,617.9031,72.2057,612.548,66.6705,613.7145,65.5039,608.1792,63.94,617.9031" style="stroke: #A80036; stroke-width: 1.0;"/><text fill="#000000" font-family="sans-serif" font-size="13" lengthAdjust="spacingAndGlyphs" textLength="181" x="107.5" y="584.02">ошибка/таймаут queue API</text><!--MD5=[0fcdbac6b52a4397d1dac1a4d153a5c2]
link TicketBound to WaitingCallEvent--><path d="M281.8,668.1631 C276.53,682.8331 273.32,701.2831 282.5,714.9531 C296.35,735.5831 319.63,748.3431 342.81,756.2231 " fill="none" id="TicketBound-&gt;WaitingCallEvent" style="stroke: #A80036; stroke-width: 1.0;"/><polygon fill="#A80036" points="347.76,757.8331,340.4388,751.2452,343.0053,756.2864,337.9641,758.8528,347.76,757.8331" style="stroke: #A80036; stroke-width: 1.0;"/><text fill="#000000" font-family="sans-serif" font-size="13" lengthAdjust="spacingAndGlyphs" textLength="234" x="283.5" y="711.02">ожидание VISIT_CALL/VISIT_RECALL</text><!--MD5=[8d483b7eb336a4de66b1510fccc1a5b3]
link WaitingCallEvent to Notified--><path d="M353.52,795.0631 C333.16,807.0131 318.01,822.9731 328.5,841.9531 C338.25,859.5831 356.42,872.2331 373.57,880.8331 " fill="none" id="WaitingCallEvent-&gt;Notified" style="stroke: #A80036; stroke-width: 1.0;"/><polygon fill="#A80036" points="378.36,883.1531,372.012,875.623,373.8625,880.9686,368.5168,882.819,378.36,883.1531" style="stroke: #A80036; stroke-width: 1.0;"/><text fill="#000000" font-family="sans-serif" font-size="13" lengthAdjust="spacingAndGlyphs" textLength="125" x="329.5" y="838.02">событие получено</text><!--MD5=[539a4e93e4e494b9eae6eabb42805899]
link Notified to WaitingCallEvent--><path d="M443.56,871.7231 C455.63,858.6031 465.56,841.6931 459.5,824.9531 C456.13,815.6631 450.39,806.8431 444.12,799.1231 " fill="none" id="Notified-&gt;WaitingCallEvent" style="stroke: #A80036; stroke-width: 1.0;"/><polygon fill="#A80036" points="440.59,794.9631,443.3341,804.422,443.8133,798.7855,449.4498,799.2647,440.59,794.9631" style="stroke: #A80036; stroke-width: 1.0;"/><text fill="#000000" font-family="sans-serif" font-size="13" lengthAdjust="spacingAndGlyphs" textLength="141" x="461.5" y="838.02">следующее событие</text><!--MD5=[8a507275feba2976440decbfaaa313c4]
link ErrorState to WaitingBranch--><path d="M59.92,617.6331 C65.5,603.7731 72.94,586.1731 80.5,570.9531 C109.45,512.6331 116.73,497.6731 153.5,443.9531 C192.29,387.2831 243.98,326.0231 274.31,291.2831 " fill="none" id="ErrorState-&gt;WaitingBranch" style="stroke: #A80036; stroke-width: 1.0;"/><polygon fill="#A80036" points="277.9,287.1731,268.9721,291.3315,274.6156,290.9431,275.004,296.5866,277.9,287.1731" style="stroke: #A80036; stroke-width: 1.0;"/><text fill="#000000" font-family="sans-serif" font-size="13" lengthAdjust="spacingAndGlyphs" textLength="138" x="154.5" y="457.02">перезапуск диалога</text><!--MD5=[561850f58daa85d600877903545cb3fd]
link WaitingService to Idle--><path d="M361.67,374.0431 C382.71,365.9831 404.14,353.4131 416.5,333.9531 C449.51,281.9831 430.09,206.0631 415.36,164.9731 " fill="none" id="WaitingService-&gt;Idle" style="stroke: #A80036; stroke-width: 1.0;"/><polygon fill="#A80036" points="413.59,160.1331,412.9257,169.9596,415.3079,164.8287,420.4387,167.2109,413.59,160.1331" style="stroke: #A80036; stroke-width: 1.0;"/><text fill="#000000" font-family="sans-serif" font-size="13" lengthAdjust="spacingAndGlyphs" textLength="45" x="435.5" y="266.52">/cancel</text><!--MD5=[037ef2d2123a6623f4fc7b2e03355260]
link WaitingCallEvent to Idle--><path d="M481.22,746.0431 C496.48,738.1831 511.44,727.9831 522.5,714.9531 C543.88,689.7631 544.5,676.9931 544.5,643.9531 C544.5,260.9531 544.5,260.9531 544.5,260.9531 C544.5,202.0531 474.74,164.1631 433.36,146.8731 " fill="none" id="WaitingCallEvent-&gt;Idle" style="stroke: #A80036; stroke-width: 1.0;"/><polygon fill="#A80036" points="428.71,144.9731,435.5168,152.0912,433.3355,146.8718,438.5548,144.6905,428.71,144.9731" style="stroke: #A80036; stroke-width: 1.0;"/><text fill="#000000" font-family="sans-serif" font-size="13" lengthAdjust="spacingAndGlyphs" textLength="32" x="545.5" y="457.02">/stop</text><!--MD5=[393851c391f0ee7c472b900fa6c2c72f]
@startuml
skinparam backgroundColor #FFFFFF
skinparam shadowing false
skinparam roundcorner 12
title Диалоговое состояние Telegram-бота

[*] - -> Idle

state Idle {
}

Idle - -> WaitingBranch : /start
WaitingBranch - -> WaitingService : выбран филиал
WaitingService - -> CreatingVisit : выбрана услуга
CreatingVisit - -> TicketBound : визит создан и талон привязан
CreatingVisit - -> ErrorState : ошибка/таймаут queue API

TicketBound - -> WaitingCallEvent : ожидание VISIT_CALL/VISIT_RECALL
WaitingCallEvent - -> Notified : событие получено
Notified - -> WaitingCallEvent : следующее событие

ErrorState - -> WaitingBranch : перезапуск диалога
WaitingBranch - -> Idle : /cancel
WaitingService - -> Idle : /cancel
WaitingCallEvent - -> Idle : /stop
@enduml

PlantUML version 1.2020.02(Sun Mar 01 10:22:07 UTC 2020)
(GPL source distribution)
Java Runtime: OpenJDK Runtime Environment
JVM: OpenJDK 64-Bit Server VM
Java Version: 21.0.2+13-58
Operating System: Linux
Default Encoding: UTF-8
Language: en
Country: null
--></g></svg>