<?xml version="1.0" encoding="UTF-8" standalone="no"?><svg xmlns="http://www.w3.org/2000/svg" xmlns:xlink="http://www.w3.org/1999/xlink" contentScriptType="application/ecmascript" contentStyleType="text/css" height="932px" preserveAspectRatio="none" style="width:615px;height:932px;" version="1.1" viewBox="0 0 615 932" width="615px" zoomAndPan="magnify"><defs/><g><text fill="#000000" font-family="sans-serif" font-size="18" lengthAdjust="spacingAndGlyphs" textLength="354" x="134" y="16.708">Диаграмма состояний Telegram-бота</text><ellipse cx="399" cy="38.9531" fill="#000000" rx="10" ry="10" style="stroke: none; stroke-width: 1.0;"/><rect fill="#FEFECE" height="50" rx="12.5" ry="12.5" style="stroke: #A80036; stroke-width: 1.5;" width="163" x="201.5" y="236.9531"/><line style="stroke: #A80036; stroke-width: 1.5;" x1="201.5" x2="364.5" y1="263.25" y2="263.25"/><text fill="#000000" font-family="sans-serif" font-size="14" lengthAdjust="spacingAndGlyphs" textLength="143" x="211.5" y="254.9482">ОжиданиеФилиала</text><rect fill="#FEFECE" height="50" rx="12.5" ry="12.5" style="stroke: #A80036; stroke-width: 1.5;" width="146" x="223" y="363.9531"/><line style="stroke: #A80036; stroke-width: 1.5;" x1="223" x2="369" y1="390.25" y2="390.25"/><text fill="#000000" font-family="sans-serif" font-size="14" lengthAdjust="spacingAndGlyphs" textLength="126" x="233" y="381.9482">ОжиданиеУслуги</text><rect fill="#FEFECE" height="50" rx="12.5" ry="12.5" style="stroke: #A80036; stroke-width: 1.5;" width="145" x="223.5" y="490.9531"/><line style="stroke: #A80036; stroke-width: 1.5;" x1="223.5" x2="368.5" y1="517.25" y2="517.25"/><text fill="#000000" font-family="sans-serif" font-size="14" lengthAdjust="spacingAndGlyphs" textLength="125" x="233.5" y="508.9482">СозданиеВизита</text><rect fill="#FEFECE" height="50" rx="12.5" ry="12.5" style="stroke: #A80036; stroke-width: 1.5;" width="133" x="225.5" y="617.9531"/><line style="stroke: #A80036; stroke-width: 1.5;" x1="225.5" x2="358.5" y1="644.25" y2="644.25"/><text fill="#000000" font-family="sans-serif" font-size="14" lengthAdjust="spacingAndGlyphs" textLength="113" x="235.5" y="635.9482">ТалонПривязан</text><rect fill="#FEFECE" height="50" rx="12.5" ry="12.5" style="stroke: #A80036; stroke-width: 1.5;" width="78" x="6" y="617.9531"/><line style="stroke: #A80036; stroke-width: 1.5;" x1="6" x2="84" y1="644.25" y2="644.25"/><text fill="#000000" font-family="sans-serif" font-size="14" lengthAdjust="spacingAndGlyphs" textLength="58" x="16" y="635.9482">Ошибка</text><rect fill="#FEFECE" height="50" rx="12.5" ry="12.5" style="stroke: #A80036; stroke-width: 1.5;" width="217" x="306.5" y="744.9531"/><line style="stroke: #A80036; stroke-width: 1.5;" x1="306.5" x2="523.5" y1="771.25" y2="771.25"/><text fill="#000000" font-family="sans-serif" font-size="14" lengthAdjust="spacingAndGlyphs" textLength="197" x="316.5" y="762.9482">ОжиданиеСобытияВызова</text><rect fill="#FEFECE" height="50" rx="12.5" ry="12.5" style="stroke: #A80036; stroke-width: 1.5;" width="101" x="364.5" y="871.9531"/><line style="stroke: #A80036; stroke-width: 1.5;" x1="364.5" x2="465.5" y1="898.25" y2="898.25"/><text fill="#000000" font-family="sans-serif" font-size="14" lengthAdjust="spacingAndGlyphs" textLength="81" x="374.5" y="889.9482">Уведомлен</text><rect fill="#FEFECE" height="50" rx="12.5" ry="12.5" style="stroke: #A80036; stroke-width: 1.5;" width="98" x="350" y="109.9531"/><line style="stroke: #A80036; stroke-width: 1.5;" x1="350" x2="448" y1="136.25" y2="136.25"/><text fill="#000000" font-family="sans-serif" font-size="14" lengthAdjust="spacingAndGlyphs" textLength="78" x="360" y="127.9482">Ожидание</text><!--MD5=[67a2705fc3a3b89883b01a42af58fecf]
link *start to Ожидание--><path d="M399,48.9631 C399,61.6531 399,85.3631 399,104.5231 " fill="none" id="*start-&gt;Ожидание" style="stroke: #A80036; stroke-width: 1.0;"/><polygon fill="#A80036" points="399,109.7931,403,100.7931,399,104.7931,395,100.7931,399,109.7931" style="stroke: #A80036; stroke-width: 1.0;"/><!--MD5=[fc0144fffd29dbd83c4605712d60da78]
link Ожидание to ОжиданиеФилиала--><path d="M350,146.4631 C326.18,154.2631 299.6,167.5831 285,189.9531 C277.15,201.9831 276.03,217.7731 277.14,231.4131 " fill="none" id="Ожидание-&gt;ОжиданиеФилиала" style="stroke: #A80036; stroke-width: 1.0;"/><polygon fill="#A80036" points="277.69,236.7131,280.716,227.3407,277.1614,231.7411,272.7609,228.1865,277.69,236.7131" style="stroke: #A80036; stroke-width: 1.0;"/><text fill="#000000" font-family="sans-serif" font-size="13" lengthAdjust="spacingAndGlyphs" textLength="34" x="286" y="203.02">/start</text><!--MD5=[5e11584a80b830a3b8c01afff88694cd]
link ОжиданиеФилиала to Ожидание--><path d="M305.3,236.9231 C324.69,216.0231 352.81,185.7231 373.18,163.7731 " fill="none" id="ОжиданиеФилиала-&gt;Ожидание" style="stroke: #A80036; stroke-width: 1.0;"/><polygon fill="#A80036" points="376.63,160.0531,367.58,163.9386,373.2327,163.7217,373.4496,169.3744,376.63,160.0531" style="stroke: #A80036; stroke-width: 1.0;"/><text fill="#000000" font-family="sans-serif" font-size="13" lengthAdjust="spacingAndGlyphs" textLength="45" x="349" y="203.02">/cancel</text><!--MD5=[c0fdf7931c9a5782ce5b2d1d8eeb39df]
link ОжиданиеФилиала to ОжиданиеУслуги--><path d="M285.51,287.0531 C287.64,307.5431 290.7,337.0331 292.97,358.8331 " fill="none" id="ОжиданиеФилиала-&gt;ОжиданиеУслуги" style="stroke: #A80036; stroke-width: 1.0;"/><polygon fill="#A80036" points="293.5,363.9231,296.5527,354.5593,292.9855,358.9497,288.5951,355.3825,293.5,363.9231" style="stroke: #A80036; stroke-width: 1.0;"/><text fill="#000000" font-family="sans-serif" font-size="13" lengthAdjust="spacingAndGlyphs" textLength="105" x="292" y="330.02">выбран филиал</text><!--MD5=[3cc04da6f7b24703b11983cfbd1c0839]
link ОжиданиеУслуги to СозданиеВизита--><path d="M296,414.0531 C296,434.5431 296,464.0331 296,485.8331 " fill="none" id="ОжиданиеУслуги-&gt;СозданиеВизита" style="stroke: #A80036; stroke-width: 1.0;"/><polygon fill="#A80036" points="296,490.9231,300,481.9231,296,485.9231,292,481.9231,296,490.9231" style="stroke: #A80036; stroke-width: 1.0;"/><text fill="#000000" font-family="sans-serif" font-size="13" lengthAdjust="spacingAndGlyphs" textLength="106" x="297" y="457.02">выбрана услуга</text><!--MD5=[a997d25be1a73b465b22a37a21374430]
link СозданиеВизита to ТалонПривязан--><path d="M295.23,541.0531 C294.57,561.5431 293.63,591.0331 292.93,612.8331 " fill="none" id="СозданиеВизита-&gt;ТалонПривязан" style="stroke: #A80036; stroke-width: 1.0;"/><polygon fill="#A80036" points="292.77,617.9231,297.0507,609.0532,292.9271,612.9256,289.0547,608.8019,292.77,617.9231" style="stroke: #A80036; stroke-width: 1.0;"/><text fill="#000000" font-family="sans-serif" font-size="13" lengthAdjust="spacingAndGlyphs" textLength="216" x="296" y="584.02">визит создан и талон привязан</text><!--MD5=[986b25bbbc7e1daf2c7ba0bd14a88ddf]
link СозданиеВизита to Ошибка--><path d="M223.33,525.9031 C184.54,533.3131 137.42,546.7431 101,570.9531 C84.77,581.7431 71.11,598.7631 61.34,613.4431 " fill="none" id="СозданиеВизита-&gt;Ошибка" style="stroke: #A80036; stroke-width: 1.0;"/><polygon fill="#A80036" points="58.44,617.9031,66.7057,612.548,61.1705,613.7145,60.0039,608.1792,58.44,617.9031" style="stroke: #A80036; stroke-width: 1.0;"/><text fill="#000000" font-family="sans-serif" font-size="13" lengthAdjust="spacingAndGlyphs" textLength="183" x="102" y="584.02">ошибка/таймаут Queue API</text><!--MD5=[afbdd2f2963a04008b51ff8433163b26]
link ТалонПривязан to ОжиданиеСобытияВызова--><path d="M281.28,668.2031 C276.54,682.8831 273.86,701.3331 283,714.9531 C290.62,726.3031 301.1,735.2731 312.84,742.3531 " fill="none" id="ТалонПривязан-&gt;ОжиданиеСобытияВызова" style="stroke: #A80036; stroke-width: 1.0;"/><polygon fill="#A80036" points="317.22,744.8831,311.4157,736.9264,312.8867,742.3886,307.4245,743.8597,317.22,744.8831" style="stroke: #A80036; stroke-width: 1.0;"/><text fill="#000000" font-family="sans-serif" font-size="13" lengthAdjust="spacingAndGlyphs" textLength="234" x="284" y="711.02">ожидание VISIT_CALL/VISIT_RECALL</text><!--MD5=[7c5cf7f2c12599e353441d1df269d10f]
link ОжиданиеСобытияВызова to Уведомлен--><path d="M358.18,795.2231 C346.51,802.9531 335.74,812.7631 329,824.9531 C317.54,845.6831 336.67,862.8131 359.78,875.0531 " fill="none" id="ОжиданиеСобытияВызова-&gt;Уведомлен" style="stroke: #A80036; stroke-width: 1.0;"/><polygon fill="#A80036" points="364.45,877.4331,358.2474,869.7827,359.9951,875.1629,354.615,876.9105,364.45,877.4331" style="stroke: #A80036; stroke-width: 1.0;"/><text fill="#000000" font-family="sans-serif" font-size="13" lengthAdjust="spacingAndGlyphs" textLength="125" x="330" y="838.02">событие получено</text><!--MD5=[e70bf8b26c4f39c84940de02000cf3fc]
link Уведомлен to ОжиданиеСобытияВызова--><path d="M444.06,871.7231 C456.13,858.6031 466.06,841.6931 460,824.9531 C456.63,815.6631 450.89,806.8431 444.62,799.1231 " fill="none" id="Уведомлен-&gt;ОжиданиеСобытияВызова" style="stroke: #A80036; stroke-width: 1.0;"/><polygon fill="#A80036" points="441.09,794.9631,443.8341,804.422,444.3133,798.7855,449.9498,799.2647,441.09,794.9631" style="stroke: #A80036; stroke-width: 1.0;"/><text fill="#000000" font-family="sans-serif" font-size="13" lengthAdjust="spacingAndGlyphs" textLength="141" x="462" y="838.02">следующее событие</text><!--MD5=[fb2e9962546e9d66f68470e974823d95]
link Ошибка to ОжиданиеФилиала--><path d="M54.42,617.6331 C60,603.7731 67.44,586.1731 75,570.9531 C123.3,473.6431 140.27,451.2031 205,363.9531 C223.36,339.2031 244.8,311.5331 260.55,291.4131 " fill="none" id="Ошибка-&gt;ОжиданиеФилиала" style="stroke: #A80036; stroke-width: 1.0;"/><polygon fill="#A80036" points="263.82,287.2431,255.1255,291.8697,260.7404,291.1822,261.4279,296.7971,263.82,287.2431" style="stroke: #A80036; stroke-width: 1.0;"/><text fill="#000000" font-family="sans-serif" font-size="13" lengthAdjust="spacingAndGlyphs" textLength="138" x="148" y="457.02">перезапуск диалога</text><!--MD5=[2d0bccd4f99deb7436e12856daba172f]
link ОжиданиеУслуги to Ожидание--><path d="M369.14,366.2131 C383.76,358.4131 397.28,347.9431 406,333.9531 C438.51,281.7731 422.21,205.9431 409.41,164.9131 " fill="none" id="ОжиданиеУслуги-&gt;Ожидание" style="stroke: #A80036; stroke-width: 1.0;"/><polygon fill="#A80036" points="407.87,160.0931,406.7883,169.8824,409.3866,164.8576,414.4114,167.4558,407.87,160.0931" style="stroke: #A80036; stroke-width: 1.0;"/><text fill="#000000" font-family="sans-serif" font-size="13" lengthAdjust="spacingAndGlyphs" textLength="45" x="427" y="266.52">/cancel</text><!--MD5=[368d6dea5bb4f774783130f6d5bb157e]
link ОжиданиеСобытияВызова to Ожидание--><path d="M483.96,744.8731 C498.44,737.1731 512.49,727.3431 523,714.9531 C544.38,689.7631 545,676.9931 545,643.9531 C545,260.9531 545,260.9531 545,260.9531 C545,210.6731 494.41,176.2731 452.79,156.4831 " fill="none" id="ОжиданиеСобытияВызова-&gt;Ожидание" style="stroke: #A80036; stroke-width: 1.0;"/><polygon fill="#A80036" points="448.02,154.2531,454.4828,161.6849,452.5506,156.3683,457.8672,154.4361,448.02,154.2531" style="stroke: #A80036; stroke-width: 1.0;"/><text fill="#000000" font-family="sans-serif" font-size="13" lengthAdjust="spacingAndGlyphs" textLength="32" x="546" y="457.02">/stop</text><!--MD5=[c47b21edd42bd0b4c4006b0fe8dde6a2]
@startuml
skinparam backgroundColor #FFFFFF
skinparam shadowing false
skinparam roundcorner 12
title Диаграмма состояний Telegram-бота

[*] - -> Ожидание

state Ожидание {
}

Ожидание - -> ОжиданиеФилиала : /start
ОжиданиеФилиала - -> ОжиданиеУслуги : выбран филиал
ОжиданиеУслуги - -> СозданиеВизита : выбрана услуга
СозданиеВизита - -> ТалонПривязан : визит создан и талон привязан
СозданиеВизита - -> Ошибка : ошибка/таймаут Queue API

ТалонПривязан - -> ОжиданиеСобытияВызова : ожидание VISIT_CALL/VISIT_RECALL
ОжиданиеСобытияВызова - -> Уведомлен : событие получено
Уведомлен - -> ОжиданиеСобытияВызова : следующее событие

Ошибка - -> ОжиданиеФилиала : перезапуск диалога
ОжиданиеФилиала - -> Ожидание : /cancel
ОжиданиеУслуги - -> Ожидание : /cancel
ОжиданиеСобытияВызова - -> Ожидание : /stop
@enduml

PlantUML version 1.2020.02(Sun Mar 01 10:22:07 UTC 2020)
(GPL source distribution)
Java Runtime: OpenJDK Runtime Environment
JVM: OpenJDK 64-Bit Server VM
Java Version: 21.0.2+13-58
Operating System: Linux
Default Encoding: UTF-8
Language: en
Country: null
--></g></svg>