<svg xmlns="http://www.w3.org/2000/svg" xmlns:xlink="http://www.w3.org/1999/xlink" contentStyleType="text/css" data-diagram-type="STATE" height="1077px" preserveAspectRatio="none" style="width:626px;height:1077px;background:#FFFFFF;" version="1.1" viewBox="0 0 626 1077" width="626px" zoomAndPan="magnify"><?plantuml 1.2026.3?><defs/><g><g class="title" data-source-line="4"><text fill="#000000" font-family="sans-serif" font-size="14" font-weight="700" lengthAdjust="spacing" textLength="299.8857" x="159.7344" y="22.9951">&#1044;&#1080;&#1072;&#1075;&#1088;&#1072;&#1084;&#1084;&#1072; &#1089;&#1086;&#1089;&#1090;&#1086;&#1103;&#1085;&#1080;&#1081; Telegram-&#1073;&#1086;&#1090;&#1072;</text></g><g class="entity" data-qualified-name="........" id="ent0002"><rect fill="#F1F1F1" height="50" rx="6" ry="6" style="stroke:#181818;stroke-width:0.5;" width="97.8545" x="215.5" y="124.2969"/><line style="stroke:#181818;stroke-width:0.5;" x1="215.5" x2="313.3545" y1="150.5938" y2="150.5938"/><text fill="#000000" font-family="sans-serif" font-size="14" lengthAdjust="spacing" textLength="77.8545" x="225.5" y="142.292">&#1054;&#1078;&#1080;&#1076;&#1072;&#1085;&#1080;&#1077;</text></g><g class="start_entity" data-qualified-name=".start." data-source-line="6" id="ent0002"><ellipse cx="264.5" cy="53.2969" fill="#222222" rx="10" ry="10" style="stroke:#222222;stroke-width:1;"/></g><g class="entity" data-qualified-name="..............." id="ent0004"><rect fill="#F1F1F1" height="50" rx="6" ry="6" style="stroke:#181818;stroke-width:0.5;" width="163.1582" x="31" y="251.2969"/><line style="stroke:#181818;stroke-width:0.5;" x1="31" x2="194.1582" y1="277.5938" y2="277.5938"/><text fill="#000000" font-family="sans-serif" font-size="14" lengthAdjust="spacing" textLength="143.1582" x="41" y="269.292">&#1054;&#1078;&#1080;&#1076;&#1072;&#1085;&#1080;&#1077;&#1060;&#1080;&#1083;&#1080;&#1072;&#1083;&#1072;</text></g><g class="entity" data-qualified-name="....." id="ent0006"><rect fill="#F1F1F1" height="50" rx="6" ry="6" style="stroke:#181818;stroke-width:0.5;" width="65.3223" x="197" y="378.2969"/><line style="stroke:#181818;stroke-width:0.5;" x1="197" x2="262.3223" y1="404.5938" y2="404.5938"/><text fill="#000000" font-family="sans-serif" font-size="14" lengthAdjust="spacing" textLength="45.3223" x="207" y="396.292">&#1054;&#1087;&#1088;&#1086;&#1089;</text></g><g class="entity" data-qualified-name=".............." id="ent0008"><rect fill="#F1F1F1" height="50" rx="6" ry="6" style="stroke:#181818;stroke-width:0.5;" width="147.7705" x="211.5" y="505.2969"/><line style="stroke:#181818;stroke-width:0.5;" x1="211.5" x2="359.2705" y1="531.5938" y2="531.5938"/><text fill="#000000" font-family="sans-serif" font-size="14" lengthAdjust="spacing" textLength="127.7705" x="221.5" y="523.292">&#1054;&#1078;&#1080;&#1076;&#1072;&#1085;&#1080;&#1077;&#1059;&#1089;&#1083;&#1091;&#1075;&#1080;</text></g><g class="entity" data-qualified-name=".............." id="ent0010"><rect fill="#F1F1F1" height="50" rx="6" ry="6" style="stroke:#181818;stroke-width:0.5;" width="142.8896" x="214" y="632.2969"/><line style="stroke:#181818;stroke-width:0.5;" x1="214" x2="356.8896" y1="658.5938" y2="658.5938"/><text fill="#000000" font-family="sans-serif" font-size="14" lengthAdjust="spacing" textLength="122.8896" x="224" y="650.292">&#1057;&#1086;&#1079;&#1076;&#1072;&#1085;&#1080;&#1077;&#1042;&#1080;&#1079;&#1080;&#1090;&#1072;</text></g><g class="entity" data-qualified-name="............." id="ent0012"><rect fill="#F1F1F1" height="50" rx="6" ry="6" style="stroke:#181818;stroke-width:0.5;" width="134.1602" x="229.5" y="759.2969"/><line style="stroke:#181818;stroke-width:0.5;" x1="229.5" x2="363.6602" y1="785.5938" y2="785.5938"/><text fill="#000000" font-family="sans-serif" font-size="14" lengthAdjust="spacing" textLength="114.1602" x="239.5" y="777.292">&#1058;&#1072;&#1083;&#1086;&#1085;&#1055;&#1088;&#1080;&#1074;&#1103;&#1079;&#1072;&#1085;</text></g><g class="entity" data-qualified-name="......" id="ent0014"><rect fill="#F1F1F1" height="50" rx="6" ry="6" style="stroke:#181818;stroke-width:0.5;" width="78.5977" x="7" y="759.2969"/><line style="stroke:#181818;stroke-width:0.5;" x1="7" x2="85.5977" y1="785.5938" y2="785.5938"/><text fill="#000000" font-family="sans-serif" font-size="14" lengthAdjust="spacing" textLength="58.5977" x="17" y="777.292">&#1054;&#1096;&#1080;&#1073;&#1082;&#1072;</text></g><g class="entity" data-qualified-name="....................." id="ent0016"><rect fill="#F1F1F1" height="50" rx="6" ry="6" style="stroke:#181818;stroke-width:0.5;" width="215.0566" x="315" y="886.2969"/><line style="stroke:#181818;stroke-width:0.5;" x1="315" x2="530.0566" y1="912.5938" y2="912.5938"/><text fill="#000000" font-family="sans-serif" font-size="14" lengthAdjust="spacing" textLength="195.0566" x="325" y="904.292">&#1054;&#1078;&#1080;&#1076;&#1072;&#1085;&#1080;&#1077;&#1057;&#1086;&#1073;&#1099;&#1090;&#1080;&#1103;&#1042;&#1099;&#1079;&#1086;&#1074;&#1072;</text></g><g class="entity" data-qualified-name="........." id="ent0018"><rect fill="#F1F1F1" height="50" rx="6" ry="6" style="stroke:#181818;stroke-width:0.5;" width="100.917" x="372" y="1013.2969"/><line style="stroke:#181818;stroke-width:0.5;" x1="372" x2="472.917" y1="1039.5938" y2="1039.5938"/><text fill="#000000" font-family="sans-serif" font-size="14" lengthAdjust="spacing" textLength="80.917" x="382" y="1031.292">&#1059;&#1074;&#1077;&#1076;&#1086;&#1084;&#1083;&#1077;&#1085;</text></g><!--link *start* to ????????--><g class="link" data-entity-1="ent0002" data-entity-2="ent0002" data-link-type="dependency" data-source-line="6" id="lnk3"><path d="M264.5,63.3069 C264.5,77.1869 264.5,98.2669 264.5,118.1369" fill="none" id="*start*-to-&#1054;&#1078;&#1080;&#1076;&#1072;&#1085;&#1080;&#1077;" style="stroke:#181818;stroke-width:1;"/><polygon fill="#181818" points="264.5,124.1369,268.5,115.1369,264.5,119.1369,260.5,115.1369,264.5,124.1369" style="stroke:#181818;stroke-width:1;"/></g><!--link ???????? to ???????????????--><g class="link" data-entity-1="ent0002" data-entity-2="ent0004" data-link-type="dependency" data-source-line="11" id="lnk5"><path d="M215.38,153.6969 C180.75,158.9469 136.57,172.0269 113.5,204.2969 C103.96,217.6369 103.1511,230.3477 105.4511,245.1877" fill="none" id="&#1054;&#1078;&#1080;&#1076;&#1072;&#1085;&#1080;&#1077;-to-&#1054;&#1078;&#1080;&#1076;&#1072;&#1085;&#1080;&#1077;&#1060;&#1080;&#1083;&#1080;&#1072;&#1083;&#1072;" style="stroke:#181818;stroke-width:1;"/><polygon fill="#181818" points="106.37,251.1169,108.9444,241.6104,105.6042,246.1759,101.0388,242.8357,106.37,251.1169" style="stroke:#181818;stroke-width:1;"/><text fill="#000000" font-family="sans-serif" font-size="13" lengthAdjust="spacing" textLength="34.6582" x="114.5" y="217.3638">/start</text></g><!--link ??????????????? to ????????--><g class="link" data-entity-1="ent0004" data-entity-2="ent0002" data-link-type="dependency" data-source-line="23" id="lnk22"><path d="M137.53,251.2369 C152.54,237.1469 172.2,219.2269 190.5,204.2969 C202.95,194.1369 212.222,187.1044 224.782,178.0544" fill="none" id="&#1054;&#1078;&#1080;&#1076;&#1072;&#1085;&#1080;&#1077;&#1060;&#1080;&#1083;&#1080;&#1072;&#1083;&#1072;-to-&#1054;&#1078;&#1080;&#1076;&#1072;&#1085;&#1080;&#1077;" style="stroke:#181818;stroke-width:1;"/><polygon fill="#181818" points="229.65,174.5469,220.0097,176.5629,225.5934,177.4698,224.6864,183.0535,229.65,174.5469" style="stroke:#181818;stroke-width:1;"/><text fill="#000000" font-family="sans-serif" font-size="13" lengthAdjust="spacing" textLength="46.4902" x="191.5" y="217.3638">/cancel</text></g><!--link ??????????????? to ?????--><g class="link" data-entity-1="ent0004" data-entity-2="ent0006" data-link-type="dependency" data-source-line="12" id="lnk7"><path d="M113.39,301.4569 C115.04,316.2869 119.23,334.9269 129.5,348.2969 C146.33,370.1969 169.0377,382.2018 191.2577,390.4818" fill="none" id="&#1054;&#1078;&#1080;&#1076;&#1072;&#1085;&#1080;&#1077;&#1060;&#1080;&#1083;&#1080;&#1072;&#1083;&#1072;-to-&#1054;&#1087;&#1088;&#1086;&#1089;" style="stroke:#181818;stroke-width:1;"/><polygon fill="#181818" points="196.88,392.5769,189.8432,385.686,192.1947,390.831,187.0498,393.1825,196.88,392.5769" style="stroke:#181818;stroke-width:1;"/><text fill="#000000" font-family="sans-serif" font-size="13" lengthAdjust="spacing" textLength="107.3896" x="130.5" y="344.3638">&#1074;&#1099;&#1073;&#1088;&#1072;&#1085; &#1092;&#1080;&#1083;&#1080;&#1072;&#1083;</text></g><!--link ????? to ??????????????--><g class="link" data-entity-1="ent0006" data-entity-2="ent0008" data-link-type="dependency" data-source-line="13" id="lnk9"><path d="M223.34,428.2969 C220.91,442.5369 220.04,460.6169 226.5,475.2969 C231.54,486.7369 235.8358,492.8204 245.1158,501.0704" fill="none" id="&#1054;&#1087;&#1088;&#1086;&#1089;-to-&#1054;&#1078;&#1080;&#1076;&#1072;&#1085;&#1080;&#1077;&#1059;&#1089;&#1083;&#1091;&#1075;&#1080;" style="stroke:#181818;stroke-width:1;"/><polygon fill="#181818" points="249.6,505.0569,245.5314,496.0877,245.8632,501.7348,240.2161,502.0666,249.6,505.0569" style="stroke:#181818;stroke-width:1;"/><text fill="#000000" font-family="sans-serif" font-size="13" lengthAdjust="spacing" textLength="111.1221" x="227.5" y="471.3638">&#1086;&#1087;&#1088;&#1086;&#1089; &#1079;&#1072;&#1074;&#1077;&#1088;&#1096;&#1105;&#1085;</text></g><!--link ?????????????? to ??????????????--><g class="link" data-entity-1="ent0008" data-entity-2="ent0010" data-link-type="dependency" data-source-line="14" id="lnk11"><path d="M285.5,555.3969 C285.5,577.5369 285.5,604.1569 285.5,626.2669" fill="none" id="&#1054;&#1078;&#1080;&#1076;&#1072;&#1085;&#1080;&#1077;&#1059;&#1089;&#1083;&#1091;&#1075;&#1080;-to-&#1057;&#1086;&#1079;&#1076;&#1072;&#1085;&#1080;&#1077;&#1042;&#1080;&#1079;&#1080;&#1090;&#1072;" style="stroke:#181818;stroke-width:1;"/><polygon fill="#181818" points="285.5,632.2669,289.5,623.2669,285.5,627.2669,281.5,623.2669,285.5,632.2669" style="stroke:#181818;stroke-width:1;"/><text fill="#000000" font-family="sans-serif" font-size="13" lengthAdjust="spacing" textLength="108.3989" x="286.5" y="598.3638">&#1074;&#1099;&#1073;&#1088;&#1072;&#1085;&#1072; &#1091;&#1089;&#1083;&#1091;&#1075;&#1072;</text></g><!--link ?????????????? to ?????????????--><g class="link" data-entity-1="ent0010" data-entity-2="ent0012" data-link-type="dependency" data-source-line="15" id="lnk13"><path d="M287.62,682.3969 C289.57,704.5369 291.9129,731.1801 293.8629,753.2901" fill="none" id="&#1057;&#1086;&#1079;&#1076;&#1072;&#1085;&#1080;&#1077;&#1042;&#1080;&#1079;&#1080;&#1090;&#1072;-to-&#1058;&#1072;&#1083;&#1086;&#1085;&#1055;&#1088;&#1080;&#1074;&#1103;&#1079;&#1072;&#1085;" style="stroke:#181818;stroke-width:1;"/><polygon fill="#181818" points="294.39,759.2669,297.5838,749.9503,293.9507,754.2862,289.6148,750.6531,294.39,759.2669" style="stroke:#181818;stroke-width:1;"/><text fill="#000000" font-family="sans-serif" font-size="13" lengthAdjust="spacing" textLength="215.8521" x="293.5" y="725.3638">&#1074;&#1080;&#1079;&#1080;&#1090; &#1089;&#1086;&#1079;&#1076;&#1072;&#1085; &#1080; &#1090;&#1072;&#1083;&#1086;&#1085; &#1087;&#1088;&#1080;&#1074;&#1103;&#1079;&#1072;&#1085;</text></g><!--link ?????????????? to ??????--><g class="link" data-entity-1="ent0010" data-entity-2="ent0014" data-link-type="dependency" data-source-line="16" id="lnk15"><path d="M213.62,666.8069 C175.72,674.0869 130.06,687.5269 95.5,712.2969 C78.82,724.2469 68.7999,738.4615 60.4499,754.0015" fill="none" id="&#1057;&#1086;&#1079;&#1076;&#1072;&#1085;&#1080;&#1077;&#1042;&#1080;&#1079;&#1080;&#1090;&#1072;-to-&#1054;&#1096;&#1080;&#1073;&#1082;&#1072;" style="stroke:#181818;stroke-width:1;"/><polygon fill="#181818" points="57.61,759.2869,65.3935,753.2522,59.9766,754.8824,58.3463,749.4656,57.61,759.2869" style="stroke:#181818;stroke-width:1;"/><text fill="#000000" font-family="sans-serif" font-size="13" lengthAdjust="spacing" textLength="185.0786" x="96.5" y="725.3638">&#1086;&#1096;&#1080;&#1073;&#1082;&#1072;/&#1090;&#1072;&#1081;&#1084;&#1072;&#1091;&#1090; Queue API</text></g><!--link ????????????? to ?????????????????????--><g class="link" data-entity-1="ent0012" data-entity-2="ent0016" data-link-type="dependency" data-source-line="18" id="lnk17"><path d="M285.74,809.5769 C280.99,824.2669 278.31,842.7169 287.5,856.2969 C296.13,869.0469 303.0607,875.8991 316.6107,883.3391" fill="none" id="&#1058;&#1072;&#1083;&#1086;&#1085;&#1055;&#1088;&#1080;&#1074;&#1103;&#1079;&#1072;&#1085;-to-&#1054;&#1078;&#1080;&#1076;&#1072;&#1085;&#1080;&#1077;&#1057;&#1086;&#1073;&#1099;&#1090;&#1080;&#1103;&#1042;&#1099;&#1079;&#1086;&#1074;&#1072;" style="stroke:#181818;stroke-width:1;"/><polygon fill="#181818" points="321.87,886.2269,315.9062,878.389,317.4872,883.8204,312.0558,885.4014,321.87,886.2269" style="stroke:#181818;stroke-width:1;"/><text fill="#000000" font-family="sans-serif" font-size="13" lengthAdjust="spacing" textLength="239.1924" x="288.5" y="852.3638">&#1086;&#1078;&#1080;&#1076;&#1072;&#1085;&#1080;&#1077; VISIT_CALL/VISIT_RECALL</text></g><!--link ????????????????????? to ?????????--><g class="link" data-entity-1="ent0016" data-entity-2="ent0018" data-link-type="dependency" data-source-line="19" id="lnk19"><path d="M365.03,936.4469 C353.23,944.1869 342.33,954.0269 335.5,966.2969 C323.04,988.6969 340.9239,1004.2141 366.5339,1016.5441" fill="none" id="&#1054;&#1078;&#1080;&#1076;&#1072;&#1085;&#1080;&#1077;&#1057;&#1086;&#1073;&#1099;&#1090;&#1080;&#1103;&#1042;&#1099;&#1079;&#1086;&#1074;&#1072;-to-&#1059;&#1074;&#1077;&#1076;&#1086;&#1084;&#1083;&#1077;&#1085;" style="stroke:#181818;stroke-width:1;"/><polygon fill="#181818" points="371.94,1019.1469,365.5661,1011.6387,367.4349,1016.9779,362.0957,1018.8468,371.94,1019.1469" style="stroke:#181818;stroke-width:1;"/><text fill="#000000" font-family="sans-serif" font-size="13" lengthAdjust="spacing" textLength="126.1216" x="336.5" y="979.3638">&#1089;&#1086;&#1073;&#1099;&#1090;&#1080;&#1077; &#1087;&#1086;&#1083;&#1091;&#1095;&#1077;&#1085;&#1086;</text></g><!--link ????????? to ?????????????????????--><g class="link" data-entity-1="ent0018" data-entity-2="ent0016" data-link-type="dependency" data-source-line="20" id="lnk20"><path d="M451.56,1013.0669 C463.63,999.9469 473.56,983.0369 467.5,966.2969 C463.51,955.2769 460.1554,949.4397 452.5554,940.8097" fill="none" id="&#1059;&#1074;&#1077;&#1076;&#1086;&#1084;&#1083;&#1077;&#1085;-to-&#1054;&#1078;&#1080;&#1076;&#1072;&#1085;&#1080;&#1077;&#1057;&#1086;&#1073;&#1099;&#1090;&#1080;&#1103;&#1042;&#1099;&#1079;&#1086;&#1074;&#1072;" style="stroke:#181818;stroke-width:1;"/><polygon fill="#181818" points="448.59,936.3069,451.5362,945.7047,451.8945,940.0592,457.54,940.4175,448.59,936.3069" style="stroke:#181818;stroke-width:1;"/><text fill="#000000" font-family="sans-serif" font-size="13" lengthAdjust="spacing" textLength="140.8545" x="469.5" y="979.3638">&#1089;&#1083;&#1077;&#1076;&#1091;&#1102;&#1097;&#1077;&#1077; &#1089;&#1086;&#1073;&#1099;&#1090;&#1080;&#1077;</text></g><!--link ?????? to ???????????????--><g class="link" data-entity-1="ent0014" data-entity-2="ent0004" data-link-type="dependency" data-source-line="22" id="lnk21"><path d="M37.48,759.2469 C28.97,734.3569 17.5,694.1669 17.5,658.2969 C17.5,402.2969 17.5,402.2969 17.5,402.2969 C17.5,360.5969 46.8092,327.9142 74.1192,305.2942" fill="none" id="&#1054;&#1096;&#1080;&#1073;&#1082;&#1072;-to-&#1054;&#1078;&#1080;&#1076;&#1072;&#1085;&#1080;&#1077;&#1060;&#1080;&#1083;&#1080;&#1072;&#1083;&#1072;" style="stroke:#181818;stroke-width:1;"/><polygon fill="#181818" points="78.74,301.4669,69.2573,304.1272,74.8893,304.6563,74.3603,310.2883,78.74,301.4669" style="stroke:#181818;stroke-width:1;"/><text fill="#000000" font-family="sans-serif" font-size="13" lengthAdjust="spacing" textLength="139.4136" x="18.5" y="534.8638">&#1087;&#1077;&#1088;&#1077;&#1079;&#1072;&#1087;&#1091;&#1089;&#1082; &#1076;&#1080;&#1072;&#1083;&#1086;&#1075;&#1072;</text></g><!--link ????? to ????????--><g class="link" data-entity-1="ent0006" data-entity-2="ent0002" data-link-type="dependency" data-source-line="24" id="lnk23"><path d="M235.98,378.2369 C238.3,368.9369 240.77,358.1769 242.5,348.2969 C253.39,286.1269 259.4847,217.9496 262.3347,180.4996" fill="none" id="&#1054;&#1087;&#1088;&#1086;&#1089;-to-&#1054;&#1078;&#1080;&#1076;&#1072;&#1085;&#1080;&#1077;" style="stroke:#181818;stroke-width:1;"/><polygon fill="#181818" points="262.79,174.5169,258.1186,183.1874,262.4106,179.5025,266.0955,183.7945,262.79,174.5169" style="stroke:#181818;stroke-width:1;"/><text fill="#000000" font-family="sans-serif" font-size="13" lengthAdjust="spacing" textLength="46.4902" x="257.5" y="280.8638">/cancel</text></g><!--link ?????????????? to ????????--><g class="link" data-entity-1="ent0008" data-entity-2="ent0002" data-link-type="dependency" data-source-line="25" id="lnk24"><path d="M320.5,505.2269 C329.73,496.9169 338.5,486.7769 343.5,475.2969 C346.52,468.3669 344.06,465.8269 343.5,458.2969 C336.59,365.5269 339.65,340.2769 312.5,251.2969 C304.11,223.8169 292.2638,199.6084 281.3238,179.6484" fill="none" id="&#1054;&#1078;&#1080;&#1076;&#1072;&#1085;&#1080;&#1077;&#1059;&#1089;&#1083;&#1091;&#1075;&#1080;-to-&#1054;&#1078;&#1080;&#1076;&#1072;&#1085;&#1080;&#1077;" style="stroke:#181818;stroke-width:1;"/><polygon fill="#181818" points="278.44,174.3869,279.258,184.2017,280.8432,178.7715,286.2734,180.3566,278.44,174.3869" style="stroke:#181818;stroke-width:1;"/><text fill="#000000" font-family="sans-serif" font-size="13" lengthAdjust="spacing" textLength="46.4902" x="336.5" y="344.3638">/cancel</text></g><!--link ????????????????????? to ????????--><g class="link" data-entity-1="ent0016" data-entity-2="ent0002" data-link-type="dependency" data-source-line="26" id="lnk25"><path d="M493.02,886.2769 C507.66,878.5969 521.85,868.7469 532.5,856.2969 C553.97,831.1869 554.5,818.3369 554.5,785.2969 C554.5,275.2969 554.5,275.2969 554.5,275.2969 C554.5,171.6769 402.4268,153.124 319.6868,150.404" fill="none" id="&#1054;&#1078;&#1080;&#1076;&#1072;&#1085;&#1080;&#1077;&#1057;&#1086;&#1073;&#1099;&#1090;&#1080;&#1103;&#1042;&#1099;&#1079;&#1086;&#1074;&#1072;-to-&#1054;&#1078;&#1080;&#1076;&#1072;&#1085;&#1080;&#1077;" style="stroke:#181818;stroke-width:1;"/><polygon fill="#181818" points="313.69,150.2069,322.5537,154.5004,318.6873,150.3712,322.8166,146.5047,313.69,150.2069" style="stroke:#181818;stroke-width:1;"/><text fill="#000000" font-family="sans-serif" font-size="13" lengthAdjust="spacing" textLength="32.4556" x="555.5" y="534.8638">/stop</text></g><?plantuml-src bLFBIiD05DtFLrnm9vIYInU2Y4B1XI_SY4YiOot6H98K5o9e5LG4HN6j-FY0jbeRhKr_uSuVUMPQQwpHjWaCypZdpBdtplMtyiwEvLdRj6PbjtAUMt3M9rtRzMXesdp2xo3yJMlTtSqxETgmR5_6JWmjwtgEz6XaL0Jvm9R4DnnoYP_L0SOF_2LIXnofGrN4UCaD7B_HehHb3XefBcEto2KXbeTNA9KQ9xxbLs1UGDVOgX1-O0NorpxjYNqXVkqcIV0JnhhnLOUVCKf3qWj43rnRgebGu1yqhgXpBfl86gIEly4Y1aiqy8WSrDKHFtEeTQ8Eccl0LBYg3jIfkkA6-9TgjEz1hyK0rnXh7EeiTddKkJ_gq4lYNwhHVZ2XHpY-WqG8iKlZi66Klz2cebz215zQeCKZ4rcCsCUbj-eKMsL-RmKGVI_JHlXDlo84KgIvWYn8cfZDeF1_MqsiW7PHLkSG306yHf9gsAcqh-nwH4kPXSpYwkJ4p4owDPsVqWinWAenyQXB2tY42EgOwJIQtBKvk8gRMA90waIVSoGII0C7f6kkDI1xeSumgtPTgnidblM-cWPEyKnneBFSD0_hdO0FsuKmBwolZlgPRBHZrdAoqkxLHJ-HFRfa06wF8YOe-O6xyma0?></g></svg>