<?xml version="1.0" encoding="UTF-8" standalone="no"?><svg xmlns="http://www.w3.org/2000/svg" xmlns:xlink="http://www.w3.org/1999/xlink" contentScriptType="application/ecmascript" contentStyleType="text/css" height="688px" preserveAspectRatio="none" style="width:1273px;height:688px;" version="1.1" viewBox="0 0 1273 688" width="1273px" zoomAndPan="magnify"><defs/><g><text fill="#000000" font-family="sans-serif" font-size="18" lengthAdjust="spacingAndGlyphs" textLength="569" x="351.125" y="26.708">Обработка ошибок внешних систем (Queue API + события)</text><ellipse cx="404.75" cy="40.9531" fill="#000000" rx="10" ry="10" style="stroke: none; stroke-width: 1.0;"/><rect fill="#FEFECE" height="33.9688" rx="12.5" ry="12.5" style="stroke: #A80036; stroke-width: 1.5;" width="219" x="295.25" y="70.9531"/><text fill="#000000" font-family="sans-serif" font-size="12" lengthAdjust="spacingAndGlyphs" textLength="199" x="305.25" y="92.0918">Получение update из Telegram</text><rect fill="#FEFECE" height="33.9688" rx="12.5" ry="12.5" style="stroke: #A80036; stroke-width: 1.5;" width="303" x="253.25" y="124.9219"/><text fill="#000000" font-family="sans-serif" font-size="12" lengthAdjust="spacingAndGlyphs" textLength="283" x="263.25" y="146.0605">Определение филиала и системы очереди</text><rect fill="#FEFECE" height="33.9688" rx="12.5" ry="12.5" style="stroke: #A80036; stroke-width: 1.5;" width="127" x="341.25" y="178.8906"/><text fill="#000000" font-family="sans-serif" font-size="12" lengthAdjust="spacingAndGlyphs" textLength="107" x="351.25" y="200.0293">Вызов Queue API</text><polygon fill="#FEFECE" points="375.75,232.8594,433.75,232.8594,445.75,244.8594,433.75,256.8594,375.75,256.8594,363.75,244.8594,375.75,232.8594" style="stroke: #A80036; stroke-width: 1.5;"/><text fill="#000000" font-family="sans-serif" font-size="11" lengthAdjust="spacingAndGlyphs" textLength="58" x="375.75" y="248.6675">HTTP 2xx?</text><text fill="#000000" font-family="sans-serif" font-size="11" lengthAdjust="spacingAndGlyphs" textLength="15" x="348.75" y="242.2651">да</text><text fill="#000000" font-family="sans-serif" font-size="11" lengthAdjust="spacingAndGlyphs" textLength="21" x="445.75" y="242.2651">нет</text><rect fill="#FEFECE" height="33.9688" rx="12.5" ry="12.5" style="stroke: #A80036; stroke-width: 1.5;" width="171" x="46.5" y="266.8594"/><text fill="#000000" font-family="sans-serif" font-size="12" lengthAdjust="spacingAndGlyphs" textLength="151" x="56.5" y="287.998">Разбор данных талона</text><rect fill="#FEFECE" height="33.9688" rx="12.5" ry="12.5" style="stroke: #A80036; stroke-width: 1.5;" width="178" x="43" y="320.8281"/><text fill="#000000" font-family="sans-serif" font-size="12" lengthAdjust="spacingAndGlyphs" textLength="158" x="53" y="341.9668">Привязка талона к чату</text><rect fill="#FEFECE" height="33.9688" rx="12.5" ry="12.5" style="stroke: #A80036; stroke-width: 1.5;" width="244" x="10" y="389.7969"/><text fill="#000000" font-family="sans-serif" font-size="12" lengthAdjust="spacingAndGlyphs" textLength="224" x="20" y="410.9355">Ответ клиенту с номером талона</text><rect fill="#FEFECE" height="33.9688" rx="12.5" ry="12.5" style="stroke: #A80036; stroke-width: 1.5;" width="178" x="577.75" y="266.8594"/><text fill="#000000" font-family="sans-serif" font-size="12" lengthAdjust="spacingAndGlyphs" textLength="158" x="587.75" y="287.998">Классификация ошибки</text><polygon fill="#FEFECE" points="612.75,320.8281,720.75,320.8281,732.75,332.8281,720.75,344.8281,612.75,344.8281,600.75,332.8281,612.75,320.8281" style="stroke: #A80036; stroke-width: 1.5;"/><text fill="#000000" font-family="sans-serif" font-size="11" lengthAdjust="spacingAndGlyphs" textLength="108" x="612.75" y="336.6362">Авторизация/403?</text><text fill="#000000" font-family="sans-serif" font-size="11" lengthAdjust="spacingAndGlyphs" textLength="15" x="585.75" y="330.2339">да</text><text fill="#000000" font-family="sans-serif" font-size="11" lengthAdjust="spacingAndGlyphs" textLength="21" x="732.75" y="330.2339">нет</text><rect fill="#FEFECE" height="33.9688" rx="12.5" ry="12.5" style="stroke: #A80036; stroke-width: 1.5;" width="271" x="284" y="354.8281"/><text fill="#000000" font-family="sans-serif" font-size="12" lengthAdjust="spacingAndGlyphs" textLength="251" x="294" y="375.9668">Логирование безопасного контекста</text><rect fill="#FEFECE" height="33.9688" rx="12.5" ry="12.5" style="stroke: #A80036; stroke-width: 1.5;" width="233" x="303" y="423.7969"/><text fill="#000000" font-family="sans-serif" font-size="12" lengthAdjust="spacingAndGlyphs" textLength="213" x="313" y="444.9355">Ответ: интеграция недоступна</text><polygon fill="#FEFECE" points="885.75,354.8281,963.75,354.8281,975.75,366.8281,963.75,378.8281,885.75,378.8281,873.75,366.8281,885.75,354.8281" style="stroke: #A80036; stroke-width: 1.5;"/><text fill="#000000" font-family="sans-serif" font-size="11" lengthAdjust="spacingAndGlyphs" textLength="78" x="885.75" y="370.6362">Таймаут/5xx?</text><text fill="#000000" font-family="sans-serif" font-size="11" lengthAdjust="spacingAndGlyphs" textLength="15" x="858.75" y="364.2339">да</text><text fill="#000000" font-family="sans-serif" font-size="11" lengthAdjust="spacingAndGlyphs" textLength="65" x="975.75" y="364.2339">валидация</text><rect fill="#FEFECE" height="33.9688" rx="12.5" ry="12.5" style="stroke: #A80036; stroke-width: 1.5;" width="347" x="574.25" y="388.8281"/><text fill="#000000" font-family="sans-serif" font-size="12" lengthAdjust="spacingAndGlyphs" textLength="327" x="584.25" y="409.9668">Логирование временного сбоя внешней системы</text><rect fill="#FEFECE" height="33.9688" rx="12.5" ry="12.5" style="stroke: #A80036; stroke-width: 1.5;" width="195" x="650.25" y="457.7969"/><text fill="#000000" font-family="sans-serif" font-size="12" lengthAdjust="spacingAndGlyphs" textLength="175" x="660.25" y="478.9355">Ответ: временная ошибка</text><rect fill="#FEFECE" height="33.9688" rx="12.5" ry="12.5" style="stroke: #A80036; stroke-width: 1.5;" width="321" x="941.25" y="388.8281"/><text fill="#000000" font-family="sans-serif" font-size="12" lengthAdjust="spacingAndGlyphs" textLength="301" x="951.25" y="409.9668">Подсказка по корректировке филиала/услуги</text><polygon fill="#FEFECE" points="924.75,497.7656,936.75,509.7656,924.75,521.7656,912.75,509.7656,924.75,497.7656" style="stroke: #A80036; stroke-width: 1.5;"/><polygon fill="#FEFECE" points="666.75,527.7656,678.75,539.7656,666.75,551.7656,654.75,539.7656,666.75,527.7656" style="stroke: #A80036; stroke-width: 1.5;"/><polygon fill="#FEFECE" points="404.75,557.7656,416.75,569.7656,404.75,581.7656,392.75,569.7656,404.75,557.7656" style="stroke: #A80036; stroke-width: 1.5;"/><rect fill="#FEFECE" height="33.9688" rx="12.5" ry="12.5" style="stroke: #A80036; stroke-width: 1.5;" width="319" x="245.25" y="601.7656"/><text fill="#000000" font-family="sans-serif" font-size="12" lengthAdjust="spacingAndGlyphs" textLength="299" x="255.25" y="622.9043">Продолжение polling событий (CometD/Kafka)</text><ellipse cx="404.75" cy="666.7344" fill="#FFFFFF" rx="11" ry="11" style="stroke: #000000; stroke-width: 1.0;"/><ellipse cx="404.75" cy="666.7344" fill="#000000" rx="6" ry="6" style="stroke: #7F7F7F; stroke-width: 1.0;"/><line style="stroke: #A80036; stroke-width: 1.5;" x1="404.75" x2="404.75" y1="50.9531" y2="70.9531"/><polygon fill="#A80036" points="400.75,60.9531,404.75,70.9531,408.75,60.9531,404.75,64.9531" style="stroke: #A80036; stroke-width: 1.0;"/><line style="stroke: #A80036; stroke-width: 1.5;" x1="404.75" x2="404.75" y1="104.9219" y2="124.9219"/><polygon fill="#A80036" points="400.75,114.9219,404.75,124.9219,408.75,114.9219,404.75,118.9219" style="stroke: #A80036; stroke-width: 1.0;"/><line style="stroke: #A80036; stroke-width: 1.5;" x1="404.75" x2="404.75" y1="158.8906" y2="178.8906"/><polygon fill="#A80036" points="400.75,168.8906,404.75,178.8906,408.75,168.8906,404.75,172.8906" style="stroke: #A80036; stroke-width: 1.0;"/><line style="stroke: #A80036; stroke-width: 1.5;" x1="132" x2="132" y1="300.8281" y2="320.8281"/><polygon fill="#A80036" points="128,310.8281,132,320.8281,136,310.8281,132,314.8281" style="stroke: #A80036; stroke-width: 1.0;"/><line style="stroke: #A80036; stroke-width: 1.5;" x1="132" x2="132" y1="354.7969" y2="389.7969"/><polygon fill="#A80036" points="128,379.7969,132,389.7969,136,379.7969,132,383.7969" style="stroke: #A80036; stroke-width: 1.0;"/><line style="stroke: #A80036; stroke-width: 1.5;" x1="419.5" x2="419.5" y1="388.7969" y2="423.7969"/><polygon fill="#A80036" points="415.5,413.7969,419.5,423.7969,423.5,413.7969,419.5,417.7969" style="stroke: #A80036; stroke-width: 1.0;"/><line style="stroke: #A80036; stroke-width: 1.5;" x1="747.75" x2="747.75" y1="422.7969" y2="457.7969"/><polygon fill="#A80036" points="743.75,447.7969,747.75,457.7969,751.75,447.7969,747.75,451.7969" style="stroke: #A80036; stroke-width: 1.0;"/><line style="stroke: #A80036; stroke-width: 1.5;" x1="873.75" x2="747.75" y1="366.8281" y2="366.8281"/><line style="stroke: #A80036; stroke-width: 1.5;" x1="747.75" x2="747.75" y1="366.8281" y2="388.8281"/><polygon fill="#A80036" points="743.75,378.8281,747.75,388.8281,751.75,378.8281,747.75,382.8281" style="stroke: #A80036; stroke-width: 1.0;"/><line style="stroke: #A80036; stroke-width: 1.5;" x1="975.75" x2="1101.75" y1="366.8281" y2="366.8281"/><line style="stroke: #A80036; stroke-width: 1.5;" x1="1101.75" x2="1101.75" y1="366.8281" y2="388.8281"/><polygon fill="#A80036" points="1097.75,378.8281,1101.75,388.8281,1105.75,378.8281,1101.75,382.8281" style="stroke: #A80036; stroke-width: 1.0;"/><line style="stroke: #A80036; stroke-width: 1.5;" x1="747.75" x2="747.75" y1="491.7656" y2="509.7656"/><line style="stroke: #A80036; stroke-width: 1.5;" x1="747.75" x2="912.75" y1="509.7656" y2="509.7656"/><polygon fill="#A80036" points="902.75,505.7656,912.75,509.7656,902.75,513.7656,906.75,509.7656" style="stroke: #A80036; stroke-width: 1.0;"/><line style="stroke: #A80036; stroke-width: 1.5;" x1="1101.75" x2="1101.75" y1="422.7969" y2="509.7656"/><line style="stroke: #A80036; stroke-width: 1.5;" x1="1101.75" x2="936.75" y1="509.7656" y2="509.7656"/><polygon fill="#A80036" points="946.75,505.7656,936.75,509.7656,946.75,513.7656,942.75,509.7656" style="stroke: #A80036; stroke-width: 1.0;"/><line style="stroke: #A80036; stroke-width: 1.5;" x1="600.75" x2="419.5" y1="332.8281" y2="332.8281"/><line style="stroke: #A80036; stroke-width: 1.5;" x1="419.5" x2="419.5" y1="332.8281" y2="354.8281"/><polygon fill="#A80036" points="415.5,344.8281,419.5,354.8281,423.5,344.8281,419.5,348.8281" style="stroke: #A80036; stroke-width: 1.0;"/><line style="stroke: #A80036; stroke-width: 1.5;" x1="732.75" x2="924.75" y1="332.8281" y2="332.8281"/><line style="stroke: #A80036; stroke-width: 1.5;" x1="924.75" x2="924.75" y1="332.8281" y2="354.8281"/><polygon fill="#A80036" points="920.75,344.8281,924.75,354.8281,928.75,344.8281,924.75,348.8281" style="stroke: #A80036; stroke-width: 1.0;"/><line style="stroke: #A80036; stroke-width: 1.5;" x1="419.5" x2="419.5" y1="457.7656" y2="539.7656"/><line style="stroke: #A80036; stroke-width: 1.5;" x1="419.5" x2="654.75" y1="539.7656" y2="539.7656"/><polygon fill="#A80036" points="644.75,535.7656,654.75,539.7656,644.75,543.7656,648.75,539.7656" style="stroke: #A80036; stroke-width: 1.0;"/><line style="stroke: #A80036; stroke-width: 1.5;" x1="924.75" x2="924.75" y1="521.7656" y2="539.7656"/><line style="stroke: #A80036; stroke-width: 1.5;" x1="924.75" x2="678.75" y1="539.7656" y2="539.7656"/><polygon fill="#A80036" points="688.75,535.7656,678.75,539.7656,688.75,543.7656,684.75,539.7656" style="stroke: #A80036; stroke-width: 1.0;"/><line style="stroke: #A80036; stroke-width: 1.5;" x1="666.75" x2="666.75" y1="300.8281" y2="320.8281"/><polygon fill="#A80036" points="662.75,310.8281,666.75,320.8281,670.75,310.8281,666.75,314.8281" style="stroke: #A80036; stroke-width: 1.0;"/><line style="stroke: #A80036; stroke-width: 1.5;" x1="363.75" x2="132" y1="244.8594" y2="244.8594"/><line style="stroke: #A80036; stroke-width: 1.5;" x1="132" x2="132" y1="244.8594" y2="266.8594"/><polygon fill="#A80036" points="128,256.8594,132,266.8594,136,256.8594,132,260.8594" style="stroke: #A80036; stroke-width: 1.0;"/><line style="stroke: #A80036; stroke-width: 1.5;" x1="445.75" x2="666.75" y1="244.8594" y2="244.8594"/><line style="stroke: #A80036; stroke-width: 1.5;" x1="666.75" x2="666.75" y1="244.8594" y2="266.8594"/><polygon fill="#A80036" points="662.75,256.8594,666.75,266.8594,670.75,256.8594,666.75,260.8594" style="stroke: #A80036; stroke-width: 1.0;"/><line style="stroke: #A80036; stroke-width: 1.5;" x1="132" x2="132" y1="423.7656" y2="569.7656"/><line style="stroke: #A80036; stroke-width: 1.5;" x1="132" x2="392.75" y1="569.7656" y2="569.7656"/><polygon fill="#A80036" points="382.75,565.7656,392.75,569.7656,382.75,573.7656,386.75,569.7656" style="stroke: #A80036; stroke-width: 1.0;"/><line style="stroke: #A80036; stroke-width: 1.5;" x1="666.75" x2="666.75" y1="551.7656" y2="569.7656"/><line style="stroke: #A80036; stroke-width: 1.5;" x1="666.75" x2="416.75" y1="569.7656" y2="569.7656"/><polygon fill="#A80036" points="426.75,565.7656,416.75,569.7656,426.75,573.7656,422.75,569.7656" style="stroke: #A80036; stroke-width: 1.0;"/><line style="stroke: #A80036; stroke-width: 1.5;" x1="404.75" x2="404.75" y1="212.8594" y2="232.8594"/><polygon fill="#A80036" points="400.75,222.8594,404.75,232.8594,408.75,222.8594,404.75,226.8594" style="stroke: #A80036; stroke-width: 1.0;"/><line style="stroke: #A80036; stroke-width: 1.5;" x1="404.75" x2="404.75" y1="581.7656" y2="601.7656"/><polygon fill="#A80036" points="400.75,591.7656,404.75,601.7656,408.75,591.7656,404.75,595.7656" style="stroke: #A80036; stroke-width: 1.0;"/><line style="stroke: #A80036; stroke-width: 1.5;" x1="404.75" x2="404.75" y1="635.7344" y2="655.7344"/><polygon fill="#A80036" points="400.75,645.7344,404.75,655.7344,408.75,645.7344,404.75,649.7344" style="stroke: #A80036; stroke-width: 1.0;"/><!--MD5=[df567c1a9ce5906929ba9c44a5f13798]
@startuml
skinparam backgroundColor #FFFFFF
skinparam shadowing false
skinparam roundcorner 12
title Обработка ошибок внешних систем (Queue API + события)
start
:Получение update из Telegram;
:Определение филиала и системы очереди;
:Вызов Queue API;
if (HTTP 2xx?) then (да)
  :Разбор данных талона;
  :Привязка талона к чату;
  :Ответ клиенту с номером талона;
else (нет)
  :Классификация ошибки;
  if (Авторизация/403?) then (да)
    :Логирование безопасного контекста;
    :Ответ: интеграция недоступна;
  else (нет)
    if (Таймаут/5xx?) then (да)
      :Логирование временного сбоя внешней системы;
      :Ответ: временная ошибка;
    else (валидация)
      :Подсказка по корректировке филиала/услуги;
    endif
  endif
endif
:Продолжение polling событий (CometD/Kafka);
stop
@enduml

PlantUML version 1.2020.02(Sun Mar 01 10:22:07 UTC 2020)
(GPL source distribution)
Java Runtime: OpenJDK Runtime Environment
JVM: OpenJDK 64-Bit Server VM
Java Version: 21.0.2+13-58
Operating System: Linux
Default Encoding: UTF-8
Language: en
Country: null
--></g></svg>