<?xml version="1.0" encoding="UTF-8" standalone="no"?><svg xmlns="http://www.w3.org/2000/svg" xmlns:xlink="http://www.w3.org/1999/xlink" contentScriptType="application/ecmascript" contentStyleType="text/css" height="688px" preserveAspectRatio="none" style="width:1223px;height:688px;" version="1.1" viewBox="0 0 1223 688" width="1223px" zoomAndPan="magnify"><defs/><rect id="svg-background" width="100%" height="100%" fill="#FFFFFF"/><g><text fill="#000000" font-family="sans-serif" font-size="18" lengthAdjust="spacingAndGlyphs" textLength="470" x="375.8125" y="26.708">Обработка ошибок upstream (Queue API + Events)</text><ellipse cx="393.6875" cy="40.9531" fill="#000000" rx="10" ry="10" style="stroke: none; stroke-width: 1.0;"/><rect fill="#FEFECE" height="33.9688" rx="12.5" ry="12.5" style="stroke: #A80036; stroke-width: 1.5;" width="219" x="284.1875" y="70.9531"/><text fill="#000000" font-family="sans-serif" font-size="12" lengthAdjust="spacingAndGlyphs" textLength="199" x="294.1875" y="92.0918">Получение update из Telegram</text><rect fill="#FEFECE" height="33.9688" rx="12.5" ry="12.5" style="stroke: #A80036; stroke-width: 1.5;" width="303" x="242.1875" y="124.9219"/><text fill="#000000" font-family="sans-serif" font-size="12" lengthAdjust="spacingAndGlyphs" textLength="283" x="252.1875" y="146.0605">Определение филиала и системы очереди</text><rect fill="#FEFECE" height="33.9688" rx="12.5" ry="12.5" style="stroke: #A80036; stroke-width: 1.5;" width="127" x="330.1875" y="178.8906"/><text fill="#000000" font-family="sans-serif" font-size="12" lengthAdjust="spacingAndGlyphs" textLength="107" x="340.1875" y="200.0293">Вызов Queue API</text><polygon fill="#FEFECE" points="364.6875,232.8594,422.6875,232.8594,434.6875,244.8594,422.6875,256.8594,364.6875,256.8594,352.6875,244.8594,364.6875,232.8594" style="stroke: #A80036; stroke-width: 1.5;"/><text fill="#000000" font-family="sans-serif" font-size="11" lengthAdjust="spacingAndGlyphs" textLength="58" x="364.6875" y="248.6675">HTTP 2xx?</text><text fill="#000000" font-family="sans-serif" font-size="11" lengthAdjust="spacingAndGlyphs" textLength="15" x="337.6875" y="242.2651">да</text><text fill="#000000" font-family="sans-serif" font-size="11" lengthAdjust="spacingAndGlyphs" textLength="21" x="434.6875" y="242.2651">нет</text><rect fill="#FEFECE" height="33.9688" rx="12.5" ry="12.5" style="stroke: #A80036; stroke-width: 1.5;" width="171" x="46.5" y="266.8594"/><text fill="#000000" font-family="sans-serif" font-size="12" lengthAdjust="spacingAndGlyphs" textLength="151" x="56.5" y="287.998">Разбор данных талона</text><rect fill="#FEFECE" height="33.9688" rx="12.5" ry="12.5" style="stroke: #A80036; stroke-width: 1.5;" width="178" x="43" y="320.8281"/><text fill="#000000" font-family="sans-serif" font-size="12" lengthAdjust="spacingAndGlyphs" textLength="158" x="53" y="341.9668">Привязка талона к чату</text><rect fill="#FEFECE" height="33.9688" rx="12.5" ry="12.5" style="stroke: #A80036; stroke-width: 1.5;" width="244" x="10" y="389.7969"/><text fill="#000000" font-family="sans-serif" font-size="12" lengthAdjust="spacingAndGlyphs" textLength="224" x="20" y="410.9355">Ответ клиенту с номером талона</text><rect fill="#FEFECE" height="33.9688" rx="12.5" ry="12.5" style="stroke: #A80036; stroke-width: 1.5;" width="178" x="565" y="266.8594"/><text fill="#000000" font-family="sans-serif" font-size="12" lengthAdjust="spacingAndGlyphs" textLength="158" x="575" y="287.998">Классификация ошибки</text><polygon fill="#FEFECE" points="626,320.8281,682,320.8281,694,332.8281,682,344.8281,626,344.8281,614,332.8281,626,320.8281" style="stroke: #A80036; stroke-width: 1.5;"/><text fill="#000000" font-family="sans-serif" font-size="11" lengthAdjust="spacingAndGlyphs" textLength="56" x="626" y="336.6362">Auth/403?</text><text fill="#000000" font-family="sans-serif" font-size="11" lengthAdjust="spacingAndGlyphs" textLength="15" x="599" y="330.2339">да</text><text fill="#000000" font-family="sans-serif" font-size="11" lengthAdjust="spacingAndGlyphs" textLength="21" x="694" y="330.2339">нет</text><rect fill="#FEFECE" height="33.9688" rx="12.5" ry="12.5" style="stroke: #A80036; stroke-width: 1.5;" width="271" x="284" y="354.8281"/><text fill="#000000" font-family="sans-serif" font-size="12" lengthAdjust="spacingAndGlyphs" textLength="251" x="294" y="375.9668">Логирование безопасного контекста</text><rect fill="#FEFECE" height="33.9688" rx="12.5" ry="12.5" style="stroke: #A80036; stroke-width: 1.5;" width="233" x="303" y="423.7969"/><text fill="#000000" font-family="sans-serif" font-size="12" lengthAdjust="spacingAndGlyphs" textLength="213" x="313" y="444.9355">Ответ: интеграция недоступна</text><polygon fill="#FEFECE" points="852.375,354.8281,927.375,354.8281,939.375,366.8281,927.375,378.8281,852.375,378.8281,840.375,366.8281,852.375,354.8281" style="stroke: #A80036; stroke-width: 1.5;"/><text fill="#000000" font-family="sans-serif" font-size="11" lengthAdjust="spacingAndGlyphs" textLength="75" x="852.375" y="370.6362">Timeout/5xx?</text><text fill="#000000" font-family="sans-serif" font-size="11" lengthAdjust="spacingAndGlyphs" textLength="15" x="825.375" y="364.2339">да</text><text fill="#000000" font-family="sans-serif" font-size="11" lengthAdjust="spacingAndGlyphs" textLength="65" x="939.375" y="364.2339">валидация</text><rect fill="#FEFECE" height="33.9688" rx="12.5" ry="12.5" style="stroke: #A80036; stroke-width: 1.5;" width="288" x="583.625" y="388.8281"/><text fill="#000000" font-family="sans-serif" font-size="12" lengthAdjust="spacingAndGlyphs" textLength="268" x="593.625" y="409.9668">Логирование временного сбоя upstream</text><rect fill="#FEFECE" height="33.9688" rx="12.5" ry="12.5" style="stroke: #A80036; stroke-width: 1.5;" width="195" x="630.125" y="457.7969"/><text fill="#000000" font-family="sans-serif" font-size="12" lengthAdjust="spacingAndGlyphs" textLength="175" x="640.125" y="478.9355">Ответ: временная ошибка</text><rect fill="#FEFECE" height="33.9688" rx="12.5" ry="12.5" style="stroke: #A80036; stroke-width: 1.5;" width="321" x="891.625" y="388.8281"/><text fill="#000000" font-family="sans-serif" font-size="12" lengthAdjust="spacingAndGlyphs" textLength="301" x="901.625" y="409.9668">Подсказка по корректировке филиала/услуги</text><polygon fill="#FEFECE" points="889.875,497.7656,901.875,509.7656,889.875,521.7656,877.875,509.7656,889.875,497.7656" style="stroke: #A80036; stroke-width: 1.5;"/><polygon fill="#FEFECE" points="654,527.7656,666,539.7656,654,551.7656,642,539.7656,654,527.7656" style="stroke: #A80036; stroke-width: 1.5;"/><polygon fill="#FEFECE" points="393.6875,557.7656,405.6875,569.7656,393.6875,581.7656,381.6875,569.7656,393.6875,557.7656" style="stroke: #A80036; stroke-width: 1.5;"/><rect fill="#FEFECE" height="33.9688" rx="12.5" ry="12.5" style="stroke: #A80036; stroke-width: 1.5;" width="319" x="234.1875" y="601.7656"/><text fill="#000000" font-family="sans-serif" font-size="12" lengthAdjust="spacingAndGlyphs" textLength="299" x="244.1875" y="622.9043">Продолжение polling событий (CometD/Kafka)</text><ellipse cx="393.6875" cy="666.7344" fill="#FFFFFF" rx="11" ry="11" style="stroke: #000000; stroke-width: 1.0;"/><ellipse cx="393.6875" cy="666.7344" fill="#000000" rx="6" ry="6" style="stroke: #7F7F7F; stroke-width: 1.0;"/><line style="stroke: #A80036; stroke-width: 1.5;" x1="393.6875" x2="393.6875" y1="50.9531" y2="70.9531"/><polygon fill="#A80036" points="389.6875,60.9531,393.6875,70.9531,397.6875,60.9531,393.6875,64.9531" style="stroke: #A80036; stroke-width: 1.0;"/><line style="stroke: #A80036; stroke-width: 1.5;" x1="393.6875" x2="393.6875" y1="104.9219" y2="124.9219"/><polygon fill="#A80036" points="389.6875,114.9219,393.6875,124.9219,397.6875,114.9219,393.6875,118.9219" style="stroke: #A80036; stroke-width: 1.0;"/><line style="stroke: #A80036; stroke-width: 1.5;" x1="393.6875" x2="393.6875" y1="158.8906" y2="178.8906"/><polygon fill="#A80036" points="389.6875,168.8906,393.6875,178.8906,397.6875,168.8906,393.6875,172.8906" style="stroke: #A80036; stroke-width: 1.0;"/><line style="stroke: #A80036; stroke-width: 1.5;" x1="132" x2="132" y1="300.8281" y2="320.8281"/><polygon fill="#A80036" points="128,310.8281,132,320.8281,136,310.8281,132,314.8281" style="stroke: #A80036; stroke-width: 1.0;"/><line style="stroke: #A80036; stroke-width: 1.5;" x1="132" x2="132" y1="354.7969" y2="389.7969"/><polygon fill="#A80036" points="128,379.7969,132,389.7969,136,379.7969,132,383.7969" style="stroke: #A80036; stroke-width: 1.0;"/><line style="stroke: #A80036; stroke-width: 1.5;" x1="419.5" x2="419.5" y1="388.7969" y2="423.7969"/><polygon fill="#A80036" points="415.5,413.7969,419.5,423.7969,423.5,413.7969,419.5,417.7969" style="stroke: #A80036; stroke-width: 1.0;"/><line style="stroke: #A80036; stroke-width: 1.5;" x1="727.625" x2="727.625" y1="422.7969" y2="457.7969"/><polygon fill="#A80036" points="723.625,447.7969,727.625,457.7969,731.625,447.7969,727.625,451.7969" style="stroke: #A80036; stroke-width: 1.0;"/><line style="stroke: #A80036; stroke-width: 1.5;" x1="840.375" x2="727.625" y1="366.8281" y2="366.8281"/><line style="stroke: #A80036; stroke-width: 1.5;" x1="727.625" x2="727.625" y1="366.8281" y2="388.8281"/><polygon fill="#A80036" points="723.625,378.8281,727.625,388.8281,731.625,378.8281,727.625,382.8281" style="stroke: #A80036; stroke-width: 1.0;"/><line style="stroke: #A80036; stroke-width: 1.5;" x1="939.375" x2="1052.125" y1="366.8281" y2="366.8281"/><line style="stroke: #A80036; stroke-width: 1.5;" x1="1052.125" x2="1052.125" y1="366.8281" y2="388.8281"/><polygon fill="#A80036" points="1048.125,378.8281,1052.125,388.8281,1056.125,378.8281,1052.125,382.8281" style="stroke: #A80036; stroke-width: 1.0;"/><line style="stroke: #A80036; stroke-width: 1.5;" x1="727.625" x2="727.625" y1="491.7656" y2="509.7656"/><line style="stroke: #A80036; stroke-width: 1.5;" x1="727.625" x2="877.875" y1="509.7656" y2="509.7656"/><polygon fill="#A80036" points="867.875,505.7656,877.875,509.7656,867.875,513.7656,871.875,509.7656" style="stroke: #A80036; stroke-width: 1.0;"/><line style="stroke: #A80036; stroke-width: 1.5;" x1="1052.125" x2="1052.125" y1="422.7969" y2="509.7656"/><line style="stroke: #A80036; stroke-width: 1.5;" x1="1052.125" x2="901.875" y1="509.7656" y2="509.7656"/><polygon fill="#A80036" points="911.875,505.7656,901.875,509.7656,911.875,513.7656,907.875,509.7656" style="stroke: #A80036; stroke-width: 1.0;"/><line style="stroke: #A80036; stroke-width: 1.5;" x1="614" x2="419.5" y1="332.8281" y2="332.8281"/><line style="stroke: #A80036; stroke-width: 1.5;" x1="419.5" x2="419.5" y1="332.8281" y2="354.8281"/><polygon fill="#A80036" points="415.5,344.8281,419.5,354.8281,423.5,344.8281,419.5,348.8281" style="stroke: #A80036; stroke-width: 1.0;"/><line style="stroke: #A80036; stroke-width: 1.5;" x1="694" x2="889.875" y1="332.8281" y2="332.8281"/><line style="stroke: #A80036; stroke-width: 1.5;" x1="889.875" x2="889.875" y1="332.8281" y2="354.8281"/><polygon fill="#A80036" points="885.875,344.8281,889.875,354.8281,893.875,344.8281,889.875,348.8281" style="stroke: #A80036; stroke-width: 1.0;"/><line style="stroke: #A80036; stroke-width: 1.5;" x1="419.5" x2="419.5" y1="457.7656" y2="539.7656"/><line style="stroke: #A80036; stroke-width: 1.5;" x1="419.5" x2="642" y1="539.7656" y2="539.7656"/><polygon fill="#A80036" points="632,535.7656,642,539.7656,632,543.7656,636,539.7656" style="stroke: #A80036; stroke-width: 1.0;"/><line style="stroke: #A80036; stroke-width: 1.5;" x1="889.875" x2="889.875" y1="521.7656" y2="539.7656"/><line style="stroke: #A80036; stroke-width: 1.5;" x1="889.875" x2="666" y1="539.7656" y2="539.7656"/><polygon fill="#A80036" points="676,535.7656,666,539.7656,676,543.7656,672,539.7656" style="stroke: #A80036; stroke-width: 1.0;"/><line style="stroke: #A80036; stroke-width: 1.5;" x1="654" x2="654" y1="300.8281" y2="320.8281"/><polygon fill="#A80036" points="650,310.8281,654,320.8281,658,310.8281,654,314.8281" style="stroke: #A80036; stroke-width: 1.0;"/><line style="stroke: #A80036; stroke-width: 1.5;" x1="352.6875" x2="132" y1="244.8594" y2="244.8594"/><line style="stroke: #A80036; stroke-width: 1.5;" x1="132" x2="132" y1="244.8594" y2="266.8594"/><polygon fill="#A80036" points="128,256.8594,132,266.8594,136,256.8594,132,260.8594" style="stroke: #A80036; stroke-width: 1.0;"/><line style="stroke: #A80036; stroke-width: 1.5;" x1="434.6875" x2="654" y1="244.8594" y2="244.8594"/><line style="stroke: #A80036; stroke-width: 1.5;" x1="654" x2="654" y1="244.8594" y2="266.8594"/><polygon fill="#A80036" points="650,256.8594,654,266.8594,658,256.8594,654,260.8594" style="stroke: #A80036; stroke-width: 1.0;"/><line style="stroke: #A80036; stroke-width: 1.5;" x1="132" x2="132" y1="423.7656" y2="569.7656"/><line style="stroke: #A80036; stroke-width: 1.5;" x1="132" x2="381.6875" y1="569.7656" y2="569.7656"/><polygon fill="#A80036" points="371.6875,565.7656,381.6875,569.7656,371.6875,573.7656,375.6875,569.7656" style="stroke: #A80036; stroke-width: 1.0;"/><line style="stroke: #A80036; stroke-width: 1.5;" x1="654" x2="654" y1="551.7656" y2="569.7656"/><line style="stroke: #A80036; stroke-width: 1.5;" x1="654" x2="405.6875" y1="569.7656" y2="569.7656"/><polygon fill="#A80036" points="415.6875,565.7656,405.6875,569.7656,415.6875,573.7656,411.6875,569.7656" style="stroke: #A80036; stroke-width: 1.0;"/><line style="stroke: #A80036; stroke-width: 1.5;" x1="393.6875" x2="393.6875" y1="212.8594" y2="232.8594"/><polygon fill="#A80036" points="389.6875,222.8594,393.6875,232.8594,397.6875,222.8594,393.6875,226.8594" style="stroke: #A80036; stroke-width: 1.0;"/><line style="stroke: #A80036; stroke-width: 1.5;" x1="393.6875" x2="393.6875" y1="581.7656" y2="601.7656"/><polygon fill="#A80036" points="389.6875,591.7656,393.6875,601.7656,397.6875,591.7656,393.6875,595.7656" style="stroke: #A80036; stroke-width: 1.0;"/><line style="stroke: #A80036; stroke-width: 1.5;" x1="393.6875" x2="393.6875" y1="635.7344" y2="655.7344"/><polygon fill="#A80036" points="389.6875,645.7344,393.6875,655.7344,397.6875,645.7344,393.6875,649.7344" style="stroke: #A80036; stroke-width: 1.0;"/><!--MD5=[08b0c3259a73be8cf75b2166668f2542]
@startuml
skinparam backgroundColor #FFFFFF
skinparam shadowing false
skinparam roundcorner 12
title Обработка ошибок upstream (Queue API + Events)
start
:Получение update из Telegram;
:Определение филиала и системы очереди;
:Вызов Queue API;
if (HTTP 2xx?) then (да)
  :Разбор данных талона;
  :Привязка талона к чату;
  :Ответ клиенту с номером талона;
else (нет)
  :Классификация ошибки;
  if (Auth/403?) then (да)
    :Логирование безопасного контекста;
    :Ответ: интеграция недоступна;
  else (нет)
    if (Timeout/5xx?) then (да)
      :Логирование временного сбоя upstream;
      :Ответ: временная ошибка;
    else (валидация)
      :Подсказка по корректировке филиала/услуги;
    endif
  endif
endif
:Продолжение polling событий (CometD/Kafka);
stop
@enduml

PlantUML version 1.2020.02(Sun Mar 01 10:22:07 UTC 2020)
(GPL source distribution)
Java Runtime: OpenJDK Runtime Environment
JVM: OpenJDK 64-Bit Server VM
Java Version: 21.0.2+13-58
Operating System: Linux
Default Encoding: UTF-8
Language: en
Country: null
--></g></svg>