<svg xmlns="http://www.w3.org/2000/svg" xmlns:xlink="http://www.w3.org/1999/xlink" contentStyleType="text/css" data-diagram-type="ACTIVITY" height="773px" preserveAspectRatio="none" style="width:1240px;height:773px;background:#FFFFFF;" version="1.1" viewBox="0 0 1240 773" width="1240px" zoomAndPan="magnify"><?plantuml 1.2026.3?><defs/><g><g class="title" data-source-line="4"><text fill="#000000" font-family="sans-serif" font-size="14" font-weight="700" lengthAdjust="spacing" textLength="480.7031" x="379.1146" y="32.9951">&#1054;&#1073;&#1088;&#1072;&#1073;&#1086;&#1090;&#1082;&#1072; &#1086;&#1096;&#1080;&#1073;&#1086;&#1082; &#1074;&#1085;&#1077;&#1096;&#1085;&#1080;&#1093; &#1089;&#1080;&#1089;&#1090;&#1077;&#1084; (Queue API + &#1089;&#1086;&#1073;&#1099;&#1090;&#1080;&#1103;)</text></g><ellipse cx="392.2242" cy="62.2969" fill="#222222" rx="10" ry="10" style="stroke:#222222;stroke-width:1;"/><rect fill="#F1F1F1" height="33.9688" rx="6" ry="6" style="stroke:#181818;stroke-width:0.5;" width="213.5645" x="285.442" y="92.2969"/><text fill="#000000" font-family="sans-serif" font-size="12" lengthAdjust="spacing" textLength="193.5645" x="295.442" y="113.4355">&#1055;&#1086;&#1083;&#1091;&#1095;&#1077;&#1085;&#1080;&#1077; update &#1080;&#1079; Telegram</text><rect fill="#F1F1F1" height="33.9688" rx="6" ry="6" style="stroke:#181818;stroke-width:0.5;" width="291.8164" x="246.316" y="146.2656"/><text fill="#000000" font-family="sans-serif" font-size="12" lengthAdjust="spacing" textLength="271.8164" x="256.316" y="167.4043">&#1054;&#1087;&#1088;&#1077;&#1076;&#1077;&#1083;&#1077;&#1085;&#1080;&#1077; &#1092;&#1080;&#1083;&#1080;&#1072;&#1083;&#1072; &#1080; &#1089;&#1080;&#1089;&#1090;&#1077;&#1084;&#1099; &#1086;&#1095;&#1077;&#1088;&#1077;&#1076;&#1080;</text><rect fill="#F1F1F1" height="33.9688" rx="6" ry="6" style="stroke:#181818;stroke-width:0.5;" width="298.1211" x="243.1637" y="200.2344"/><text fill="#000000" font-family="sans-serif" font-size="12" lengthAdjust="spacing" textLength="278.1211" x="253.1637" y="221.373">&#1054;&#1087;&#1088;&#1086;&#1089; (&#1042;&#1086;&#1087;&#1088;&#1086;&#1089;1/&#1054;&#1090;&#1074;&#1077;&#1090;1 ... &#1042;&#1086;&#1087;&#1088;&#1086;&#1089;N/&#1054;&#1090;&#1074;&#1077;&#1090;N)</text><rect fill="#F1F1F1" height="33.9688" rx="6" ry="6" style="stroke:#181818;stroke-width:0.5;" width="124.5371" x="329.9557" y="254.2031"/><text fill="#000000" font-family="sans-serif" font-size="12" lengthAdjust="spacing" textLength="104.5371" x="339.9557" y="275.3418">&#1042;&#1099;&#1079;&#1086;&#1074; Queue API</text><polygon fill="#F1F1F1" points="363.3761,308.1719,421.0724,308.1719,433.0724,320.1719,421.0724,332.1719,363.3761,332.1719,351.3761,320.1719,363.3761,308.1719" style="stroke:#181818;stroke-width:0.5;"/><text fill="#000000" font-family="sans-serif" font-size="11" lengthAdjust="spacing" textLength="57.6963" x="363.3761" y="323.98">HTTP 2xx?</text><text fill="#000000" font-family="sans-serif" font-size="11" lengthAdjust="spacing" textLength="14.3462" x="337.0299" y="317.5776">&#1076;&#1072;</text><text fill="#000000" font-family="sans-serif" font-size="11" lengthAdjust="spacing" textLength="20.3672" x="433.0724" y="317.5776">&#1085;&#1077;&#1090;</text><rect fill="#F1F1F1" height="33.9688" rx="6" ry="6" style="stroke:#181818;stroke-width:0.5;" width="163.4316" x="50.2656" y="342.1719"/><text fill="#000000" font-family="sans-serif" font-size="12" lengthAdjust="spacing" textLength="143.4316" x="60.2656" y="363.3105">&#1056;&#1072;&#1079;&#1073;&#1086;&#1088; &#1076;&#1072;&#1085;&#1085;&#1099;&#1093; &#1090;&#1072;&#1083;&#1086;&#1085;&#1072;</text><rect fill="#F1F1F1" height="33.9688" rx="6" ry="6" style="stroke:#181818;stroke-width:0.5;" width="171.4941" x="46.2344" y="396.1406"/><text fill="#000000" font-family="sans-serif" font-size="12" lengthAdjust="spacing" textLength="151.4941" x="56.2344" y="417.2793">&#1055;&#1088;&#1080;&#1074;&#1103;&#1079;&#1082;&#1072; &#1090;&#1072;&#1083;&#1086;&#1085;&#1072; &#1082; &#1095;&#1072;&#1090;&#1091;</text><rect fill="#F1F1F1" height="33.9688" rx="6" ry="6" style="stroke:#181818;stroke-width:0.5;" width="231.9629" x="16" y="465.1094"/><text fill="#000000" font-family="sans-serif" font-size="12" lengthAdjust="spacing" textLength="211.9629" x="26" y="486.248">&#1054;&#1090;&#1074;&#1077;&#1090; &#1082;&#1083;&#1080;&#1077;&#1085;&#1090;&#1091; &#1089; &#1085;&#1086;&#1084;&#1077;&#1088;&#1086;&#1084; &#1090;&#1072;&#1083;&#1086;&#1085;&#1072;</text><rect fill="#F1F1F1" height="33.9688" rx="6" ry="6" style="stroke:#181818;stroke-width:0.5;" width="172.7656" x="560.4188" y="342.1719"/><text fill="#000000" font-family="sans-serif" font-size="12" lengthAdjust="spacing" textLength="152.7656" x="570.4188" y="363.3105">&#1050;&#1083;&#1072;&#1089;&#1089;&#1080;&#1092;&#1080;&#1082;&#1072;&#1094;&#1080;&#1103; &#1086;&#1096;&#1080;&#1073;&#1082;&#1080;</text><polygon fill="#F1F1F1" points="593.9716,396.1406,699.6317,396.1406,711.6317,408.1406,699.6317,420.1406,593.9716,420.1406,581.9716,408.1406,593.9716,396.1406" style="stroke:#181818;stroke-width:0.5;"/><text fill="#000000" font-family="sans-serif" font-size="11" lengthAdjust="spacing" textLength="105.6602" x="593.9716" y="411.9487">&#1040;&#1074;&#1090;&#1086;&#1088;&#1080;&#1079;&#1072;&#1094;&#1080;&#1103;/403?</text><text fill="#000000" font-family="sans-serif" font-size="11" lengthAdjust="spacing" textLength="14.3462" x="567.6254" y="405.5464">&#1076;&#1072;</text><text fill="#000000" font-family="sans-serif" font-size="11" lengthAdjust="spacing" textLength="20.3672" x="711.6317" y="405.5464">&#1085;&#1077;&#1090;</text><rect fill="#F1F1F1" height="33.9688" rx="6" ry="6" style="stroke:#181818;stroke-width:0.5;" width="254.6445" x="277.9629" y="430.1406"/><text fill="#000000" font-family="sans-serif" font-size="12" lengthAdjust="spacing" textLength="234.6445" x="287.9629" y="451.2793">&#1051;&#1086;&#1075;&#1080;&#1088;&#1086;&#1074;&#1072;&#1085;&#1080;&#1077; &#1073;&#1077;&#1079;&#1086;&#1087;&#1072;&#1089;&#1085;&#1086;&#1075;&#1086; &#1082;&#1086;&#1085;&#1090;&#1077;&#1082;&#1089;&#1090;&#1072;</text><rect fill="#F1F1F1" height="33.9688" rx="6" ry="6" style="stroke:#181818;stroke-width:0.5;" width="218.6328" x="295.9688" y="499.1094"/><text fill="#000000" font-family="sans-serif" font-size="12" lengthAdjust="spacing" textLength="198.6328" x="305.9688" y="520.248">&#1054;&#1090;&#1074;&#1077;&#1090;: &#1080;&#1085;&#1090;&#1077;&#1075;&#1088;&#1072;&#1094;&#1080;&#1103; &#1085;&#1077;&#1076;&#1086;&#1089;&#1090;&#1091;&#1087;&#1085;&#1072;</text><polygon fill="#F1F1F1" points="854.9196,430.1406,933.0475,430.1406,945.0475,442.1406,933.0475,454.1406,854.9196,454.1406,842.9196,442.1406,854.9196,430.1406" style="stroke:#181818;stroke-width:0.5;"/><text fill="#000000" font-family="sans-serif" font-size="11" lengthAdjust="spacing" textLength="78.1279" x="854.9196" y="445.9487">&#1058;&#1072;&#1081;&#1084;&#1072;&#1091;&#1090;/5xx?</text><text fill="#000000" font-family="sans-serif" font-size="11" lengthAdjust="spacing" textLength="14.3462" x="828.5734" y="439.5464">&#1076;&#1072;</text><text fill="#000000" font-family="sans-serif" font-size="11" lengthAdjust="spacing" textLength="63.0029" x="945.0475" y="439.5464">&#1074;&#1072;&#1083;&#1080;&#1076;&#1072;&#1094;&#1080;&#1103;</text><rect fill="#F1F1F1" height="33.9688" rx="6" ry="6" style="stroke:#181818;stroke-width:0.5;" width="332.0879" x="556.942" y="464.1406"/><text fill="#000000" font-family="sans-serif" font-size="12" lengthAdjust="spacing" textLength="312.0879" x="566.942" y="485.2793">&#1051;&#1086;&#1075;&#1080;&#1088;&#1086;&#1074;&#1072;&#1085;&#1080;&#1077; &#1074;&#1088;&#1077;&#1084;&#1077;&#1085;&#1085;&#1086;&#1075;&#1086; &#1089;&#1073;&#1086;&#1103; &#1074;&#1085;&#1077;&#1096;&#1085;&#1077;&#1081; &#1089;&#1080;&#1089;&#1090;&#1077;&#1084;&#1099;</text><rect fill="#F1F1F1" height="33.9688" rx="6" ry="6" style="stroke:#181818;stroke-width:0.5;" width="186.4473" x="629.7623" y="533.1094"/><text fill="#000000" font-family="sans-serif" font-size="12" lengthAdjust="spacing" textLength="166.4473" x="639.7623" y="554.248">&#1054;&#1090;&#1074;&#1077;&#1090;: &#1074;&#1088;&#1077;&#1084;&#1077;&#1085;&#1085;&#1072;&#1103; &#1086;&#1096;&#1080;&#1073;&#1082;&#1072;</text><rect fill="#F1F1F1" height="33.9688" rx="6" ry="6" style="stroke:#181818;stroke-width:0.5;" width="311.9023" x="909.0299" y="464.1406"/><text fill="#000000" font-family="sans-serif" font-size="12" lengthAdjust="spacing" textLength="291.9023" x="919.0299" y="485.2793">&#1055;&#1086;&#1076;&#1089;&#1082;&#1072;&#1079;&#1082;&#1072; &#1087;&#1086; &#1082;&#1086;&#1088;&#1088;&#1077;&#1082;&#1090;&#1080;&#1088;&#1086;&#1074;&#1082;&#1077; &#1092;&#1080;&#1083;&#1080;&#1072;&#1083;&#1072;/&#1091;&#1089;&#1083;&#1091;&#1075;&#1080;</text><polygon fill="#F1F1F1" points="893.9835,573.0781,905.9835,585.0781,893.9835,597.0781,881.9835,585.0781,893.9835,573.0781" style="stroke:#181818;stroke-width:0.5;"/><polygon fill="#F1F1F1" points="646.8016,603.0781,658.8016,615.0781,646.8016,627.0781,634.8016,615.0781,646.8016,603.0781" style="stroke:#181818;stroke-width:0.5;"/><polygon fill="#F1F1F1" points="392.2242,633.0781,404.2242,645.0781,392.2242,657.0781,380.2242,645.0781,392.2242,633.0781" style="stroke:#181818;stroke-width:0.5;"/><rect fill="#F1F1F1" height="33.9688" rx="6" ry="6" style="stroke:#181818;stroke-width:0.5;" width="309.4355" x="237.5065" y="677.0781"/><text fill="#000000" font-family="sans-serif" font-size="12" lengthAdjust="spacing" textLength="289.4355" x="247.5065" y="698.2168">&#1055;&#1088;&#1086;&#1076;&#1086;&#1083;&#1078;&#1077;&#1085;&#1080;&#1077; polling &#1089;&#1086;&#1073;&#1099;&#1090;&#1080;&#1081; (CometD/Kafka)</text><ellipse cx="392.2242" cy="742.0469" fill="none" rx="11" ry="11" style="stroke:#222222;stroke-width:1;"/><ellipse cx="392.2242" cy="742.0469" fill="#222222" rx="6" ry="6" style="stroke:#222222;stroke-width:1;"/><line style="stroke:#181818;stroke-width:1;" x1="392.2242" x2="392.2242" y1="72.2969" y2="92.2969"/><polygon fill="#181818" points="388.2242,82.2969,392.2242,92.2969,396.2242,82.2969,392.2242,86.2969" style="stroke:#181818;stroke-width:1;"/><line style="stroke:#181818;stroke-width:1;" x1="392.2242" x2="392.2242" y1="126.2656" y2="146.2656"/><polygon fill="#181818" points="388.2242,136.2656,392.2242,146.2656,396.2242,136.2656,392.2242,140.2656" style="stroke:#181818;stroke-width:1;"/><line style="stroke:#181818;stroke-width:1;" x1="392.2242" x2="392.2242" y1="180.2344" y2="200.2344"/><polygon fill="#181818" points="388.2242,190.2344,392.2242,200.2344,396.2242,190.2344,392.2242,194.2344" style="stroke:#181818;stroke-width:1;"/><line style="stroke:#181818;stroke-width:1;" x1="392.2242" x2="392.2242" y1="234.2031" y2="254.2031"/><polygon fill="#181818" points="388.2242,244.2031,392.2242,254.2031,396.2242,244.2031,392.2242,248.2031" style="stroke:#181818;stroke-width:1;"/><line style="stroke:#181818;stroke-width:1;" x1="131.9814" x2="131.9814" y1="376.1406" y2="396.1406"/><polygon fill="#181818" points="127.9814,386.1406,131.9814,396.1406,135.9814,386.1406,131.9814,390.1406" style="stroke:#181818;stroke-width:1;"/><line style="stroke:#181818;stroke-width:1;" x1="131.9814" x2="131.9814" y1="430.1094" y2="465.1094"/><polygon fill="#181818" points="127.9814,455.1094,131.9814,465.1094,135.9814,455.1094,131.9814,459.1094" style="stroke:#181818;stroke-width:1;"/><line style="stroke:#181818;stroke-width:1;" x1="405.2852" x2="405.2852" y1="464.1094" y2="499.1094"/><polygon fill="#181818" points="401.2852,489.1094,405.2852,499.1094,409.2852,489.1094,405.2852,493.1094" style="stroke:#181818;stroke-width:1;"/><line style="stroke:#181818;stroke-width:1;" x1="722.986" x2="722.986" y1="498.1094" y2="533.1094"/><polygon fill="#181818" points="718.986,523.1094,722.986,533.1094,726.986,523.1094,722.986,527.1094" style="stroke:#181818;stroke-width:1;"/><line style="stroke:#181818;stroke-width:1;" x1="842.9196" x2="722.986" y1="442.1406" y2="442.1406"/><line style="stroke:#181818;stroke-width:1;" x1="722.986" x2="722.986" y1="442.1406" y2="464.1406"/><polygon fill="#181818" points="718.986,454.1406,722.986,464.1406,726.986,454.1406,722.986,458.1406" style="stroke:#181818;stroke-width:1;"/><line style="stroke:#181818;stroke-width:1;" x1="945.0475" x2="1064.9811" y1="442.1406" y2="442.1406"/><line style="stroke:#181818;stroke-width:1;" x1="1064.9811" x2="1064.9811" y1="442.1406" y2="464.1406"/><polygon fill="#181818" points="1060.9811,454.1406,1064.9811,464.1406,1068.9811,454.1406,1064.9811,458.1406" style="stroke:#181818;stroke-width:1;"/><line style="stroke:#181818;stroke-width:1;" x1="722.986" x2="722.986" y1="567.0781" y2="585.0781"/><line style="stroke:#181818;stroke-width:1;" x1="722.986" x2="881.9835" y1="585.0781" y2="585.0781"/><polygon fill="#181818" points="871.9835,581.0781,881.9835,585.0781,871.9835,589.0781,875.9835,585.0781" style="stroke:#181818;stroke-width:1;"/><line style="stroke:#181818;stroke-width:1;" x1="1064.9811" x2="1064.9811" y1="498.1094" y2="585.0781"/><line style="stroke:#181818;stroke-width:1;" x1="1064.9811" x2="905.9835" y1="585.0781" y2="585.0781"/><polygon fill="#181818" points="915.9835,581.0781,905.9835,585.0781,915.9835,589.0781,911.9835,585.0781" style="stroke:#181818;stroke-width:1;"/><line style="stroke:#181818;stroke-width:1;" x1="581.9716" x2="405.2852" y1="408.1406" y2="408.1406"/><line style="stroke:#181818;stroke-width:1;" x1="405.2852" x2="405.2852" y1="408.1406" y2="430.1406"/><polygon fill="#181818" points="401.2852,420.1406,405.2852,430.1406,409.2852,420.1406,405.2852,424.1406" style="stroke:#181818;stroke-width:1;"/><line style="stroke:#181818;stroke-width:1;" x1="711.6317" x2="893.9835" y1="408.1406" y2="408.1406"/><line style="stroke:#181818;stroke-width:1;" x1="893.9835" x2="893.9835" y1="408.1406" y2="430.1406"/><polygon fill="#181818" points="889.9835,420.1406,893.9835,430.1406,897.9835,420.1406,893.9835,424.1406" style="stroke:#181818;stroke-width:1;"/><line style="stroke:#181818;stroke-width:1;" x1="405.2852" x2="405.2852" y1="533.0781" y2="615.0781"/><line style="stroke:#181818;stroke-width:1;" x1="405.2852" x2="634.8016" y1="615.0781" y2="615.0781"/><polygon fill="#181818" points="624.8016,611.0781,634.8016,615.0781,624.8016,619.0781,628.8016,615.0781" style="stroke:#181818;stroke-width:1;"/><line style="stroke:#181818;stroke-width:1;" x1="893.9835" x2="893.9835" y1="597.0781" y2="615.0781"/><line style="stroke:#181818;stroke-width:1;" x1="893.9835" x2="658.8016" y1="615.0781" y2="615.0781"/><polygon fill="#181818" points="668.8016,611.0781,658.8016,615.0781,668.8016,619.0781,664.8016,615.0781" style="stroke:#181818;stroke-width:1;"/><line style="stroke:#181818;stroke-width:1;" x1="646.8016" x2="646.8016" y1="376.1406" y2="396.1406"/><polygon fill="#181818" points="642.8016,386.1406,646.8016,396.1406,650.8016,386.1406,646.8016,390.1406" style="stroke:#181818;stroke-width:1;"/><line style="stroke:#181818;stroke-width:1;" x1="351.3761" x2="131.9814" y1="320.1719" y2="320.1719"/><line style="stroke:#181818;stroke-width:1;" x1="131.9814" x2="131.9814" y1="320.1719" y2="342.1719"/><polygon fill="#181818" points="127.9814,332.1719,131.9814,342.1719,135.9814,332.1719,131.9814,336.1719" style="stroke:#181818;stroke-width:1;"/><line style="stroke:#181818;stroke-width:1;" x1="433.0724" x2="646.8016" y1="320.1719" y2="320.1719"/><line style="stroke:#181818;stroke-width:1;" x1="646.8016" x2="646.8016" y1="320.1719" y2="342.1719"/><polygon fill="#181818" points="642.8016,332.1719,646.8016,342.1719,650.8016,332.1719,646.8016,336.1719" style="stroke:#181818;stroke-width:1;"/><line style="stroke:#181818;stroke-width:1;" x1="131.9814" x2="131.9814" y1="499.0781" y2="645.0781"/><line style="stroke:#181818;stroke-width:1;" x1="131.9814" x2="380.2242" y1="645.0781" y2="645.0781"/><polygon fill="#181818" points="370.2242,641.0781,380.2242,645.0781,370.2242,649.0781,374.2242,645.0781" style="stroke:#181818;stroke-width:1;"/><line style="stroke:#181818;stroke-width:1;" x1="646.8016" x2="646.8016" y1="627.0781" y2="645.0781"/><line style="stroke:#181818;stroke-width:1;" x1="646.8016" x2="404.2242" y1="645.0781" y2="645.0781"/><polygon fill="#181818" points="414.2242,641.0781,404.2242,645.0781,414.2242,649.0781,410.2242,645.0781" style="stroke:#181818;stroke-width:1;"/><line style="stroke:#181818;stroke-width:1;" x1="392.2242" x2="392.2242" y1="288.1719" y2="308.1719"/><polygon fill="#181818" points="388.2242,298.1719,392.2242,308.1719,396.2242,298.1719,392.2242,302.1719" style="stroke:#181818;stroke-width:1;"/><line style="stroke:#181818;stroke-width:1;" x1="392.2242" x2="392.2242" y1="657.0781" y2="677.0781"/><polygon fill="#181818" points="388.2242,667.0781,392.2242,677.0781,396.2242,667.0781,392.2242,671.0781" style="stroke:#181818;stroke-width:1;"/><line style="stroke:#181818;stroke-width:1;" x1="392.2242" x2="392.2242" y1="711.0469" y2="731.0469"/><polygon fill="#181818" points="388.2242,721.0469,392.2242,731.0469,396.2242,721.0469,392.2242,725.0469" style="stroke:#181818;stroke-width:1;"/><?plantuml-src VLJDYjfG5DxdAGvqenIqJjkDBagPKbeAmnHyWNICZkWOqKXdgR5_uC8oonQSqYV8HAsPgF4LpdsZVkScQdHAXUJgFN_Vzvrpx3RghRRPCQ_eWtdHg7NiNgjoQZVj3ZrwhJz6T-VHlJGhziTwgqPLizcrKXOTTc5tMbQ72YU6KtUQ5l64xrIVFRxZIBaSiaVuyeq3kU2GsESrpt6nva1z9ZN0CO3Zd5UKUT-pUXQzF7zBZyKI8TK8ja2DiqRNCJkEKUHRN2_LK7r527Bmd7hjYkcWSi0BAbjDgmPm9NXEU0CaSvxXMUwyrISSIpmUtW0N761G8u6Bt4bai4yKgG5b-0Rbar-5F4yGvSFPBL0kbwEqzInbFSjAcXiruWKSVDhnB1drAcNUbCldT79z_I9BpgNLGfKPUrc3gCY_07EXjUoJt8B46ff0E5SJY73XbRJhBUe6xAin0aJsj0T1UR3obAk6iVSE6qnQ3kWZLgX1Y8XufJN0ULJAmX00eJJHZJ7-424XeCWeugAu-Y9DstS-5269X2n_1qPN24d3jgxvPq-UFg0loN-YxXGU0iNN_AM9I3dNMcwaiiOxvKYeH483nb1tL4jpGBSeSnAxJ6LEjqZNkjsHHAaXqYQo7hDDEFm6adj8v64GtVppVxJkl-XzFLqhFPDRxA0XRHwdDsJEzqVJMTgbJZCwpESTAfzea33nTIy3WHbJtuELpPgXNAXdJc_k9X5LzNM5K2zZJ2Pyi4jvY36GtHJAIT5MfLurjcVyZYSr4hKHzMUtc6sxsPI_cVJYWt_crBwod5VvTsQrOMAFkexT_Wi0?></g></svg>