<?xml version="1.0" encoding="UTF-8" standalone="no"?><svg xmlns="http://www.w3.org/2000/svg" xmlns:xlink="http://www.w3.org/1999/xlink" contentScriptType="application/ecmascript" contentStyleType="text/css" height="573px" preserveAspectRatio="none" style="width:523px;height:573px;" version="1.1" viewBox="0 0 523 573" width="523px" zoomAndPan="magnify"><defs/><g><text fill="#000000" font-family="sans-serif" font-size="18" lengthAdjust="spacingAndGlyphs" textLength="499" x="12" y="26.708">Integration flow: bootstrapping, dialog and visit creation</text><ellipse cx="265.75" cy="40.9531" fill="#000000" rx="10" ry="10" style="stroke: none; stroke-width: 1.0;"/><rect fill="#F8FAFC" height="47.9375" rx="12.5" ry="12.5" style="stroke: #2B6CB0; stroke-width: 1.5;" width="163" x="184.25" y="70.9531"/><text fill="#000000" font-family="sans-serif" font-size="12" lengthAdjust="spacingAndGlyphs" textLength="117" x="194.25" y="92.0918">Load configuration</text><text fill="#000000" font-family="sans-serif" font-size="12" lengthAdjust="spacingAndGlyphs" textLength="143" x="194.25" y="106.0605">(env + application.yml)</text><rect fill="#F8FAFC" height="47.9375" rx="12.5" ry="12.5" style="stroke: #2B6CB0; stroke-width: 1.5;" width="151" x="190.25" y="138.8906"/><text fill="#000000" font-family="sans-serif" font-size="12" lengthAdjust="spacingAndGlyphs" textLength="109" x="200.25" y="160.0293">Build branch map</text><text fill="#000000" font-family="sans-serif" font-size="12" lengthAdjust="spacingAndGlyphs" textLength="131" x="200.25" y="173.998">with queue providers</text><polygon fill="#EBF8FF" points="221.75,206.8281,309.75,206.8281,321.75,218.8281,309.75,230.8281,221.75,230.8281,209.75,218.8281,221.75,206.8281" style="stroke: #2B6CB0; stroke-width: 1.5;"/><text fill="#000000" font-family="sans-serif" font-size="11" lengthAdjust="spacingAndGlyphs" textLength="88" x="221.75" y="222.6362">Queue provider</text><text fill="#000000" font-family="sans-serif" font-size="11" lengthAdjust="spacingAndGlyphs" textLength="57" x="152.75" y="216.2339">Orchestra</text><text fill="#000000" font-family="sans-serif" font-size="11" lengthAdjust="spacingAndGlyphs" textLength="41" x="321.75" y="216.2339">Axioma</text><rect fill="#F8FAFC" height="33.9688" rx="12.5" ry="12.5" style="stroke: #2B6CB0; stroke-width: 1.5;" width="146" x="113.5" y="240.8281"/><text fill="#000000" font-family="sans-serif" font-size="12" lengthAdjust="spacingAndGlyphs" textLength="126" x="123.5" y="261.9668">Use REST + CometD</text><rect fill="#F8FAFC" height="33.9688" rx="12.5" ry="12.5" style="stroke: #2B6CB0; stroke-width: 1.5;" width="131" x="279.5" y="240.8281"/><text fill="#000000" font-family="sans-serif" font-size="12" lengthAdjust="spacingAndGlyphs" textLength="111" x="289.5" y="261.9668">Use REST + Kafka</text><polygon fill="#EBF8FF" points="265.75,280.7969,277.75,292.7969,265.75,304.7969,253.75,292.7969,265.75,280.7969" style="stroke: #2B6CB0; stroke-width: 1.5;"/><rect fill="#F8FAFC" height="33.9688" rx="12.5" ry="12.5" style="stroke: #2B6CB0; stroke-width: 1.5;" width="179" x="176.25" y="324.7969"/><text fill="#000000" font-family="sans-serif" font-size="12" lengthAdjust="spacingAndGlyphs" textLength="159" x="186.25" y="345.9355">Receive Telegram update</text><rect fill="#F8FAFC" height="33.9688" rx="12.5" ry="12.5" style="stroke: #2B6CB0; stroke-width: 1.5;" width="192" x="169.75" y="378.7656"/><text fill="#000000" font-family="sans-serif" font-size="12" lengthAdjust="spacingAndGlyphs" textLength="172" x="179.75" y="399.9043">Resolve branch and service</text><rect fill="#F8FAFC" height="33.9688" rx="12.5" ry="12.5" style="stroke: #2B6CB0; stroke-width: 1.5;" width="183" x="174.25" y="432.7344"/><text fill="#000000" font-family="sans-serif" font-size="12" lengthAdjust="spacingAndGlyphs" textLength="163" x="184.25" y="453.873">Create visit in provider API</text><rect fill="#F8FAFC" height="33.9688" rx="12.5" ry="12.5" style="stroke: #2B6CB0; stroke-width: 1.5;" width="187" x="172.25" y="486.7031"/><text fill="#000000" font-family="sans-serif" font-size="12" lengthAdjust="spacingAndGlyphs" textLength="167" x="182.25" y="507.8418">Bind ticket to chat/session</text><ellipse cx="265.75" cy="551.6719" fill="#FFFFFF" rx="11" ry="11" style="stroke: #000000; stroke-width: 1.0;"/><ellipse cx="265.75" cy="551.6719" fill="#000000" rx="6" ry="6" style="stroke: #7F7F7F; stroke-width: 1.0;"/><line style="stroke: #2B6CB0; stroke-width: 1.5;" x1="265.75" x2="265.75" y1="50.9531" y2="70.9531"/><polygon fill="#2B6CB0" points="261.75,60.9531,265.75,70.9531,269.75,60.9531,265.75,64.9531" style="stroke: #2B6CB0; stroke-width: 1.0;"/><line style="stroke: #2B6CB0; stroke-width: 1.5;" x1="265.75" x2="265.75" y1="118.8906" y2="138.8906"/><polygon fill="#2B6CB0" points="261.75,128.8906,265.75,138.8906,269.75,128.8906,265.75,132.8906" style="stroke: #2B6CB0; stroke-width: 1.0;"/><line style="stroke: #2B6CB0; stroke-width: 1.5;" x1="209.75" x2="186.5" y1="218.8281" y2="218.8281"/><line style="stroke: #2B6CB0; stroke-width: 1.5;" x1="186.5" x2="186.5" y1="218.8281" y2="240.8281"/><polygon fill="#2B6CB0" points="182.5,230.8281,186.5,240.8281,190.5,230.8281,186.5,234.8281" style="stroke: #2B6CB0; stroke-width: 1.0;"/><line style="stroke: #2B6CB0; stroke-width: 1.5;" x1="321.75" x2="345" y1="218.8281" y2="218.8281"/><line style="stroke: #2B6CB0; stroke-width: 1.5;" x1="345" x2="345" y1="218.8281" y2="240.8281"/><polygon fill="#2B6CB0" points="341,230.8281,345,240.8281,349,230.8281,345,234.8281" style="stroke: #2B6CB0; stroke-width: 1.0;"/><line style="stroke: #2B6CB0; stroke-width: 1.5;" x1="186.5" x2="186.5" y1="274.7969" y2="292.7969"/><line style="stroke: #2B6CB0; stroke-width: 1.5;" x1="186.5" x2="253.75" y1="292.7969" y2="292.7969"/><polygon fill="#2B6CB0" points="243.75,288.7969,253.75,292.7969,243.75,296.7969,247.75,292.7969" style="stroke: #2B6CB0; stroke-width: 1.0;"/><line style="stroke: #2B6CB0; stroke-width: 1.5;" x1="345" x2="345" y1="274.7969" y2="292.7969"/><line style="stroke: #2B6CB0; stroke-width: 1.5;" x1="345" x2="277.75" y1="292.7969" y2="292.7969"/><polygon fill="#2B6CB0" points="287.75,288.7969,277.75,292.7969,287.75,296.7969,283.75,292.7969" style="stroke: #2B6CB0; stroke-width: 1.0;"/><line style="stroke: #2B6CB0; stroke-width: 1.5;" x1="265.75" x2="265.75" y1="186.8281" y2="206.8281"/><polygon fill="#2B6CB0" points="261.75,196.8281,265.75,206.8281,269.75,196.8281,265.75,200.8281" style="stroke: #2B6CB0; stroke-width: 1.0;"/><line style="stroke: #2B6CB0; stroke-width: 1.5;" x1="265.75" x2="265.75" y1="304.7969" y2="324.7969"/><polygon fill="#2B6CB0" points="261.75,314.7969,265.75,324.7969,269.75,314.7969,265.75,318.7969" style="stroke: #2B6CB0; stroke-width: 1.0;"/><line style="stroke: #2B6CB0; stroke-width: 1.5;" x1="265.75" x2="265.75" y1="358.7656" y2="378.7656"/><polygon fill="#2B6CB0" points="261.75,368.7656,265.75,378.7656,269.75,368.7656,265.75,372.7656" style="stroke: #2B6CB0; stroke-width: 1.0;"/><line style="stroke: #2B6CB0; stroke-width: 1.5;" x1="265.75" x2="265.75" y1="412.7344" y2="432.7344"/><polygon fill="#2B6CB0" points="261.75,422.7344,265.75,432.7344,269.75,422.7344,265.75,426.7344" style="stroke: #2B6CB0; stroke-width: 1.0;"/><line style="stroke: #2B6CB0; stroke-width: 1.5;" x1="265.75" x2="265.75" y1="466.7031" y2="486.7031"/><polygon fill="#2B6CB0" points="261.75,476.7031,265.75,486.7031,269.75,476.7031,265.75,480.7031" style="stroke: #2B6CB0; stroke-width: 1.0;"/><line style="stroke: #2B6CB0; stroke-width: 1.5;" x1="265.75" x2="265.75" y1="520.6719" y2="540.6719"/><polygon fill="#2B6CB0" points="261.75,530.6719,265.75,540.6719,269.75,530.6719,265.75,534.6719" style="stroke: #2B6CB0; stroke-width: 1.0;"/><!--MD5=[f703adaba0d799b21a95ce19c4d7928b]
@startuml
title Integration flow: bootstrapping, dialog and visit creation
skinparam backgroundColor #FFFFFF
skinparam shadowing false
skinparam roundcorner 14
skinparam activity {
  BackgroundColor #F8FAFC
  BorderColor #2B6CB0
  ArrowColor #2B6CB0
  DiamondBackgroundColor #EBF8FF
  DiamondBorderColor #2B6CB0
}

start
:Load configuration\n(env + application.yml);
:Build branch map\nwith queue providers;
if (Queue provider) then (Orchestra)
  :Use REST + CometD;
else (Axioma)
  :Use REST + Kafka;
endif
:Receive Telegram update;
:Resolve branch and service;
:Create visit in provider API;
:Bind ticket to chat/session;
stop
@enduml

PlantUML version 1.2020.02(Sun Mar 01 10:22:07 UTC 2020)
(GPL source distribution)
Java Runtime: OpenJDK Runtime Environment
JVM: OpenJDK 64-Bit Server VM
Java Version: 21.0.2+13-58
Operating System: Linux
Default Encoding: UTF-8
Language: en
Country: null
--></g></svg>