<?xml version="1.0" encoding="UTF-8" standalone="no"?><svg xmlns="http://www.w3.org/2000/svg" xmlns:xlink="http://www.w3.org/1999/xlink" contentScriptType="application/ecmascript" contentStyleType="text/css" height="573px" preserveAspectRatio="none" style="width:689px;height:573px;" version="1.1" viewBox="0 0 689 573" width="689px" zoomAndPan="magnify"><defs/><g><text fill="#000000" font-family="sans-serif" font-size="18" lengthAdjust="spacingAndGlyphs" textLength="665" x="12" y="26.708">Интеграционный поток: инициализация, диалог и создание визита</text><ellipse cx="348.75" cy="40.9531" fill="#000000" rx="10" ry="10" style="stroke: none; stroke-width: 1.0;"/><rect fill="#F8FAFC" height="47.9375" rx="12.5" ry="12.5" style="stroke: #2B6CB0; stroke-width: 1.5;" width="179" x="259.25" y="70.9531"/><text fill="#000000" font-family="sans-serif" font-size="12" lengthAdjust="spacingAndGlyphs" textLength="159" x="269.25" y="92.0918">Загрузка конфигурации</text><text fill="#000000" font-family="sans-serif" font-size="12" lengthAdjust="spacingAndGlyphs" textLength="143" x="269.25" y="106.0605">(env + application.yml)</text><rect fill="#F8FAFC" height="47.9375" rx="12.5" ry="12.5" style="stroke: #2B6CB0; stroke-width: 1.5;" width="214" x="241.75" y="138.8906"/><text fill="#000000" font-family="sans-serif" font-size="12" lengthAdjust="spacingAndGlyphs" textLength="194" x="251.75" y="160.0293">Построение карты филиалов</text><text fill="#000000" font-family="sans-serif" font-size="12" lengthAdjust="spacingAndGlyphs" textLength="168" x="251.75" y="173.998">с провайдерами очереди</text><polygon fill="#EBF8FF" points="289.25,206.8281,408.25,206.8281,420.25,218.8281,408.25,230.8281,289.25,230.8281,277.25,218.8281,289.25,206.8281" style="stroke: #2B6CB0; stroke-width: 1.5;"/><text fill="#000000" font-family="sans-serif" font-size="11" lengthAdjust="spacingAndGlyphs" textLength="119" x="289.25" y="222.6362">Провайдер очереди</text><text fill="#000000" font-family="sans-serif" font-size="11" lengthAdjust="spacingAndGlyphs" textLength="57" x="220.25" y="216.2339">Orchestra</text><text fill="#000000" font-family="sans-serif" font-size="11" lengthAdjust="spacingAndGlyphs" textLength="41" x="420.25" y="216.2339">Axioma</text><rect fill="#F8FAFC" height="33.9688" rx="12.5" ry="12.5" style="stroke: #2B6CB0; stroke-width: 1.5;" width="214" x="128.5" y="240.8281"/><text fill="#000000" font-family="sans-serif" font-size="12" lengthAdjust="spacingAndGlyphs" textLength="194" x="138.5" y="261.9668">Использовать REST + CometD</text><rect fill="#F8FAFC" height="33.9688" rx="12.5" ry="12.5" style="stroke: #2B6CB0; stroke-width: 1.5;" width="199" x="362.5" y="240.8281"/><text fill="#000000" font-family="sans-serif" font-size="12" lengthAdjust="spacingAndGlyphs" textLength="179" x="372.5" y="261.9668">Использовать REST + Kafka</text><polygon fill="#EBF8FF" points="348.75,280.7969,360.75,292.7969,348.75,304.7969,336.75,292.7969,348.75,280.7969" style="stroke: #2B6CB0; stroke-width: 1.5;"/><rect fill="#F8FAFC" height="33.9688" rx="12.5" ry="12.5" style="stroke: #2B6CB0; stroke-width: 1.5;" width="211" x="243.25" y="324.7969"/><text fill="#000000" font-family="sans-serif" font-size="12" lengthAdjust="spacingAndGlyphs" textLength="191" x="253.25" y="345.9355">Получить update из Telegram</text><rect fill="#F8FAFC" height="33.9688" rx="12.5" ry="12.5" style="stroke: #2B6CB0; stroke-width: 1.5;" width="209" x="244.25" y="378.7656"/><text fill="#000000" font-family="sans-serif" font-size="12" lengthAdjust="spacingAndGlyphs" textLength="189" x="254.25" y="399.9043">Определить филиал и услугу</text><rect fill="#F8FAFC" height="33.9688" rx="12.5" ry="12.5" style="stroke: #2B6CB0; stroke-width: 1.5;" width="237" x="230.25" y="432.7344"/><text fill="#000000" font-family="sans-serif" font-size="12" lengthAdjust="spacingAndGlyphs" textLength="217" x="240.25" y="453.873">Создать визит в API провайдера</text><rect fill="#F8FAFC" height="33.9688" rx="12.5" ry="12.5" style="stroke: #2B6CB0; stroke-width: 1.5;" width="228" x="234.75" y="486.7031"/><text fill="#000000" font-family="sans-serif" font-size="12" lengthAdjust="spacingAndGlyphs" textLength="208" x="244.75" y="507.8418">Привязать талон к чату/сессии</text><ellipse cx="348.75" cy="551.6719" fill="#FFFFFF" rx="11" ry="11" style="stroke: #000000; stroke-width: 1.0;"/><ellipse cx="348.75" cy="551.6719" fill="#000000" rx="6" ry="6" style="stroke: #7F7F7F; stroke-width: 1.0;"/><line style="stroke: #2B6CB0; stroke-width: 1.5;" x1="348.75" x2="348.75" y1="50.9531" y2="70.9531"/><polygon fill="#2B6CB0" points="344.75,60.9531,348.75,70.9531,352.75,60.9531,348.75,64.9531" style="stroke: #2B6CB0; stroke-width: 1.0;"/><line style="stroke: #2B6CB0; stroke-width: 1.5;" x1="348.75" x2="348.75" y1="118.8906" y2="138.8906"/><polygon fill="#2B6CB0" points="344.75,128.8906,348.75,138.8906,352.75,128.8906,348.75,132.8906" style="stroke: #2B6CB0; stroke-width: 1.0;"/><line style="stroke: #2B6CB0; stroke-width: 1.5;" x1="277.25" x2="235.5" y1="218.8281" y2="218.8281"/><line style="stroke: #2B6CB0; stroke-width: 1.5;" x1="235.5" x2="235.5" y1="218.8281" y2="240.8281"/><polygon fill="#2B6CB0" points="231.5,230.8281,235.5,240.8281,239.5,230.8281,235.5,234.8281" style="stroke: #2B6CB0; stroke-width: 1.0;"/><line style="stroke: #2B6CB0; stroke-width: 1.5;" x1="420.25" x2="462" y1="218.8281" y2="218.8281"/><line style="stroke: #2B6CB0; stroke-width: 1.5;" x1="462" x2="462" y1="218.8281" y2="240.8281"/><polygon fill="#2B6CB0" points="458,230.8281,462,240.8281,466,230.8281,462,234.8281" style="stroke: #2B6CB0; stroke-width: 1.0;"/><line style="stroke: #2B6CB0; stroke-width: 1.5;" x1="235.5" x2="235.5" y1="274.7969" y2="292.7969"/><line style="stroke: #2B6CB0; stroke-width: 1.5;" x1="235.5" x2="336.75" y1="292.7969" y2="292.7969"/><polygon fill="#2B6CB0" points="326.75,288.7969,336.75,292.7969,326.75,296.7969,330.75,292.7969" style="stroke: #2B6CB0; stroke-width: 1.0;"/><line style="stroke: #2B6CB0; stroke-width: 1.5;" x1="462" x2="462" y1="274.7969" y2="292.7969"/><line style="stroke: #2B6CB0; stroke-width: 1.5;" x1="462" x2="360.75" y1="292.7969" y2="292.7969"/><polygon fill="#2B6CB0" points="370.75,288.7969,360.75,292.7969,370.75,296.7969,366.75,292.7969" style="stroke: #2B6CB0; stroke-width: 1.0;"/><line style="stroke: #2B6CB0; stroke-width: 1.5;" x1="348.75" x2="348.75" y1="186.8281" y2="206.8281"/><polygon fill="#2B6CB0" points="344.75,196.8281,348.75,206.8281,352.75,196.8281,348.75,200.8281" style="stroke: #2B6CB0; stroke-width: 1.0;"/><line style="stroke: #2B6CB0; stroke-width: 1.5;" x1="348.75" x2="348.75" y1="304.7969" y2="324.7969"/><polygon fill="#2B6CB0" points="344.75,314.7969,348.75,324.7969,352.75,314.7969,348.75,318.7969" style="stroke: #2B6CB0; stroke-width: 1.0;"/><line style="stroke: #2B6CB0; stroke-width: 1.5;" x1="348.75" x2="348.75" y1="358.7656" y2="378.7656"/><polygon fill="#2B6CB0" points="344.75,368.7656,348.75,378.7656,352.75,368.7656,348.75,372.7656" style="stroke: #2B6CB0; stroke-width: 1.0;"/><line style="stroke: #2B6CB0; stroke-width: 1.5;" x1="348.75" x2="348.75" y1="412.7344" y2="432.7344"/><polygon fill="#2B6CB0" points="344.75,422.7344,348.75,432.7344,352.75,422.7344,348.75,426.7344" style="stroke: #2B6CB0; stroke-width: 1.0;"/><line style="stroke: #2B6CB0; stroke-width: 1.5;" x1="348.75" x2="348.75" y1="466.7031" y2="486.7031"/><polygon fill="#2B6CB0" points="344.75,476.7031,348.75,486.7031,352.75,476.7031,348.75,480.7031" style="stroke: #2B6CB0; stroke-width: 1.0;"/><line style="stroke: #2B6CB0; stroke-width: 1.5;" x1="348.75" x2="348.75" y1="520.6719" y2="540.6719"/><polygon fill="#2B6CB0" points="344.75,530.6719,348.75,540.6719,352.75,530.6719,348.75,534.6719" style="stroke: #2B6CB0; stroke-width: 1.0;"/><!--MD5=[aedad870360d156610ea0755cd6d30f5]
@startuml
title Интеграционный поток: инициализация, диалог и создание визита
skinparam backgroundColor #FFFFFF
skinparam shadowing false
skinparam roundcorner 14
skinparam activity {
  BackgroundColor #F8FAFC
  BorderColor #2B6CB0
  ArrowColor #2B6CB0
  DiamondBackgroundColor #EBF8FF
  DiamondBorderColor #2B6CB0
}

start
:Загрузка конфигурации\n(env + application.yml);
:Построение карты филиалов\nс провайдерами очереди;
if (Провайдер очереди) then (Orchestra)
  :Использовать REST + CometD;
else (Axioma)
  :Использовать REST + Kafka;
endif
:Получить update из Telegram;
:Определить филиал и услугу;
:Создать визит в API провайдера;
:Привязать талон к чату/сессии;
stop
@enduml

PlantUML version 1.2020.02(Sun Mar 01 10:22:07 UTC 2020)
(GPL source distribution)
Java Runtime: OpenJDK Runtime Environment
JVM: OpenJDK 64-Bit Server VM
Java Version: 21.0.2+13-58
Operating System: Linux
Default Encoding: UTF-8
Language: en
Country: null
--></g></svg>