<svg xmlns="http://www.w3.org/2000/svg" xmlns:xlink="http://www.w3.org/1999/xlink" contentStyleType="text/css" data-diagram-type="ACTIVITY" height="671px" preserveAspectRatio="none" style="width:589px;height:671px;background:#FFFFFF;" version="1.1" viewBox="0 0 589 671" width="589px" zoomAndPan="magnify"><?plantuml 1.2026.3?><defs/><g><g class="title" data-source-line="1"><text fill="#000000" font-family="sans-serif" font-size="14" font-weight="700" lengthAdjust="spacing" textLength="547.3535" x="20" y="32.9951">&#1048;&#1085;&#1090;&#1077;&#1075;&#1088;&#1072;&#1094;&#1080;&#1086;&#1085;&#1085;&#1099;&#1081; &#1087;&#1086;&#1090;&#1086;&#1082;: &#1080;&#1085;&#1080;&#1094;&#1080;&#1072;&#1083;&#1080;&#1079;&#1072;&#1094;&#1080;&#1103;, &#1076;&#1080;&#1072;&#1083;&#1086;&#1075; &#1080; &#1089;&#1086;&#1079;&#1076;&#1072;&#1085;&#1080;&#1077; &#1074;&#1080;&#1079;&#1080;&#1090;&#1072;</text></g><ellipse cx="296.4238" cy="62.2969" fill="#222222" rx="10" ry="10" style="stroke:#222222;stroke-width:1;"/><rect fill="#F8FAFC" height="47.9375" rx="7" ry="7" style="stroke:#2B6CB0;stroke-width:0.5;" width="173.5039" x="209.6719" y="92.2969"/><text fill="#000000" font-family="sans-serif" font-size="12" lengthAdjust="spacing" textLength="153.5039" x="219.6719" y="113.4355">&#1047;&#1072;&#1075;&#1088;&#1091;&#1079;&#1082;&#1072; &#1082;&#1086;&#1085;&#1092;&#1080;&#1075;&#1091;&#1088;&#1072;&#1094;&#1080;&#1080;</text><text fill="#000000" font-family="sans-serif" font-size="12" lengthAdjust="spacing" textLength="141.2695" x="219.6719" y="127.4043">(env + application.yml)</text><rect fill="#F8FAFC" height="47.9375" rx="7" ry="7" style="stroke:#2B6CB0;stroke-width:0.5;" width="204.5996" x="194.124" y="160.2344"/><text fill="#000000" font-family="sans-serif" font-size="12" lengthAdjust="spacing" textLength="184.5996" x="204.124" y="181.373">&#1055;&#1086;&#1089;&#1090;&#1088;&#1086;&#1077;&#1085;&#1080;&#1077; &#1082;&#1072;&#1088;&#1090;&#1099; &#1092;&#1080;&#1083;&#1080;&#1072;&#1083;&#1086;&#1074;</text><text fill="#000000" font-family="sans-serif" font-size="12" lengthAdjust="spacing" textLength="159.668" x="204.124" y="195.3418">&#1089; &#1087;&#1088;&#1086;&#1074;&#1072;&#1081;&#1076;&#1077;&#1088;&#1072;&#1084;&#1080; &#1086;&#1095;&#1077;&#1088;&#1077;&#1076;&#1080;</text><polygon fill="#EBF8FF" points="238.5691,228.1719,354.2786,228.1719,366.2786,240.1719,354.2786,252.1719,238.5691,252.1719,226.5691,240.1719,238.5691,228.1719" style="stroke:#2B6CB0;stroke-width:0.5;"/><text fill="#000000" font-family="sans-serif" font-size="11" lengthAdjust="spacing" textLength="115.7095" x="238.5691" y="243.98">&#1055;&#1088;&#1086;&#1074;&#1072;&#1081;&#1076;&#1077;&#1088; &#1086;&#1095;&#1077;&#1088;&#1077;&#1076;&#1080;</text><text fill="#000000" font-family="sans-serif" font-size="11" lengthAdjust="spacing" textLength="54.2749" x="172.2942" y="237.5776">Orchestra</text><text fill="#000000" font-family="sans-serif" font-size="11" lengthAdjust="spacing" textLength="41.2769" x="366.2786" y="237.5776">Axioma</text><rect fill="#F8FAFC" height="33.9688" rx="7" ry="7" style="stroke:#2B6CB0;stroke-width:0.5;" width="208.8184" x="81.3525" y="262.1719"/><text fill="#000000" font-family="sans-serif" font-size="12" lengthAdjust="spacing" textLength="188.8184" x="91.3525" y="283.3105">&#1048;&#1089;&#1087;&#1086;&#1083;&#1100;&#1079;&#1086;&#1074;&#1072;&#1090;&#1100; REST + CometD</text><rect fill="#F8FAFC" height="33.9688" rx="7" ry="7" style="stroke:#2B6CB0;stroke-width:0.5;" width="193.8301" x="310.1709" y="262.1719"/><text fill="#000000" font-family="sans-serif" font-size="12" lengthAdjust="spacing" textLength="173.8301" x="320.1709" y="283.3105">&#1048;&#1089;&#1087;&#1086;&#1083;&#1100;&#1079;&#1086;&#1074;&#1072;&#1090;&#1100; REST + Kafka</text><polygon fill="#EBF8FF" points="296.4238,302.1406,308.4238,314.1406,296.4238,326.1406,284.4238,314.1406,296.4238,302.1406" style="stroke:#2B6CB0;stroke-width:0.5;"/><rect fill="#F8FAFC" height="33.9688" rx="7" ry="7" style="stroke:#2B6CB0;stroke-width:0.5;" width="205.0156" x="193.916" y="346.1406"/><text fill="#000000" font-family="sans-serif" font-size="12" lengthAdjust="spacing" textLength="185.0156" x="203.916" y="367.2793">&#1055;&#1086;&#1083;&#1091;&#1095;&#1080;&#1090;&#1100; update &#1080;&#1079; Telegram</text><rect fill="#F8FAFC" height="33.9688" rx="7" ry="7" style="stroke:#2B6CB0;stroke-width:0.5;" width="207.1719" x="192.8379" y="400.1094"/><text fill="#000000" font-family="sans-serif" font-size="12" lengthAdjust="spacing" textLength="187.1719" x="202.8379" y="421.248">&#1054;&#1087;&#1088;&#1077;&#1076;&#1077;&#1083;&#1080;&#1090;&#1100; &#1092;&#1080;&#1083;&#1080;&#1072;&#1083; &#1080; &#1091;&#1089;&#1083;&#1091;&#1075;&#1091;</text><rect fill="#F8FAFC" height="47.9375" rx="7" ry="7" style="stroke:#2B6CB0;stroke-width:0.5;" width="255.459" x="168.6943" y="454.0781"/><text fill="#000000" font-family="sans-serif" font-size="12" lengthAdjust="spacing" textLength="100.3828" x="178.6943" y="475.2168">&#1055;&#1088;&#1086;&#1074;&#1077;&#1089;&#1090;&#1080; &#1086;&#1087;&#1088;&#1086;&#1089;</text><text fill="#000000" font-family="sans-serif" font-size="12" lengthAdjust="spacing" textLength="235.459" x="178.6943" y="489.1855">(&#1042;&#1086;&#1087;&#1088;&#1086;&#1089;1/&#1054;&#1090;&#1074;&#1077;&#1090;1 ... &#1042;&#1086;&#1087;&#1088;&#1086;&#1089;N/&#1054;&#1090;&#1074;&#1077;&#1090;N)</text><rect fill="#F8FAFC" height="33.9688" rx="7" ry="7" style="stroke:#2B6CB0;stroke-width:0.5;" width="224.8496" x="183.999" y="522.0156"/><text fill="#000000" font-family="sans-serif" font-size="12" lengthAdjust="spacing" textLength="204.8496" x="193.999" y="543.1543">&#1057;&#1086;&#1079;&#1076;&#1072;&#1090;&#1100; &#1074;&#1080;&#1079;&#1080;&#1090; &#1074; API &#1087;&#1088;&#1086;&#1074;&#1072;&#1081;&#1076;&#1077;&#1088;&#1072;</text><rect fill="#F8FAFC" height="33.9688" rx="7" ry="7" style="stroke:#2B6CB0;stroke-width:0.5;" width="217.7715" x="187.5381" y="575.9844"/><text fill="#000000" font-family="sans-serif" font-size="12" lengthAdjust="spacing" textLength="197.7715" x="197.5381" y="597.123">&#1055;&#1088;&#1080;&#1074;&#1103;&#1079;&#1072;&#1090;&#1100; &#1090;&#1072;&#1083;&#1086;&#1085; &#1082; &#1095;&#1072;&#1090;&#1091;/&#1089;&#1077;&#1089;&#1089;&#1080;&#1080;</text><ellipse cx="296.4238" cy="640.9531" fill="none" rx="11" ry="11" style="stroke:#222222;stroke-width:1;"/><ellipse cx="296.4238" cy="640.9531" fill="#222222" rx="6" ry="6" style="stroke:#222222;stroke-width:1;"/><line style="stroke:#2B6CB0;stroke-width:1;" x1="296.4238" x2="296.4238" y1="72.2969" y2="92.2969"/><polygon fill="#2B6CB0" points="292.4238,82.2969,296.4238,92.2969,300.4238,82.2969,296.4238,86.2969" style="stroke:#2B6CB0;stroke-width:1;"/><line style="stroke:#2B6CB0;stroke-width:1;" x1="296.4238" x2="296.4238" y1="140.2344" y2="160.2344"/><polygon fill="#2B6CB0" points="292.4238,150.2344,296.4238,160.2344,300.4238,150.2344,296.4238,154.2344" style="stroke:#2B6CB0;stroke-width:1;"/><line style="stroke:#2B6CB0;stroke-width:1;" x1="226.5691" x2="185.7617" y1="240.1719" y2="240.1719"/><line style="stroke:#2B6CB0;stroke-width:1;" x1="185.7617" x2="185.7617" y1="240.1719" y2="262.1719"/><polygon fill="#2B6CB0" points="181.7617,252.1719,185.7617,262.1719,189.7617,252.1719,185.7617,256.1719" style="stroke:#2B6CB0;stroke-width:1;"/><line style="stroke:#2B6CB0;stroke-width:1;" x1="366.2786" x2="407.0859" y1="240.1719" y2="240.1719"/><line style="stroke:#2B6CB0;stroke-width:1;" x1="407.0859" x2="407.0859" y1="240.1719" y2="262.1719"/><polygon fill="#2B6CB0" points="403.0859,252.1719,407.0859,262.1719,411.0859,252.1719,407.0859,256.1719" style="stroke:#2B6CB0;stroke-width:1;"/><line style="stroke:#2B6CB0;stroke-width:1;" x1="185.7617" x2="185.7617" y1="296.1406" y2="314.1406"/><line style="stroke:#2B6CB0;stroke-width:1;" x1="185.7617" x2="284.4238" y1="314.1406" y2="314.1406"/><polygon fill="#2B6CB0" points="274.4238,310.1406,284.4238,314.1406,274.4238,318.1406,278.4238,314.1406" style="stroke:#2B6CB0;stroke-width:1;"/><line style="stroke:#2B6CB0;stroke-width:1;" x1="407.0859" x2="407.0859" y1="296.1406" y2="314.1406"/><line style="stroke:#2B6CB0;stroke-width:1;" x1="407.0859" x2="308.4238" y1="314.1406" y2="314.1406"/><polygon fill="#2B6CB0" points="318.4238,310.1406,308.4238,314.1406,318.4238,318.1406,314.4238,314.1406" style="stroke:#2B6CB0;stroke-width:1;"/><line style="stroke:#2B6CB0;stroke-width:1;" x1="296.4238" x2="296.4238" y1="208.1719" y2="228.1719"/><polygon fill="#2B6CB0" points="292.4238,218.1719,296.4238,228.1719,300.4238,218.1719,296.4238,222.1719" style="stroke:#2B6CB0;stroke-width:1;"/><line style="stroke:#2B6CB0;stroke-width:1;" x1="296.4238" x2="296.4238" y1="326.1406" y2="346.1406"/><polygon fill="#2B6CB0" points="292.4238,336.1406,296.4238,346.1406,300.4238,336.1406,296.4238,340.1406" style="stroke:#2B6CB0;stroke-width:1;"/><line style="stroke:#2B6CB0;stroke-width:1;" x1="296.4238" x2="296.4238" y1="380.1094" y2="400.1094"/><polygon fill="#2B6CB0" points="292.4238,390.1094,296.4238,400.1094,300.4238,390.1094,296.4238,394.1094" style="stroke:#2B6CB0;stroke-width:1;"/><line style="stroke:#2B6CB0;stroke-width:1;" x1="296.4238" x2="296.4238" y1="434.0781" y2="454.0781"/><polygon fill="#2B6CB0" points="292.4238,444.0781,296.4238,454.0781,300.4238,444.0781,296.4238,448.0781" style="stroke:#2B6CB0;stroke-width:1;"/><line style="stroke:#2B6CB0;stroke-width:1;" x1="296.4238" x2="296.4238" y1="502.0156" y2="522.0156"/><polygon fill="#2B6CB0" points="292.4238,512.0156,296.4238,522.0156,300.4238,512.0156,296.4238,516.0156" style="stroke:#2B6CB0;stroke-width:1;"/><line style="stroke:#2B6CB0;stroke-width:1;" x1="296.4238" x2="296.4238" y1="555.9844" y2="575.9844"/><polygon fill="#2B6CB0" points="292.4238,565.9844,296.4238,575.9844,300.4238,565.9844,296.4238,569.9844" style="stroke:#2B6CB0;stroke-width:1;"/><line style="stroke:#2B6CB0;stroke-width:1;" x1="296.4238" x2="296.4238" y1="609.9531" y2="629.9531"/><polygon fill="#2B6CB0" points="292.4238,619.9531,296.4238,629.9531,300.4238,619.9531,296.4238,623.9531" style="stroke:#2B6CB0;stroke-width:1;"/><?plantuml-src ZLF1Rjf04BtxAqRg1TIAbAggAZW12L9LAQtQ77FPuWKiZ1SjJjAegbIWQW-95AcNvfIeVu2W5auez1Tc_wXl5v9O98VwODapRzxEl3SR1t4eYSzvOOQSyDHyuR7vnYalUO7O2LyH_-Kbaak-BX4I2quTOCnpl6Shk3bxGlnx7Lto540o0tpD41tR6aw89wuW1TdOwtU2g2UqwD87qUYqj3g8_9eAbQP7TVTa4FssyDLH4BMeASA-p6HSMKFfI6egFiyaH2CE3eFuc3vvHDLx9xoiL-ercr7QbteTVLPzKQi-HRIYjJhQ36u7egiY_nxNJXLizGpW0ShFdjUFXOwz4l-4753PZA34DOy9BqXjlaAQgHdTof_kHpaP7T9Z4hrU63H47AYeSDmDysMGNCAHWHa2lOHfQtN11jwXEI77DhzrOx8VcG5iTF09WbSm9R57yH_u1AxlxZUn3fQze4avljm4Ry3o5BTbHBatkj6M_LYBF1GeyJbCnxhmt9nYFaU0ZaxftSxxFSnIKrqPRvSz2HSfL_aOgEx_5RuMpOv0NUG7pTNyG8xGKEfG1prVnD9kvupsP2XRM06hquKRsZQSM3qSDYkEMzCHZWQPbTzfkvuyiGexULRAcO6NunztVyKjlW300eT5AXGAbCtkPhAxphDVDxV1TN5t5_19bRUl7lJdff-K9-RCtJKtmN1jx0Ac4qImuT4Mnh0z3-psbB5lglSF?></g></svg>