<?xml version="1.0" encoding="UTF-8" standalone="no"?><svg xmlns="http://www.w3.org/2000/svg" xmlns:xlink="http://www.w3.org/1999/xlink" contentScriptType="application/ecmascript" contentStyleType="text/css" height="756px" preserveAspectRatio="none" style="width:1100px;height:756px;" version="1.1" viewBox="0 0 1100 756" width="1100px" zoomAndPan="magnify"><defs/><g><text fill="#000000" font-family="sans-serif" font-size="18" lengthAdjust="spacingAndGlyphs" textLength="677" x="212.75" y="26.708">Принцип работы REST API + WebSocket для абстрактного фронтенда</text><rect fill="#FFFFFF" height="133.6641" rx="6" ry="6" style="stroke: #000000; stroke-width: 2.0;" width="1076.5" x="13" y="383.6094"/><rect fill="#FFFFFF" height="104.5313" rx="6" ry="6" style="stroke: #000000; stroke-width: 2.0;" width="867.5" x="13" y="531.2734"/><line style="stroke: #A80036; stroke-width: 1.0; stroke-dasharray: 5.0,5.0;" x1="71" x2="71" y1="133.5469" y2="652.8047"/><line style="stroke: #A80036; stroke-width: 1.0; stroke-dasharray: 5.0,5.0;" x1="366" x2="366" y1="133.5469" y2="652.8047"/><line style="stroke: #A80036; stroke-width: 1.0; stroke-dasharray: 5.0,5.0;" x1="615" x2="615" y1="133.5469" y2="652.8047"/><line style="stroke: #A80036; stroke-width: 1.0; stroke-dasharray: 5.0,5.0;" x1="805.5" x2="805.5" y1="133.5469" y2="652.8047"/><line style="stroke: #A80036; stroke-width: 1.0; stroke-dasharray: 5.0,5.0;" x1="997.5" x2="997.5" y1="133.5469" y2="652.8047"/><text fill="#000000" font-family="sans-serif" font-size="14" lengthAdjust="spacingAndGlyphs" textLength="77" x="30" y="113.9482">Фронтенд</text><text fill="#000000" font-family="sans-serif" font-size="14" lengthAdjust="spacingAndGlyphs" textLength="91" x="23" y="130.2451">(Web/Mobile)</text><ellipse cx="71.5" cy="47.9531" fill="#FEFECE" rx="8" ry="8" style="stroke: #A80036; stroke-width: 2.0;"/><path d="M71.5,55.9531 L71.5,82.9531 M58.5,63.9531 L84.5,63.9531 M71.5,82.9531 L58.5,97.9531 M71.5,82.9531 L84.5,97.9531 " fill="none" style="stroke: #A80036; stroke-width: 2.0;"/><text fill="#000000" font-family="sans-serif" font-size="14" lengthAdjust="spacingAndGlyphs" textLength="77" x="30" y="664.7998">Фронтенд</text><text fill="#000000" font-family="sans-serif" font-size="14" lengthAdjust="spacingAndGlyphs" textLength="91" x="23" y="681.0967">(Web/Mobile)</text><ellipse cx="71.5" cy="694.3984" fill="#FEFECE" rx="8" ry="8" style="stroke: #A80036; stroke-width: 2.0;"/><path d="M71.5,702.3984 L71.5,729.3984 M58.5,710.3984 L84.5,710.3984 M71.5,729.3984 L58.5,744.3984 M71.5,729.3984 L84.5,744.3984 " fill="none" style="stroke: #A80036; stroke-width: 2.0;"/><rect fill="#FEFECE" height="30.2969" rx="6" ry="6" style="stroke: #A80036; stroke-width: 1.5;" width="113" x="310" y="102.25"/><text fill="#000000" font-family="sans-serif" font-size="14" lengthAdjust="spacingAndGlyphs" textLength="99" x="317" y="122.2451">REST API чата</text><rect fill="#FEFECE" height="30.2969" rx="6" ry="6" style="stroke: #A80036; stroke-width: 1.5;" width="113" x="310" y="651.8047"/><text fill="#000000" font-family="sans-serif" font-size="14" lengthAdjust="spacingAndGlyphs" textLength="99" x="317" y="671.7998">REST API чата</text><rect fill="#FEFECE" height="30.2969" rx="6" ry="6" style="stroke: #A80036; stroke-width: 1.5;" width="191" x="520" y="102.25"/><text fill="#000000" font-family="sans-serif" font-size="14" lengthAdjust="spacingAndGlyphs" textLength="177" x="527" y="122.2451">Хранилище сессий чата</text><rect fill="#FEFECE" height="30.2969" rx="6" ry="6" style="stroke: #A80036; stroke-width: 1.5;" width="191" x="520" y="651.8047"/><text fill="#000000" font-family="sans-serif" font-size="14" lengthAdjust="spacingAndGlyphs" textLength="177" x="527" y="671.7998">Хранилище сессий чата</text><rect fill="#FEFECE" height="30.2969" rx="6" ry="6" style="stroke: #A80036; stroke-width: 1.5;" width="130" x="740.5" y="102.25"/><text fill="#000000" font-family="sans-serif" font-size="14" lengthAdjust="spacingAndGlyphs" textLength="116" x="747.5" y="122.2451">WebSocket чата</text><rect fill="#FEFECE" height="30.2969" rx="6" ry="6" style="stroke: #A80036; stroke-width: 1.5;" width="130" x="740.5" y="651.8047"/><text fill="#000000" font-family="sans-serif" font-size="14" lengthAdjust="spacingAndGlyphs" textLength="116" x="747.5" y="671.7998">WebSocket чата</text><rect fill="#FEFECE" height="30.2969" rx="6" ry="6" style="stroke: #A80036; stroke-width: 1.5;" width="164" x="915.5" y="102.25"/><text fill="#000000" font-family="sans-serif" font-size="14" lengthAdjust="spacingAndGlyphs" textLength="150" x="922.5" y="122.2451">Диспетчер событий</text><rect fill="#FEFECE" height="30.2969" rx="6" ry="6" style="stroke: #A80036; stroke-width: 1.5;" width="164" x="915.5" y="651.8047"/><text fill="#000000" font-family="sans-serif" font-size="14" lengthAdjust="spacingAndGlyphs" textLength="150" x="922.5" y="671.7998">Диспетчер событий</text><polygon fill="#A80036" points="354.5,160.6797,364.5,164.6797,354.5,168.6797,358.5,164.6797" style="stroke: #A80036; stroke-width: 1.0;"/><line style="stroke: #A80036; stroke-width: 1.0;" x1="71.5" x2="360.5" y1="164.6797" y2="164.6797"/><text fill="#000000" font-family="sans-serif" font-size="13" lengthAdjust="spacingAndGlyphs" textLength="116" x="78.5" y="159.6138">POST /api/chat/init</text><polygon fill="#A80036" points="603.5,189.8125,613.5,193.8125,603.5,197.8125,607.5,193.8125" style="stroke: #A80036; stroke-width: 1.0;"/><line style="stroke: #A80036; stroke-width: 1.0;" x1="366.5" x2="609.5" y1="193.8125" y2="193.8125"/><text fill="#000000" font-family="sans-serif" font-size="13" lengthAdjust="spacingAndGlyphs" textLength="225" x="373.5" y="188.7466">создать/получить сессию(visitor)</text><polygon fill="#A80036" points="377.5,218.9453,367.5,222.9453,377.5,226.9453,373.5,222.9453" style="stroke: #A80036; stroke-width: 1.0;"/><line style="stroke: #A80036; stroke-width: 1.0; stroke-dasharray: 2.0,2.0;" x1="371.5" x2="614.5" y1="222.9453" y2="222.9453"/><text fill="#000000" font-family="sans-serif" font-size="13" lengthAdjust="spacingAndGlyphs" textLength="127" x="383.5" y="217.8794">sessionId + visitorId</text><polygon fill="#A80036" points="82.5,248.0781,72.5,252.0781,82.5,256.0781,78.5,252.0781" style="stroke: #A80036; stroke-width: 1.0;"/><line style="stroke: #A80036; stroke-width: 1.0; stroke-dasharray: 2.0,2.0;" x1="76.5" x2="365.5" y1="252.0781" y2="252.0781"/><text fill="#000000" font-family="sans-serif" font-size="13" lengthAdjust="spacingAndGlyphs" textLength="271" x="88.5" y="247.0122">sessionId, wsEndpoint, сообщение, опции</text><polygon fill="#A80036" points="793.5,277.2109,803.5,281.2109,793.5,285.2109,797.5,281.2109" style="stroke: #A80036; stroke-width: 1.0;"/><line style="stroke: #A80036; stroke-width: 1.0;" x1="71.5" x2="799.5" y1="281.2109" y2="281.2109"/><text fill="#000000" font-family="sans-serif" font-size="13" lengthAdjust="spacingAndGlyphs" textLength="213" x="78.5" y="276.145">CONNECT /ws/events/{sessionId}</text><polygon fill="#A80036" points="626.5,306.3438,616.5,310.3438,626.5,314.3438,622.5,310.3438" style="stroke: #A80036; stroke-width: 1.0;"/><line style="stroke: #A80036; stroke-width: 1.0;" x1="620.5" x2="804.5" y1="310.3438" y2="310.3438"/><text fill="#000000" font-family="sans-serif" font-size="13" lengthAdjust="spacingAndGlyphs" textLength="136" x="632.5" y="305.2778">проверить sessionId</text><polygon fill="#A80036" points="793.5,335.4766,803.5,339.4766,793.5,343.4766,797.5,339.4766" style="stroke: #A80036; stroke-width: 1.0;"/><line style="stroke: #A80036; stroke-width: 1.0; stroke-dasharray: 2.0,2.0;" x1="615.5" x2="799.5" y1="339.4766" y2="339.4766"/><text fill="#000000" font-family="sans-serif" font-size="13" lengthAdjust="spacingAndGlyphs" textLength="107" x="622.5" y="334.4106">сессия найдена</text><polygon fill="#A80036" points="82.5,364.6094,72.5,368.6094,82.5,372.6094,78.5,368.6094" style="stroke: #A80036; stroke-width: 1.0;"/><line style="stroke: #A80036; stroke-width: 1.0; stroke-dasharray: 2.0,2.0;" x1="76.5" x2="804.5" y1="368.6094" y2="368.6094"/><text fill="#000000" font-family="sans-serif" font-size="13" lengthAdjust="spacingAndGlyphs" textLength="196" x="88.5" y="363.5435">{type: "connected", sessionId}</text><path d="M19,383.6094 L90,383.6094 L90,390.6094 L80,400.6094 L13,400.6094 L13,389.6094 " fill="#EEEEEE" style="stroke: #000000; stroke-width: 1.0;"/><rect fill="none" height="133.6641" rx="6" ry="6" style="stroke: #000000; stroke-width: 2.0;" width="1076.5" x="13" y="383.6094"/><text fill="#000000" font-family="sans-serif" font-size="13" font-weight="bold" lengthAdjust="spacingAndGlyphs" textLength="32" x="28" y="396.6763">loop</text><text fill="#000000" font-family="sans-serif" font-size="11" font-weight="bold" lengthAdjust="spacingAndGlyphs" textLength="125" x="105" y="395.8198">[события очереди]</text><polygon fill="#A80036" points="816.5,417.875,806.5,421.875,816.5,425.875,812.5,421.875" style="stroke: #A80036; stroke-width: 1.0;"/><line style="stroke: #A80036; stroke-width: 1.0;" x1="810.5" x2="996.5" y1="421.875" y2="421.875"/><text fill="#000000" font-family="sans-serif" font-size="13" lengthAdjust="spacingAndGlyphs" textLength="168" x="822.5" y="416.8091">VISIT_CALL / VISIT_RECALL</text><polygon fill="#A80036" points="626.5,447.0078,616.5,451.0078,626.5,455.0078,622.5,451.0078" style="stroke: #A80036; stroke-width: 1.0;"/><line style="stroke: #A80036; stroke-width: 1.0;" x1="620.5" x2="804.5" y1="451.0078" y2="451.0078"/><text fill="#000000" font-family="sans-serif" font-size="13" lengthAdjust="spacingAndGlyphs" textLength="166" x="632.5" y="445.9419">найти сессию по visitorId</text><polygon fill="#A80036" points="793.5,476.1406,803.5,480.1406,793.5,484.1406,797.5,480.1406" style="stroke: #A80036; stroke-width: 1.0;"/><line style="stroke: #A80036; stroke-width: 1.0; stroke-dasharray: 2.0,2.0;" x1="615.5" x2="799.5" y1="480.1406" y2="480.1406"/><text fill="#000000" font-family="sans-serif" font-size="13" lengthAdjust="spacingAndGlyphs" textLength="124" x="622.5" y="475.0747">целевая сессия(и)</text><polygon fill="#A80036" points="82.5,505.2734,72.5,509.2734,82.5,513.2734,78.5,509.2734" style="stroke: #A80036; stroke-width: 1.0;"/><line style="stroke: #A80036; stroke-width: 1.0; stroke-dasharray: 2.0,2.0;" x1="76.5" x2="804.5" y1="509.2734" y2="509.2734"/><text fill="#000000" font-family="sans-serif" font-size="13" lengthAdjust="spacingAndGlyphs" textLength="269" x="88.5" y="504.2075">{type:"visit-event", message, timestamp}</text><path d="M19,531.2734 L77,531.2734 L77,538.2734 L67,548.2734 L13,548.2734 L13,537.2734 " fill="#EEEEEE" style="stroke: #000000; stroke-width: 1.0;"/><rect fill="none" height="104.5313" rx="6" ry="6" style="stroke: #000000; stroke-width: 2.0;" width="867.5" x="13" y="531.2734"/><text fill="#000000" font-family="sans-serif" font-size="13" font-weight="bold" lengthAdjust="spacingAndGlyphs" textLength="19" x="28" y="544.3403">alt</text><text fill="#000000" font-family="sans-serif" font-size="11" font-weight="bold" lengthAdjust="spacingAndGlyphs" textLength="149" x="92" y="543.4839">[sessionId неизвестен]</text><polygon fill="#A80036" points="626.5,565.5391,616.5,569.5391,626.5,573.5391,622.5,569.5391" style="stroke: #A80036; stroke-width: 1.0;"/><line style="stroke: #A80036; stroke-width: 1.0;" x1="620.5" x2="804.5" y1="569.5391" y2="569.5391"/><text fill="#000000" font-family="sans-serif" font-size="13" lengthAdjust="spacingAndGlyphs" textLength="136" x="632.5" y="564.4731">проверить sessionId</text><polygon fill="#A80036" points="793.5,594.6719,803.5,598.6719,793.5,602.6719,797.5,598.6719" style="stroke: #A80036; stroke-width: 1.0;"/><line style="stroke: #A80036; stroke-width: 1.0; stroke-dasharray: 2.0,2.0;" x1="615.5" x2="799.5" y1="598.6719" y2="598.6719"/><text fill="#000000" font-family="sans-serif" font-size="13" lengthAdjust="spacingAndGlyphs" textLength="78" x="622.5" y="593.606">не найдено</text><polygon fill="#A80036" points="82.5,623.8047,72.5,627.8047,82.5,631.8047,78.5,627.8047" style="stroke: #A80036; stroke-width: 1.0;"/><line style="stroke: #A80036; stroke-width: 1.0; stroke-dasharray: 2.0,2.0;" x1="76.5" x2="804.5" y1="627.8047" y2="627.8047"/><text fill="#000000" font-family="sans-serif" font-size="13" lengthAdjust="spacingAndGlyphs" textLength="300" x="88.5" y="622.7388">закрыть соединение (нарушение политики)</text><!--MD5=[2eaf6375ca63ff1c962ab305dd13ab7d]
@startuml
skinparam backgroundColor #FFFFFF
skinparam shadowing false
skinparam roundcorner 12
title Принцип работы REST API + WebSocket для абстрактного фронтенда

actor "Фронтенд\n(Web/Mobile)" as FE
participant "REST API чата" as API
participant "Хранилище сессий чата" as SESS
participant "WebSocket чата" as WS
participant "Диспетчер событий" as EVT

FE -> API: POST /api/chat/init
API -> SESS: создать/получить сессию(visitor)
SESS - -> API: sessionId + visitorId
API - -> FE: sessionId, wsEndpoint, сообщение, опции

FE -> WS: CONNECT /ws/events/{sessionId}
WS -> SESS: проверить sessionId
SESS - -> WS: сессия найдена
WS - -> FE: {type: "connected", sessionId}

loop события очереди
  EVT -> WS: VISIT_CALL / VISIT_RECALL
  WS -> SESS: найти сессию по visitorId
  SESS - -> WS: целевая сессия(и)
  WS - -> FE: {type:"visit-event", message, timestamp}
end

alt sessionId неизвестен
  WS -> SESS: проверить sessionId
  SESS - -> WS: не найдено
  WS - -> FE: закрыть соединение (нарушение политики)
end
@enduml

PlantUML version 1.2020.02(Sun Mar 01 10:22:07 UTC 2020)
(GPL source distribution)
Java Runtime: OpenJDK Runtime Environment
JVM: OpenJDK 64-Bit Server VM
Java Version: 21.0.2+13-58
Operating System: Linux
Default Encoding: UTF-8
Language: en
Country: null
--></g></svg>