<?xml version="1.0" encoding="UTF-8" standalone="no"?><svg xmlns="http://www.w3.org/2000/svg" xmlns:xlink="http://www.w3.org/1999/xlink" contentScriptType="application/ecmascript" contentStyleType="text/css" height="432px" preserveAspectRatio="none" style="width:762px;height:432px;" version="1.1" viewBox="0 0 762 432" width="762px" zoomAndPan="magnify"><defs><filter height="300%" id="fhcxyj6raw2wz" width="300%" x="-1" y="-1"><feGaussianBlur result="blurOut" stdDeviation="2.0"/><feColorMatrix in="blurOut" result="blurOut2" type="matrix" values="0 0 0 0 0 0 0 0 0 0 0 0 0 0 0 0 0 0 .4 0"/><feOffset dx="4.0" dy="4.0" in="blurOut2" result="blurOut3"/><feBlend in="SourceGraphic" in2="blurOut3" mode="normal"/></filter></defs><g><rect fill="#FFFFFF" height="100%" width="100%" x="0" y="0"/><text fill="#000000" font-family="sans-serif" font-size="18" lengthAdjust="spacingAndGlyphs" textLength="165" x="299" y="26.708">Runtime overview</text><line style="stroke: #A80036; stroke-width: 1.0; stroke-dasharray: 5.0,5.0;" x1="27" x2="27" y1="121.25" y2="345.1797"/><line style="stroke: #A80036; stroke-width: 1.0; stroke-dasharray: 5.0,5.0;" x1="193.5" x2="193.5" y1="121.25" y2="345.1797"/><line style="stroke: #A80036; stroke-width: 1.0; stroke-dasharray: 5.0,5.0;" x1="373" x2="373" y1="121.25" y2="345.1797"/><line style="stroke: #A80036; stroke-width: 1.0; stroke-dasharray: 5.0,5.0;" x1="553" x2="553" y1="121.25" y2="345.1797"/><line style="stroke: #A80036; stroke-width: 1.0; stroke-dasharray: 5.0,5.0;" x1="696" x2="696" y1="121.25" y2="345.1797"/><text fill="#000000" font-family="sans-serif" font-size="14" lengthAdjust="spacingAndGlyphs" textLength="32" x="8" y="117.9482">User</text><ellipse cx="27" cy="47.9531" fill="#FEFECE" filter="url(#fhcxyj6raw2wz)" rx="8" ry="8" style="stroke: #A80036; stroke-width: 2.0;"/><path d="M27,55.9531 L27,82.9531 M14,63.9531 L40,63.9531 M27,82.9531 L14,97.9531 M27,82.9531 L40,97.9531 " fill="none" filter="url(#fhcxyj6raw2wz)" style="stroke: #A80036; stroke-width: 2.0;"/><text fill="#000000" font-family="sans-serif" font-size="14" lengthAdjust="spacingAndGlyphs" textLength="32" x="8" y="357.1748">User</text><ellipse cx="27" cy="370.4766" fill="#FEFECE" filter="url(#fhcxyj6raw2wz)" rx="8" ry="8" style="stroke: #A80036; stroke-width: 2.0;"/><path d="M27,378.4766 L27,405.4766 M14,386.4766 L40,386.4766 M27,405.4766 L14,420.4766 M27,405.4766 L40,420.4766 " fill="none" filter="url(#fhcxyj6raw2wz)" style="stroke: #A80036; stroke-width: 2.0;"/><rect fill="#FEFECE" filter="url(#fhcxyj6raw2wz)" height="30.2969" style="stroke: #A80036; stroke-width: 1.5;" width="79" x="152.5" y="85.9531"/><text fill="#000000" font-family="sans-serif" font-size="14" lengthAdjust="spacingAndGlyphs" textLength="65" x="159.5" y="105.9482">Telegram</text><rect fill="#FEFECE" filter="url(#fhcxyj6raw2wz)" height="30.2969" style="stroke: #A80036; stroke-width: 1.5;" width="79" x="152.5" y="344.1797"/><text fill="#000000" font-family="sans-serif" font-size="14" lengthAdjust="spacingAndGlyphs" textLength="65" x="159.5" y="364.1748">Telegram</text><rect fill="#FEFECE" filter="url(#fhcxyj6raw2wz)" height="30.2969" style="stroke: #A80036; stroke-width: 1.5;" width="120" x="311" y="85.9531"/><text fill="#000000" font-family="sans-serif" font-size="14" lengthAdjust="spacingAndGlyphs" textLength="106" x="318" y="105.9482">Bot (Micronaut)</text><rect fill="#FEFECE" filter="url(#fhcxyj6raw2wz)" height="30.2969" style="stroke: #A80036; stroke-width: 1.5;" width="120" x="311" y="344.1797"/><text fill="#000000" font-family="sans-serif" font-size="14" lengthAdjust="spacingAndGlyphs" textLength="106" x="318" y="364.1748">Bot (Micronaut)</text><rect fill="#FEFECE" filter="url(#fhcxyj6raw2wz)" height="46.5938" style="stroke: #A80036; stroke-width: 1.5;" width="146" x="478" y="69.6563"/><text fill="#000000" font-family="sans-serif" font-size="14" lengthAdjust="spacingAndGlyphs" textLength="72" x="515" y="89.6514">Queue API</text><text fill="#000000" font-family="sans-serif" font-size="14" lengthAdjust="spacingAndGlyphs" textLength="132" x="485" y="105.9482">(Orchestra/Axioma)</text><rect fill="#FEFECE" filter="url(#fhcxyj6raw2wz)" height="46.5938" style="stroke: #A80036; stroke-width: 1.5;" width="146" x="478" y="344.1797"/><text fill="#000000" font-family="sans-serif" font-size="14" lengthAdjust="spacingAndGlyphs" textLength="72" x="515" y="364.1748">Queue API</text><text fill="#000000" font-family="sans-serif" font-size="14" lengthAdjust="spacingAndGlyphs" textLength="132" x="485" y="380.4717">(Orchestra/Axioma)</text><rect fill="#FEFECE" filter="url(#fhcxyj6raw2wz)" height="30.2969" style="stroke: #A80036; stroke-width: 1.5;" width="113" x="638" y="85.9531"/><text fill="#000000" font-family="sans-serif" font-size="14" lengthAdjust="spacingAndGlyphs" textLength="99" x="645" y="105.9482">CometD/Kafka</text><rect fill="#FEFECE" filter="url(#fhcxyj6raw2wz)" height="30.2969" style="stroke: #A80036; stroke-width: 1.5;" width="113" x="638" y="344.1797"/><text fill="#000000" font-family="sans-serif" font-size="14" lengthAdjust="spacingAndGlyphs" textLength="99" x="645" y="364.1748">CometD/Kafka</text><polygon fill="#A80036" points="182,148.3828,192,152.3828,182,156.3828,186,152.3828" style="stroke: #A80036; stroke-width: 1.0;"/><line style="stroke: #A80036; stroke-width: 1.0;" x1="27" x2="188" y1="152.3828" y2="152.3828"/><text fill="#000000" font-family="sans-serif" font-size="13" lengthAdjust="spacingAndGlyphs" textLength="143" x="34" y="147.3169">/start + выбор услуги</text><polygon fill="#A80036" points="361,177.5156,371,181.5156,361,185.5156,365,181.5156" style="stroke: #A80036; stroke-width: 1.0;"/><line style="stroke: #A80036; stroke-width: 1.0;" x1="194" x2="367" y1="181.5156" y2="181.5156"/><text fill="#000000" font-family="sans-serif" font-size="13" lengthAdjust="spacingAndGlyphs" textLength="131" x="201" y="176.4497">update (long polling)</text><polygon fill="#A80036" points="541,206.6484,551,210.6484,541,214.6484,545,210.6484" style="stroke: #A80036; stroke-width: 1.0;"/><line style="stroke: #A80036; stroke-width: 1.0;" x1="373" x2="547" y1="210.6484" y2="210.6484"/><text fill="#000000" font-family="sans-serif" font-size="13" lengthAdjust="spacingAndGlyphs" textLength="156" x="380" y="205.5825">GET services / POST visit</text><polygon fill="#A80036" points="384,235.7813,374,239.7813,384,243.7813,380,239.7813" style="stroke: #A80036; stroke-width: 1.0;"/><line style="stroke: #A80036; stroke-width: 1.0; stroke-dasharray: 2.0,2.0;" x1="378" x2="552" y1="239.7813" y2="239.7813"/><text fill="#000000" font-family="sans-serif" font-size="13" lengthAdjust="spacingAndGlyphs" textLength="68" x="390" y="234.7153">ticket data</text><polygon fill="#A80036" points="205,264.9141,195,268.9141,205,272.9141,201,268.9141" style="stroke: #A80036; stroke-width: 1.0;"/><line style="stroke: #A80036; stroke-width: 1.0; stroke-dasharray: 2.0,2.0;" x1="199" x2="372" y1="268.9141" y2="268.9141"/><text fill="#000000" font-family="sans-serif" font-size="13" lengthAdjust="spacingAndGlyphs" textLength="94" x="211" y="263.8481">номер талона</text><polygon fill="#A80036" points="384,294.0469,374,298.0469,384,302.0469,380,298.0469" style="stroke: #A80036; stroke-width: 1.0;"/><line style="stroke: #A80036; stroke-width: 1.0;" x1="378" x2="695.5" y1="298.0469" y2="298.0469"/><text fill="#000000" font-family="sans-serif" font-size="13" lengthAdjust="spacingAndGlyphs" textLength="168" x="390" y="292.981">VISIT_CALL / VISIT_RECALL</text><polygon fill="#A80036" points="205,323.1797,195,327.1797,205,331.1797,201,327.1797" style="stroke: #A80036; stroke-width: 1.0;"/><line style="stroke: #A80036; stroke-width: 1.0; stroke-dasharray: 2.0,2.0;" x1="199" x2="372" y1="327.1797" y2="327.1797"/><text fill="#000000" font-family="sans-serif" font-size="13" lengthAdjust="spacingAndGlyphs" textLength="155" x="211" y="322.1138">уведомление о вызове</text><!--MD5=[c47127b97d9e7229565d64dbb641f181]
@startuml
title Runtime overview
actor User
participant Telegram
participant "Bot (Micronaut)" as Bot
participant "Queue API\n(Orchestra/Axioma)" as Queue
participant "CometD/Kafka" as Events
User -> Telegram: /start + выбор услуги
Telegram -> Bot: update (long polling)
Bot -> Queue: GET services / POST visit
Queue - -> Bot: ticket data
Bot - -> Telegram: номер талона
Events -> Bot: VISIT_CALL / VISIT_RECALL
Bot - -> Telegram: уведомление о вызове
@enduml

PlantUML version 1.2020.02(Sun Mar 01 10:22:07 UTC 2020)
(GPL source distribution)
Java Runtime: OpenJDK Runtime Environment
JVM: OpenJDK 64-Bit Server VM
Java Version: 21.0.2+13-58
Operating System: Linux
Default Encoding: UTF-8
Language: en
Country: null
--></g></svg>