<?xml version="1.0" encoding="UTF-8" standalone="no"?><svg xmlns="http://www.w3.org/2000/svg" xmlns:xlink="http://www.w3.org/1999/xlink" contentScriptType="application/ecmascript" contentStyleType="text/css" height="543px" preserveAspectRatio="none" style="width:789px;height:543px;" version="1.1" viewBox="0 0 789 543" width="789px" zoomAndPan="magnify"><defs/><rect id="svg-background" width="100%" height="100%" fill="#FFFFFF"/><g><text fill="#000000" font-family="sans-serif" font-size="18" lengthAdjust="spacingAndGlyphs" textLength="468" x="156.25" y="26.708">Runtime overview: Telegram bot + queue platforms</text><line style="stroke: #7C8798; stroke-width: 1.0; stroke-dasharray: 5.0,5.0;" x1="30" x2="30" y1="117.25" y2="456.5781"/><line style="stroke: #7C8798; stroke-width: 1.0; stroke-dasharray: 5.0,5.0;" x1="195.5" x2="195.5" y1="117.25" y2="456.5781"/><line style="stroke: #7C8798; stroke-width: 1.0; stroke-dasharray: 5.0,5.0;" x1="374.5" x2="374.5" y1="117.25" y2="456.5781"/><line style="stroke: #7C8798; stroke-width: 1.0; stroke-dasharray: 5.0,5.0;" x1="554.5" x2="554.5" y1="117.25" y2="456.5781"/><line style="stroke: #7C8798; stroke-width: 1.0; stroke-dasharray: 5.0,5.0;" x1="706.5" x2="706.5" y1="117.25" y2="456.5781"/><text fill="#000000" font-family="sans-serif" font-size="14" lengthAdjust="spacingAndGlyphs" textLength="39" x="8" y="113.9482">Client</text><ellipse cx="30.5" cy="47.9531" fill="#E6FFFA" rx="8" ry="8" style="stroke: #2D3748; stroke-width: 2.0;"/><path d="M30.5,55.9531 L30.5,82.9531 M17.5,63.9531 L43.5,63.9531 M30.5,82.9531 L17.5,97.9531 M30.5,82.9531 L43.5,97.9531 " fill="none" style="stroke: #2D3748; stroke-width: 2.0;"/><text fill="#000000" font-family="sans-serif" font-size="14" lengthAdjust="spacingAndGlyphs" textLength="39" x="8" y="468.5732">Client</text><ellipse cx="30.5" cy="481.875" fill="#E6FFFA" rx="8" ry="8" style="stroke: #2D3748; stroke-width: 2.0;"/><path d="M30.5,489.875 L30.5,516.875 M17.5,497.875 L43.5,497.875 M30.5,516.875 L17.5,531.875 M30.5,516.875 L43.5,531.875 " fill="none" style="stroke: #2D3748; stroke-width: 2.0;"/><rect fill="#EDF2F7" height="30.2969" rx="6" ry="6" style="stroke: #2D3748; stroke-width: 1.5;" width="104" x="143.5" y="85.9531"/><text fill="#1A202C" font-family="sans-serif" font-size="14" lengthAdjust="spacingAndGlyphs" textLength="90" x="150.5" y="105.9482">Telegram API</text><rect fill="#EDF2F7" height="30.2969" rx="6" ry="6" style="stroke: #2D3748; stroke-width: 1.5;" width="104" x="143.5" y="455.5781"/><text fill="#1A202C" font-family="sans-serif" font-size="14" lengthAdjust="spacingAndGlyphs" textLength="90" x="150.5" y="475.5732">Telegram API</text><rect fill="#EDF2F7" height="30.2969" rx="6" ry="6" style="stroke: #2D3748; stroke-width: 1.5;" width="120" x="314.5" y="85.9531"/><text fill="#1A202C" font-family="sans-serif" font-size="14" lengthAdjust="spacingAndGlyphs" textLength="106" x="321.5" y="105.9482">Bot (Micronaut)</text><rect fill="#EDF2F7" height="30.2969" rx="6" ry="6" style="stroke: #2D3748; stroke-width: 1.5;" width="120" x="314.5" y="455.5781"/><text fill="#1A202C" font-family="sans-serif" font-size="14" lengthAdjust="spacingAndGlyphs" textLength="106" x="321.5" y="475.5732">Bot (Micronaut)</text><rect fill="#EDF2F7" height="46.5938" rx="6" ry="6" style="stroke: #2D3748; stroke-width: 1.5;" width="154" x="477.5" y="69.6563"/><text fill="#1A202C" font-family="sans-serif" font-size="14" lengthAdjust="spacingAndGlyphs" textLength="72" x="518.5" y="89.6514">Queue API</text><text fill="#1A202C" font-family="sans-serif" font-size="14" lengthAdjust="spacingAndGlyphs" textLength="140" x="484.5" y="105.9482">(Orchestra / Axioma)</text><rect fill="#EDF2F7" height="46.5938" rx="6" ry="6" style="stroke: #2D3748; stroke-width: 1.5;" width="154" x="477.5" y="455.5781"/><text fill="#1A202C" font-family="sans-serif" font-size="14" lengthAdjust="spacingAndGlyphs" textLength="72" x="518.5" y="475.5732">Queue API</text><text fill="#1A202C" font-family="sans-serif" font-size="14" lengthAdjust="spacingAndGlyphs" textLength="140" x="484.5" y="491.8701">(Orchestra / Axioma)</text><rect fill="#EDF2F7" height="46.5938" rx="6" ry="6" style="stroke: #2D3748; stroke-width: 1.5;" width="131" x="641.5" y="69.6563"/><text fill="#1A202C" font-family="sans-serif" font-size="14" lengthAdjust="spacingAndGlyphs" textLength="91" x="661.5" y="89.6514">Event stream</text><text fill="#1A202C" font-family="sans-serif" font-size="14" lengthAdjust="spacingAndGlyphs" textLength="117" x="648.5" y="105.9482">(CometD / Kafka)</text><rect fill="#EDF2F7" height="46.5938" rx="6" ry="6" style="stroke: #2D3748; stroke-width: 1.5;" width="131" x="641.5" y="455.5781"/><text fill="#1A202C" font-family="sans-serif" font-size="14" lengthAdjust="spacingAndGlyphs" textLength="91" x="661.5" y="475.5732">Event stream</text><text fill="#1A202C" font-family="sans-serif" font-size="14" lengthAdjust="spacingAndGlyphs" textLength="117" x="648.5" y="491.8701">(CometD / Kafka)</text><rect fill="#EEEEEE" height="3" style="stroke: #EEEEEE; stroke-width: 1.0;" width="774.5" x="3" y="147.8164"/><line style="stroke: #000000; stroke-width: 1.0;" x1="3" x2="777.5" y1="147.8164" y2="147.8164"/><line style="stroke: #000000; stroke-width: 1.0;" x1="3" x2="777.5" y1="150.8164" y2="150.8164"/><rect fill="#EEEEEE" height="23.1328" style="stroke: #000000; stroke-width: 2.0;" width="128" x="326.25" y="137.25"/><text fill="#000000" font-family="sans-serif" font-size="13" font-weight="bold" lengthAdjust="spacingAndGlyphs" textLength="109" x="332.25" y="153.3169">Ticket creation</text><polygon fill="#0F4C81" points="183.5,187.5156,193.5,191.5156,183.5,195.5156,187.5,191.5156" style="stroke: #0F4C81; stroke-width: 1.0;"/><line style="stroke: #0F4C81; stroke-width: 1.0;" x1="30.5" x2="189.5" y1="191.5156" y2="191.5156"/><text fill="#000000" font-family="sans-serif" font-size="13" lengthAdjust="spacingAndGlyphs" textLength="141" x="37.5" y="186.4497">/start + dialog actions</text><polygon fill="#0F4C81" points="362.5,216.6484,372.5,220.6484,362.5,224.6484,366.5,220.6484" style="stroke: #0F4C81; stroke-width: 1.0;"/><line style="stroke: #0F4C81; stroke-width: 1.0;" x1="195.5" x2="368.5" y1="220.6484" y2="220.6484"/><text fill="#000000" font-family="sans-serif" font-size="13" lengthAdjust="spacingAndGlyphs" textLength="138" x="202.5" y="215.5825">updates (long polling)</text><polygon fill="#0F4C81" points="542.5,245.7813,552.5,249.7813,542.5,253.7813,546.5,249.7813" style="stroke: #0F4C81; stroke-width: 1.0;"/><line style="stroke: #0F4C81; stroke-width: 1.0;" x1="374.5" x2="548.5" y1="249.7813" y2="249.7813"/><text fill="#000000" font-family="sans-serif" font-size="13" lengthAdjust="spacingAndGlyphs" textLength="156" x="381.5" y="244.7153">GET services / POST visit</text><polygon fill="#0F4C81" points="385.5,274.9141,375.5,278.9141,385.5,282.9141,381.5,278.9141" style="stroke: #0F4C81; stroke-width: 1.0;"/><line style="stroke: #0F4C81; stroke-width: 1.0; stroke-dasharray: 2.0,2.0;" x1="379.5" x2="553.5" y1="278.9141" y2="278.9141"/><text fill="#000000" font-family="sans-serif" font-size="13" lengthAdjust="spacingAndGlyphs" textLength="68" x="391.5" y="273.8481">ticket data</text><polygon fill="#0F4C81" points="206.5,304.0469,196.5,308.0469,206.5,312.0469,202.5,308.0469" style="stroke: #0F4C81; stroke-width: 1.0;"/><line style="stroke: #0F4C81; stroke-width: 1.0; stroke-dasharray: 2.0,2.0;" x1="200.5" x2="373.5" y1="308.0469" y2="308.0469"/><text fill="#000000" font-family="sans-serif" font-size="13" lengthAdjust="spacingAndGlyphs" textLength="148" x="212.5" y="302.981">ticket number + status</text><rect fill="#EEEEEE" height="3" style="stroke: #EEEEEE; stroke-width: 1.0;" width="774.5" x="3" y="336.6133"/><line style="stroke: #000000; stroke-width: 1.0;" x1="3" x2="777.5" y1="336.6133" y2="336.6133"/><line style="stroke: #000000; stroke-width: 1.0;" x1="3" x2="777.5" y1="339.6133" y2="339.6133"/><rect fill="#EEEEEE" height="23.1328" style="stroke: #000000; stroke-width: 2.0;" width="247" x="266.75" y="326.0469"/><text fill="#000000" font-family="sans-serif" font-size="13" font-weight="bold" lengthAdjust="spacingAndGlyphs" textLength="228" x="272.75" y="342.1138">Asynchronous call notifications</text><polygon fill="#0F4C81" points="385.5,376.3125,375.5,380.3125,385.5,384.3125,381.5,380.3125" style="stroke: #0F4C81; stroke-width: 1.0;"/><line style="stroke: #0F4C81; stroke-width: 1.0;" x1="379.5" x2="706" y1="380.3125" y2="380.3125"/><text fill="#000000" font-family="sans-serif" font-size="13" lengthAdjust="spacingAndGlyphs" textLength="168" x="391.5" y="375.2466">VISIT_CALL / VISIT_RECALL</text><polygon fill="#0F4C81" points="206.5,405.4453,196.5,409.4453,206.5,413.4453,202.5,409.4453" style="stroke: #0F4C81; stroke-width: 1.0;"/><line style="stroke: #0F4C81; stroke-width: 1.0; stroke-dasharray: 2.0,2.0;" x1="200.5" x2="373.5" y1="409.4453" y2="409.4453"/><text fill="#000000" font-family="sans-serif" font-size="13" lengthAdjust="spacingAndGlyphs" textLength="155" x="212.5" y="404.3794">personalized notification</text><polygon fill="#0F4C81" points="41.5,434.5781,31.5,438.5781,41.5,442.5781,37.5,438.5781" style="stroke: #0F4C81; stroke-width: 1.0;"/><line style="stroke: #0F4C81; stroke-width: 1.0; stroke-dasharray: 2.0,2.0;" x1="35.5" x2="194.5" y1="438.5781" y2="438.5781"/><text fill="#000000" font-family="sans-serif" font-size="13" lengthAdjust="spacingAndGlyphs" textLength="94" x="47.5" y="433.5122">push message</text><!--MD5=[a8d777016ef7af3431c56ab31cb77feb]
@startuml
title Runtime overview: Telegram bot + queue platforms
skinparam backgroundColor #FFFFFF
skinparam shadowing false
skinparam roundcorner 12
skinparam sequence {
  ArrowColor #0F4C81
  LifeLineBorderColor #7C8798
  LifeLineBackgroundColor #F7FAFC
  ParticipantBorderColor #2D3748
  ParticipantBackgroundColor #EDF2F7
  ParticipantFontColor #1A202C
  ActorBorderColor #2D3748
  ActorBackgroundColor #E6FFFA
}

actor "Client" as User
participant "Telegram API" as Telegram
participant "Bot (Micronaut)" as Bot
participant "Queue API\n(Orchestra / Axioma)" as Queue
participant "Event stream\n(CometD / Kafka)" as Events

== Ticket creation ==
User -> Telegram: /start + dialog actions
Telegram -> Bot: updates (long polling)
Bot -> Queue: GET services / POST visit
Queue - -> Bot: ticket data
Bot - -> Telegram: ticket number + status

== Asynchronous call notifications ==
Events -> Bot: VISIT_CALL / VISIT_RECALL
Bot - -> Telegram: personalized notification
Telegram - -> User: push message
@enduml

PlantUML version 1.2020.02(Sun Mar 01 10:22:07 UTC 2020)
(GPL source distribution)
Java Runtime: OpenJDK Runtime Environment
JVM: OpenJDK 64-Bit Server VM
Java Version: 21.0.2+13-58
Operating System: Linux
Default Encoding: UTF-8
Language: en
Country: null
--></g></svg>