<?xml version="1.0" encoding="UTF-8" standalone="no"?><svg xmlns="http://www.w3.org/2000/svg" xmlns:xlink="http://www.w3.org/1999/xlink" contentScriptType="application/ecmascript" contentStyleType="text/css" height="543px" preserveAspectRatio="none" style="width:937px;height:543px;" version="1.1" viewBox="0 0 937 543" width="937px" zoomAndPan="magnify"><defs/><g><text fill="#000000" font-family="sans-serif" font-size="18" lengthAdjust="spacingAndGlyphs" textLength="496" x="216.25" y="26.708">Обзор runtime: Telegram-бот и платформы очереди</text><line style="stroke: #7C8798; stroke-width: 1.0; stroke-dasharray: 5.0,5.0;" x1="38" x2="38" y1="117.25" y2="456.5781"/><line style="stroke: #7C8798; stroke-width: 1.0; stroke-dasharray: 5.0,5.0;" x1="254.5" x2="254.5" y1="117.25" y2="456.5781"/><line style="stroke: #7C8798; stroke-width: 1.0; stroke-dasharray: 5.0,5.0;" x1="522.5" x2="522.5" y1="117.25" y2="456.5781"/><line style="stroke: #7C8798; stroke-width: 1.0; stroke-dasharray: 5.0,5.0;" x1="702.5" x2="702.5" y1="117.25" y2="456.5781"/><line style="stroke: #7C8798; stroke-width: 1.0; stroke-dasharray: 5.0,5.0;" x1="854.5" x2="854.5" y1="117.25" y2="456.5781"/><text fill="#000000" font-family="sans-serif" font-size="14" lengthAdjust="spacingAndGlyphs" textLength="55" x="8" y="113.9482">Клиент</text><ellipse cx="38.5" cy="47.9531" fill="#E6FFFA" rx="8" ry="8" style="stroke: #2D3748; stroke-width: 2.0;"/><path d="M38.5,55.9531 L38.5,82.9531 M25.5,63.9531 L51.5,63.9531 M38.5,82.9531 L25.5,97.9531 M38.5,82.9531 L51.5,97.9531 " fill="none" style="stroke: #2D3748; stroke-width: 2.0;"/><text fill="#000000" font-family="sans-serif" font-size="14" lengthAdjust="spacingAndGlyphs" textLength="55" x="8" y="468.5732">Клиент</text><ellipse cx="38.5" cy="481.875" fill="#E6FFFA" rx="8" ry="8" style="stroke: #2D3748; stroke-width: 2.0;"/><path d="M38.5,489.875 L38.5,516.875 M25.5,497.875 L51.5,497.875 M38.5,516.875 L25.5,531.875 M38.5,516.875 L51.5,531.875 " fill="none" style="stroke: #2D3748; stroke-width: 2.0;"/><rect fill="#EDF2F7" height="30.2969" rx="6" ry="6" style="stroke: #2D3748; stroke-width: 1.5;" width="104" x="202.5" y="85.9531"/><text fill="#1A202C" font-family="sans-serif" font-size="14" lengthAdjust="spacingAndGlyphs" textLength="90" x="209.5" y="105.9482">Telegram API</text><rect fill="#EDF2F7" height="30.2969" rx="6" ry="6" style="stroke: #2D3748; stroke-width: 1.5;" width="104" x="202.5" y="455.5781"/><text fill="#1A202C" font-family="sans-serif" font-size="14" lengthAdjust="spacingAndGlyphs" textLength="90" x="209.5" y="475.5732">Telegram API</text><rect fill="#EDF2F7" height="30.2969" rx="6" ry="6" style="stroke: #2D3748; stroke-width: 1.5;" width="124" x="460.5" y="85.9531"/><text fill="#1A202C" font-family="sans-serif" font-size="14" lengthAdjust="spacingAndGlyphs" textLength="110" x="467.5" y="105.9482">Бот (Micronaut)</text><rect fill="#EDF2F7" height="30.2969" rx="6" ry="6" style="stroke: #2D3748; stroke-width: 1.5;" width="124" x="460.5" y="455.5781"/><text fill="#1A202C" font-family="sans-serif" font-size="14" lengthAdjust="spacingAndGlyphs" textLength="110" x="467.5" y="475.5732">Бот (Micronaut)</text><rect fill="#EDF2F7" height="46.5938" rx="6" ry="6" style="stroke: #2D3748; stroke-width: 1.5;" width="154" x="625.5" y="69.6563"/><text fill="#1A202C" font-family="sans-serif" font-size="14" lengthAdjust="spacingAndGlyphs" textLength="72" x="666.5" y="89.6514">Queue API</text><text fill="#1A202C" font-family="sans-serif" font-size="14" lengthAdjust="spacingAndGlyphs" textLength="140" x="632.5" y="105.9482">(Orchestra / Axioma)</text><rect fill="#EDF2F7" height="46.5938" rx="6" ry="6" style="stroke: #2D3748; stroke-width: 1.5;" width="154" x="625.5" y="455.5781"/><text fill="#1A202C" font-family="sans-serif" font-size="14" lengthAdjust="spacingAndGlyphs" textLength="72" x="666.5" y="475.5732">Queue API</text><text fill="#1A202C" font-family="sans-serif" font-size="14" lengthAdjust="spacingAndGlyphs" textLength="140" x="632.5" y="491.8701">(Orchestra / Axioma)</text><rect fill="#EDF2F7" height="46.5938" rx="6" ry="6" style="stroke: #2D3748; stroke-width: 1.5;" width="131" x="789.5" y="69.6563"/><text fill="#1A202C" font-family="sans-serif" font-size="14" lengthAdjust="spacingAndGlyphs" textLength="113" x="798.5" y="89.6514">Поток событий</text><text fill="#1A202C" font-family="sans-serif" font-size="14" lengthAdjust="spacingAndGlyphs" textLength="117" x="796.5" y="105.9482">(CometD / Kafka)</text><rect fill="#EDF2F7" height="46.5938" rx="6" ry="6" style="stroke: #2D3748; stroke-width: 1.5;" width="131" x="789.5" y="455.5781"/><text fill="#1A202C" font-family="sans-serif" font-size="14" lengthAdjust="spacingAndGlyphs" textLength="113" x="798.5" y="475.5732">Поток событий</text><text fill="#1A202C" font-family="sans-serif" font-size="14" lengthAdjust="spacingAndGlyphs" textLength="117" x="796.5" y="491.8701">(CometD / Kafka)</text><rect fill="#EEEEEE" height="3" style="stroke: #EEEEEE; stroke-width: 1.0;" width="922.5" x="3" y="147.8164"/><line style="stroke: #000000; stroke-width: 1.0;" x1="3" x2="925.5" y1="147.8164" y2="147.8164"/><line style="stroke: #000000; stroke-width: 1.0;" x1="3" x2="925.5" y1="150.8164" y2="150.8164"/><rect fill="#EEEEEE" height="23.1328" style="stroke: #000000; stroke-width: 2.0;" width="152" x="388.25" y="137.25"/><text fill="#000000" font-family="sans-serif" font-size="13" font-weight="bold" lengthAdjust="spacingAndGlyphs" textLength="133" x="394.25" y="153.3169">Создание талона</text><polygon fill="#0F4C81" points="242.5,187.5156,252.5,191.5156,242.5,195.5156,246.5,191.5156" style="stroke: #0F4C81; stroke-width: 1.0;"/><line style="stroke: #0F4C81; stroke-width: 1.0;" x1="38.5" x2="248.5" y1="191.5156" y2="191.5156"/><text fill="#000000" font-family="sans-serif" font-size="13" lengthAdjust="spacingAndGlyphs" textLength="192" x="45.5" y="186.4497">/start + действия в диалоге</text><polygon fill="#0F4C81" points="510.5,216.6484,520.5,220.6484,510.5,224.6484,514.5,220.6484" style="stroke: #0F4C81; stroke-width: 1.0;"/><line style="stroke: #0F4C81; stroke-width: 1.0;" x1="254.5" x2="516.5" y1="220.6484" y2="220.6484"/><text fill="#000000" font-family="sans-serif" font-size="13" lengthAdjust="spacingAndGlyphs" textLength="166" x="261.5" y="215.5825">обновления (long polling)</text><polygon fill="#0F4C81" points="690.5,245.7813,700.5,249.7813,690.5,253.7813,694.5,249.7813" style="stroke: #0F4C81; stroke-width: 1.0;"/><line style="stroke: #0F4C81; stroke-width: 1.0;" x1="522.5" x2="696.5" y1="249.7813" y2="249.7813"/><text fill="#000000" font-family="sans-serif" font-size="13" lengthAdjust="spacingAndGlyphs" textLength="156" x="529.5" y="244.7153">GET services / POST visit</text><polygon fill="#0F4C81" points="533.5,274.9141,523.5,278.9141,533.5,282.9141,529.5,278.9141" style="stroke: #0F4C81; stroke-width: 1.0;"/><line style="stroke: #0F4C81; stroke-width: 1.0; stroke-dasharray: 2.0,2.0;" x1="527.5" x2="701.5" y1="278.9141" y2="278.9141"/><text fill="#000000" font-family="sans-serif" font-size="13" lengthAdjust="spacingAndGlyphs" textLength="105" x="539.5" y="273.8481">данные талона</text><polygon fill="#0F4C81" points="265.5,304.0469,255.5,308.0469,265.5,312.0469,261.5,308.0469" style="stroke: #0F4C81; stroke-width: 1.0;"/><line style="stroke: #0F4C81; stroke-width: 1.0; stroke-dasharray: 2.0,2.0;" x1="259.5" x2="521.5" y1="308.0469" y2="308.0469"/><text fill="#000000" font-family="sans-serif" font-size="13" lengthAdjust="spacingAndGlyphs" textLength="160" x="271.5" y="302.981">номер талона + статус</text><rect fill="#EEEEEE" height="3" style="stroke: #EEEEEE; stroke-width: 1.0;" width="922.5" x="3" y="336.6133"/><line style="stroke: #000000; stroke-width: 1.0;" x1="3" x2="925.5" y1="336.6133" y2="336.6133"/><line style="stroke: #000000; stroke-width: 1.0;" x1="3" x2="925.5" y1="339.6133" y2="339.6133"/><rect fill="#EEEEEE" height="23.1328" style="stroke: #000000; stroke-width: 2.0;" width="300" x="314.25" y="326.0469"/><text fill="#000000" font-family="sans-serif" font-size="13" font-weight="bold" lengthAdjust="spacingAndGlyphs" textLength="281" x="320.25" y="342.1138">Асинхронные уведомления о вызове</text><polygon fill="#0F4C81" points="533.5,376.3125,523.5,380.3125,533.5,384.3125,529.5,380.3125" style="stroke: #0F4C81; stroke-width: 1.0;"/><line style="stroke: #0F4C81; stroke-width: 1.0;" x1="527.5" x2="854" y1="380.3125" y2="380.3125"/><text fill="#000000" font-family="sans-serif" font-size="13" lengthAdjust="spacingAndGlyphs" textLength="168" x="539.5" y="375.2466">VISIT_CALL / VISIT_RECALL</text><polygon fill="#0F4C81" points="265.5,405.4453,255.5,409.4453,265.5,413.4453,261.5,409.4453" style="stroke: #0F4C81; stroke-width: 1.0;"/><line style="stroke: #0F4C81; stroke-width: 1.0; stroke-dasharray: 2.0,2.0;" x1="259.5" x2="521.5" y1="409.4453" y2="409.4453"/><text fill="#000000" font-family="sans-serif" font-size="13" lengthAdjust="spacingAndGlyphs" textLength="244" x="271.5" y="404.3794">персонализированное уведомление</text><polygon fill="#0F4C81" points="49.5,434.5781,39.5,438.5781,49.5,442.5781,45.5,438.5781" style="stroke: #0F4C81; stroke-width: 1.0;"/><line style="stroke: #0F4C81; stroke-width: 1.0; stroke-dasharray: 2.0,2.0;" x1="43.5" x2="253.5" y1="438.5781" y2="438.5781"/><text fill="#000000" font-family="sans-serif" font-size="13" lengthAdjust="spacingAndGlyphs" textLength="111" x="55.5" y="433.5122">push-сообщение</text><!--MD5=[eca13fbc762a5231f55476c88c1b0b7f]
@startuml
title Обзор runtime: Telegram-бот и платформы очереди
skinparam backgroundColor #FFFFFF
skinparam shadowing false
skinparam roundcorner 12
skinparam sequence {
  ArrowColor #0F4C81
  LifeLineBorderColor #7C8798
  LifeLineBackgroundColor #F7FAFC
  ParticipantBorderColor #2D3748
  ParticipantBackgroundColor #EDF2F7
  ParticipantFontColor #1A202C
  ActorBorderColor #2D3748
  ActorBackgroundColor #E6FFFA
}

actor "Клиент" as User
participant "Telegram API" as Telegram
participant "Бот (Micronaut)" as Bot
participant "Queue API\n(Orchestra / Axioma)" as Queue
participant "Поток событий\n(CometD / Kafka)" as Events

== Создание талона ==
User -> Telegram: /start + действия в диалоге
Telegram -> Bot: обновления (long polling)
Bot -> Queue: GET services / POST visit
Queue - -> Bot: данные талона
Bot - -> Telegram: номер талона + статус

== Асинхронные уведомления о вызове ==
Events -> Bot: VISIT_CALL / VISIT_RECALL
Bot - -> Telegram: персонализированное уведомление
Telegram - -> User: push-сообщение
@enduml

PlantUML version 1.2020.02(Sun Mar 01 10:22:07 UTC 2020)
(GPL source distribution)
Java Runtime: OpenJDK Runtime Environment
JVM: OpenJDK 64-Bit Server VM
Java Version: 21.0.2+13-58
Operating System: Linux
Default Encoding: UTF-8
Language: en
Country: null
--></g></svg>